G04*
G04 #@! TF.GenerationSoftware,Altium Limited,Altium Designer,20.1.11 (218)*
G04*
G04 Layer_Physical_Order=2*
G04 Layer_Color=16711680*
%FSLAX44Y44*%
%MOMM*%
G71*
G04*
G04 #@! TF.SameCoordinates,350DA1DE-E58E-4F3D-8C29-758E2140AF79*
G04*
G04*
G04 #@! TF.FilePolarity,Positive*
G04*
G01*
G75*
%ADD10C,0.8000*%
%ADD11C,0.5000*%
%ADD12R,2.5000X2.5000*%
%ADD13C,2.5000*%
%ADD14R,2.5000X2.5000*%
G04:AMPARAMS|DCode=15|XSize=2mm|YSize=2mm|CornerRadius=0.5mm|HoleSize=0mm|Usage=FLASHONLY|Rotation=90.000|XOffset=0mm|YOffset=0mm|HoleType=Round|Shape=RoundedRectangle|*
%AMROUNDEDRECTD15*
21,1,2.0000,1.0000,0,0,90.0*
21,1,1.0000,2.0000,0,0,90.0*
1,1,1.0000,0.5000,0.5000*
1,1,1.0000,0.5000,-0.5000*
1,1,1.0000,-0.5000,-0.5000*
1,1,1.0000,-0.5000,0.5000*
%
%ADD15ROUNDEDRECTD15*%
%ADD16C,2.0000*%
%ADD17C,3.0000*%
%ADD18R,3.0000X3.0000*%
G04:AMPARAMS|DCode=19|XSize=2mm|YSize=2mm|CornerRadius=0.5mm|HoleSize=0mm|Usage=FLASHONLY|Rotation=0.000|XOffset=0mm|YOffset=0mm|HoleType=Round|Shape=RoundedRectangle|*
%AMROUNDEDRECTD19*
21,1,2.0000,1.0000,0,0,0.0*
21,1,1.0000,2.0000,0,0,0.0*
1,1,1.0000,0.5000,-0.5000*
1,1,1.0000,-0.5000,-0.5000*
1,1,1.0000,-0.5000,0.5000*
1,1,1.0000,0.5000,0.5000*
%
%ADD19ROUNDEDRECTD19*%
G36*
X357927Y315576D02*
X358047Y313893D01*
X358258Y312303D01*
X358562Y310804D01*
X358958Y309397D01*
X359445Y308082D01*
X360025Y306859D01*
X360696Y305728D01*
X361460Y304689D01*
X362315Y303742D01*
X356658Y298085D01*
X355711Y298940D01*
X354672Y299704D01*
X353540Y300375D01*
X352318Y300955D01*
X351003Y301442D01*
X349596Y301838D01*
X348097Y302142D01*
X346507Y302353D01*
X344824Y302473D01*
X343050Y302501D01*
X357899Y317350D01*
X357927Y315576D01*
D02*
G37*
G36*
X225898Y278552D02*
X226040Y277433D01*
X226278Y276336D01*
X226610Y275261D01*
X227038Y274209D01*
X227560Y273178D01*
X228178Y272170D01*
X228890Y271183D01*
X229698Y270219D01*
X230600Y269277D01*
X213100D01*
X214003Y270219D01*
X214810Y271183D01*
X215523Y272170D01*
X216140Y273178D01*
X216663Y274209D01*
X217090Y275261D01*
X217423Y276336D01*
X217660Y277433D01*
X217803Y278552D01*
X217850Y279693D01*
X225850D01*
X225898Y278552D01*
D02*
G37*
G36*
X183867Y258572D02*
X183640Y257836D01*
Y256988D01*
X183867Y256026D01*
X184319Y254952D01*
X184998Y253764D01*
X185903Y252463D01*
X187035Y251048D01*
X189976Y247880D01*
X184319Y242224D01*
X182679Y243808D01*
X179737Y246297D01*
X178436Y247202D01*
X177248Y247880D01*
X176173Y248333D01*
X175212Y248559D01*
X174363D01*
X173628Y248333D01*
X173006Y247880D01*
X184319Y259194D01*
X183867Y258572D01*
D02*
G37*
G36*
X430959Y230992D02*
X429372Y229349D01*
X426877Y226404D01*
X425969Y225102D01*
X425287Y223914D01*
X424832Y222839D01*
X424602Y221878D01*
X424601Y221611D01*
X425272Y222281D01*
X424822Y221662D01*
X424615Y220980D01*
X424822Y220298D01*
X425272Y219679D01*
X424601Y220349D01*
X424602Y220082D01*
X424832Y219121D01*
X425287Y218046D01*
X425969Y216858D01*
X426877Y215556D01*
X428012Y214140D01*
X430959Y210968D01*
X425302Y205311D01*
X423659Y206898D01*
X420714Y209393D01*
X419412Y210301D01*
X418224Y210983D01*
X417149Y211438D01*
X416188Y211668D01*
X415341Y211671D01*
X414608Y211448D01*
X413989Y210998D01*
X423971Y220980D01*
X413989Y230962D01*
X414608Y230512D01*
X415341Y230289D01*
X416188Y230292D01*
X417149Y230522D01*
X418224Y230977D01*
X419412Y231659D01*
X420714Y232567D01*
X422130Y233702D01*
X425302Y236649D01*
X430959Y230992D01*
D02*
G37*
G36*
X289790Y237268D02*
X289909Y235725D01*
X290108Y234364D01*
X290387Y233185D01*
X290745Y232186D01*
X291183Y231370D01*
X291701Y230735D01*
X292298Y230281D01*
X292975Y230009D01*
X293731Y229918D01*
X277769D01*
X278525Y230009D01*
X279202Y230281D01*
X279799Y230735D01*
X280317Y231370D01*
X280755Y232186D01*
X281113Y233185D01*
X281392Y234364D01*
X281591Y235725D01*
X281710Y237268D01*
X281750Y238992D01*
X289750D01*
X289790Y237268D01*
D02*
G37*
G36*
X467499Y228205D02*
X467771Y227528D01*
X468224Y226931D01*
X468860Y226413D01*
X469676Y225975D01*
X470675Y225617D01*
X471854Y225338D01*
X473215Y225139D01*
X474758Y225020D01*
X476482Y224980D01*
Y216980D01*
X474758Y216940D01*
X473215Y216821D01*
X471854Y216622D01*
X470675Y216343D01*
X469676Y215985D01*
X468860Y215547D01*
X468224Y215029D01*
X467771Y214432D01*
X467499Y213755D01*
X467408Y212999D01*
Y228961D01*
X467499Y228205D01*
D02*
G37*
G36*
X363172Y212999D02*
X363082Y213755D01*
X362809Y214432D01*
X362355Y215029D01*
X361720Y215547D01*
X360904Y215985D01*
X359905Y216343D01*
X358726Y216622D01*
X357365Y216821D01*
X355822Y216940D01*
X354098Y216980D01*
Y224980D01*
X355822Y225020D01*
X357365Y225139D01*
X358726Y225338D01*
X359905Y225617D01*
X360904Y225975D01*
X361720Y226413D01*
X362355Y226931D01*
X362809Y227528D01*
X363082Y228205D01*
X363172Y228961D01*
Y212999D01*
D02*
G37*
G36*
X337958Y228205D02*
X338231Y227528D01*
X338685Y226931D01*
X339320Y226413D01*
X340136Y225975D01*
X341135Y225617D01*
X342314Y225338D01*
X343675Y225139D01*
X345218Y225020D01*
X346942Y224980D01*
Y216980D01*
X345218Y216940D01*
X343675Y216821D01*
X342314Y216622D01*
X341135Y216343D01*
X340136Y215985D01*
X339320Y215547D01*
X338685Y215029D01*
X338231Y214432D01*
X337958Y213755D01*
X337868Y212999D01*
Y228961D01*
X337958Y228205D01*
D02*
G37*
G36*
X295282Y221662D02*
X295059Y220928D01*
X295062Y220082D01*
X295292Y219121D01*
X295747Y218046D01*
X296429Y216858D01*
X297337Y215556D01*
X298472Y214140D01*
X301419Y210968D01*
X295762Y205311D01*
X294119Y206898D01*
X291174Y209393D01*
X289872Y210301D01*
X288684Y210983D01*
X287609Y211438D01*
X286648Y211668D01*
X285802Y211671D01*
X285068Y211448D01*
X284449Y210998D01*
X295732Y222281D01*
X295282Y221662D01*
D02*
G37*
G36*
X525073Y217302D02*
X533875Y208500D01*
X532570Y208472D01*
X531318Y208361D01*
X530116Y208168D01*
X528967Y207891D01*
X527868Y207532D01*
X526822Y207090D01*
X525827Y206565D01*
X524883Y205958D01*
X523991Y205267D01*
X523151Y204494D01*
X517494Y210151D01*
X518267Y210991D01*
X518958Y211883D01*
X519565Y212827D01*
X520090Y213822D01*
X520532Y214868D01*
X520742Y215508D01*
X520141Y215812D01*
X519089Y216240D01*
X518014Y216572D01*
X516917Y216810D01*
X515798Y216952D01*
X514657Y217000D01*
Y225000D01*
X515798Y225047D01*
X516917Y225190D01*
X518014Y225427D01*
X519089Y225760D01*
X520141Y226187D01*
X521172Y226710D01*
X522180Y227327D01*
X523167Y228040D01*
X524131Y228847D01*
X525073Y229750D01*
Y217302D01*
D02*
G37*
G36*
X546017Y169222D02*
X545791Y168486D01*
Y167638D01*
X546017Y166676D01*
X546469Y165602D01*
X547148Y164414D01*
X548053Y163112D01*
X549185Y161698D01*
X552126Y158530D01*
X546469Y152873D01*
X544829Y154458D01*
X541887Y156946D01*
X540586Y157852D01*
X539398Y158530D01*
X538324Y158983D01*
X537362Y159209D01*
X536513D01*
X535778Y158983D01*
X535156Y158530D01*
X546469Y169844D01*
X546017Y169222D01*
D02*
G37*
G36*
X89265Y158448D02*
X88410Y157501D01*
X87646Y156462D01*
X86975Y155331D01*
X86395Y154108D01*
X85908Y152793D01*
X85512Y151386D01*
X85208Y149887D01*
X84997Y148297D01*
X84877Y146614D01*
X84849Y144840D01*
X70000Y159689D01*
X71774Y159717D01*
X73457Y159837D01*
X75047Y160049D01*
X76546Y160352D01*
X77953Y160748D01*
X79268Y161235D01*
X80491Y161815D01*
X81622Y162486D01*
X82661Y163250D01*
X83608Y164105D01*
X89265Y158448D01*
D02*
G37*
G36*
X231017Y153222D02*
X230791Y152486D01*
Y151638D01*
X231017Y150676D01*
X231469Y149601D01*
X232148Y148414D01*
X233053Y147113D01*
X234185Y145698D01*
X237126Y142530D01*
X231469Y136874D01*
X229829Y138457D01*
X226887Y140947D01*
X225586Y141852D01*
X224398Y142530D01*
X223323Y142983D01*
X222362Y143209D01*
X221513D01*
X220778Y142983D01*
X220156Y142530D01*
X231469Y153844D01*
X231017Y153222D01*
D02*
G37*
G36*
X176847Y145131D02*
X176040Y144167D01*
X175327Y143180D01*
X174710Y142172D01*
X174187Y141141D01*
X173760Y140089D01*
X173427Y139014D01*
X173190Y137917D01*
X173047Y136798D01*
X173000Y135657D01*
X165000D01*
X164952Y136798D01*
X164810Y137917D01*
X164572Y139014D01*
X164240Y140089D01*
X163812Y141141D01*
X163290Y142172D01*
X162672Y143180D01*
X161960Y144167D01*
X161152Y145131D01*
X160250Y146073D01*
X177750D01*
X176847Y145131D01*
D02*
G37*
G36*
X621748Y134190D02*
X620474Y135425D01*
X619199Y136530D01*
X617925Y137505D01*
X616651Y138350D01*
X615376Y139065D01*
X614102Y139650D01*
X612827Y140105D01*
X611552Y140430D01*
X610278Y140625D01*
X609003Y140690D01*
Y148690D01*
X610278Y148755D01*
X611552Y148950D01*
X612827Y149275D01*
X614102Y149730D01*
X615376Y150315D01*
X616651Y151030D01*
X617925Y151875D01*
X619199Y152850D01*
X620474Y153955D01*
X621748Y155190D01*
Y134190D01*
D02*
G37*
G36*
X450101Y148702D02*
X453046Y146207D01*
X454348Y145299D01*
X455536Y144617D01*
X456611Y144162D01*
X457572Y143932D01*
X458419Y143929D01*
X459152Y144152D01*
X459771Y144602D01*
X448488Y133319D01*
X448938Y133938D01*
X449161Y134671D01*
X449158Y135518D01*
X448928Y136479D01*
X448473Y137554D01*
X447791Y138742D01*
X446883Y140044D01*
X445748Y141460D01*
X442801Y144632D01*
X448458Y150289D01*
X450101Y148702D01*
D02*
G37*
G36*
X406921D02*
X409866Y146207D01*
X411168Y145299D01*
X412356Y144617D01*
X413431Y144162D01*
X414392Y143932D01*
X415238Y143929D01*
X415972Y144152D01*
X416591Y144602D01*
X405308Y133319D01*
X405758Y133938D01*
X405981Y134671D01*
X405978Y135518D01*
X405748Y136479D01*
X405293Y137554D01*
X404611Y138742D01*
X403703Y140044D01*
X402568Y141460D01*
X399621Y144632D01*
X405278Y150289D01*
X406921Y148702D01*
D02*
G37*
G36*
X319992Y126639D02*
X319902Y127395D01*
X319629Y128072D01*
X319175Y128669D01*
X318540Y129187D01*
X317724Y129625D01*
X316725Y129983D01*
X315546Y130262D01*
X314184Y130461D01*
X312642Y130580D01*
X310918Y130620D01*
Y138620D01*
X312642Y138660D01*
X314184Y138779D01*
X315546Y138978D01*
X316725Y139257D01*
X317724Y139615D01*
X318540Y140053D01*
X319175Y140571D01*
X319629Y141168D01*
X319902Y141845D01*
X319992Y142601D01*
Y126639D01*
D02*
G37*
G36*
X294778Y141845D02*
X295051Y141168D01*
X295504Y140571D01*
X296140Y140053D01*
X296956Y139615D01*
X297955Y139257D01*
X299134Y138978D01*
X300495Y138779D01*
X302038Y138660D01*
X303762Y138620D01*
Y130620D01*
X302038Y130580D01*
X300495Y130461D01*
X299134Y130262D01*
X297955Y129983D01*
X296956Y129625D01*
X296140Y129187D01*
X295504Y128669D01*
X295051Y128072D01*
X294778Y127395D01*
X294688Y126639D01*
Y142601D01*
X294778Y141845D01*
D02*
G37*
G36*
X373411Y124638D02*
X372792Y125088D01*
X372058Y125311D01*
X371212Y125308D01*
X370251Y125078D01*
X369176Y124623D01*
X367988Y123941D01*
X366686Y123033D01*
X365270Y121898D01*
X362098Y118951D01*
X356441Y124608D01*
X358028Y126251D01*
X360523Y129196D01*
X361431Y130498D01*
X362113Y131686D01*
X362568Y132761D01*
X362798Y133722D01*
X362801Y134569D01*
X362578Y135302D01*
X362128Y135921D01*
X373411Y124638D01*
D02*
G37*
G36*
X424822Y135302D02*
X424599Y134569D01*
X424602Y133722D01*
X424832Y132761D01*
X425287Y131686D01*
X425969Y130498D01*
X426877Y129196D01*
X428012Y127780D01*
X430061Y125575D01*
X430225Y125422D01*
X431427Y124460D01*
X432675Y123612D01*
X433970Y122877D01*
X435313Y122254D01*
X436702Y121745D01*
X438138Y121349D01*
X439621Y121066D01*
X441150Y120897D01*
X442727Y120840D01*
X450727Y112840D01*
X449263Y112783D01*
X448073Y112614D01*
X447156Y112331D01*
X446512Y111935D01*
X446141Y111426D01*
X446043Y110803D01*
X446219Y110068D01*
X446667Y109220D01*
X447389Y108258D01*
X448384Y107183D01*
X430242Y114012D01*
X429394Y123042D01*
X425302Y118951D01*
X423659Y120538D01*
X420714Y123033D01*
X420262Y123348D01*
X419927Y122415D01*
X419648Y121236D01*
X419449Y119874D01*
X419330Y118332D01*
X419290Y116608D01*
X411290D01*
X411250Y118332D01*
X411131Y119874D01*
X410932Y121236D01*
X410653Y122415D01*
X410295Y123414D01*
X409857Y124230D01*
X409339Y124866D01*
X408742Y125319D01*
X408065Y125591D01*
X407309Y125682D01*
X415033D01*
X425272Y135921D01*
X424822Y135302D01*
D02*
G37*
G36*
X354560Y98838D02*
X354679Y97296D01*
X354878Y95934D01*
X355157Y94755D01*
X355515Y93756D01*
X355953Y92940D01*
X356471Y92304D01*
X357068Y91851D01*
X357745Y91579D01*
X358501Y91488D01*
X342539D01*
X343295Y91579D01*
X343972Y91851D01*
X344569Y92304D01*
X345087Y92940D01*
X345525Y93756D01*
X345883Y94755D01*
X346162Y95934D01*
X346361Y97296D01*
X346480Y98838D01*
X346520Y100562D01*
X354520D01*
X354560Y98838D01*
D02*
G37*
G36*
X537610Y90029D02*
X538347Y89420D01*
X539096Y88883D01*
X539858Y88418D01*
X540631Y88027D01*
X541417Y87708D01*
X542214Y87462D01*
X543024Y87288D01*
X543846Y87188D01*
X544680Y87160D01*
X534781Y77260D01*
X534753Y78094D01*
X534652Y78916D01*
X534479Y79726D01*
X534232Y80524D01*
X533914Y81309D01*
X533522Y82083D01*
X533058Y82844D01*
X532521Y83593D01*
X531911Y84330D01*
X531228Y85055D01*
X536885Y90712D01*
X537610Y90029D01*
D02*
G37*
G36*
X499510D02*
X500247Y89420D01*
X500996Y88883D01*
X501758Y88418D01*
X502531Y88027D01*
X503317Y87708D01*
X504114Y87462D01*
X504924Y87288D01*
X505746Y87188D01*
X506580Y87160D01*
X496681Y77260D01*
X496653Y78094D01*
X496552Y78916D01*
X496379Y79726D01*
X496133Y80524D01*
X495814Y81309D01*
X495422Y82083D01*
X494958Y82844D01*
X494421Y83593D01*
X493811Y84330D01*
X493128Y85055D01*
X498785Y90712D01*
X499510Y90029D01*
D02*
G37*
G36*
X632310Y79691D02*
X630536Y79663D01*
X628853Y79543D01*
X627263Y79332D01*
X625764Y79028D01*
X624357Y78632D01*
X623042Y78145D01*
X621819Y77565D01*
X620688Y76894D01*
X619649Y76131D01*
X618702Y75275D01*
X613045Y80932D01*
X613900Y81879D01*
X614664Y82919D01*
X615335Y84050D01*
X615915Y85273D01*
X616402Y86587D01*
X616798Y87994D01*
X617102Y89493D01*
X617313Y91083D01*
X617433Y92766D01*
X617461Y94540D01*
X632310Y79691D01*
D02*
G37*
G36*
X84877Y92766D02*
X84997Y91083D01*
X85208Y89493D01*
X85512Y87994D01*
X85908Y86587D01*
X86395Y85273D01*
X86975Y84050D01*
X87646Y82919D01*
X88410Y81879D01*
X89265Y80932D01*
X83608Y75275D01*
X82661Y76131D01*
X81622Y76894D01*
X80491Y77565D01*
X79268Y78145D01*
X77953Y78632D01*
X76546Y79028D01*
X75047Y79332D01*
X73457Y79543D01*
X71774Y79663D01*
X70000Y79691D01*
X84849Y94540D01*
X84877Y92766D01*
D02*
G37*
G36*
X341582Y74569D02*
X341492Y75325D01*
X341219Y76002D01*
X340765Y76599D01*
X340130Y77117D01*
X339314Y77555D01*
X338315Y77913D01*
X337136Y78192D01*
X335774Y78391D01*
X334232Y78510D01*
X332508Y78550D01*
Y86550D01*
X334232Y86590D01*
X335774Y86709D01*
X337136Y86908D01*
X338315Y87187D01*
X339314Y87545D01*
X340130Y87983D01*
X340765Y88501D01*
X341219Y89098D01*
X341492Y89775D01*
X341582Y90531D01*
Y74569D01*
D02*
G37*
G36*
X288605Y91132D02*
X289806Y90170D01*
X291055Y89322D01*
X292350Y88587D01*
X293692Y87964D01*
X295082Y87455D01*
X296518Y87059D01*
X298000Y86776D01*
X299530Y86607D01*
X301107Y86550D01*
X309107Y78550D01*
X307643Y78493D01*
X306453Y78324D01*
X305536Y78041D01*
X304892Y77645D01*
X304521Y77136D01*
X304423Y76514D01*
X304599Y75778D01*
X305047Y74930D01*
X305769Y73968D01*
X306763Y72893D01*
X288621Y79722D01*
X287450Y92207D01*
X288605Y91132D01*
D02*
G37*
G36*
X444105Y73521D02*
X443428Y73249D01*
X442831Y72796D01*
X442313Y72160D01*
X441875Y71344D01*
X441517Y70345D01*
X441238Y69166D01*
X441039Y67804D01*
X440920Y66262D01*
X440880Y64538D01*
X432880D01*
X432840Y66262D01*
X432721Y67804D01*
X432522Y69166D01*
X432243Y70345D01*
X431885Y71344D01*
X431447Y72160D01*
X430929Y72796D01*
X430332Y73249D01*
X429655Y73521D01*
X428899Y73612D01*
X444861D01*
X444105Y73521D01*
D02*
G37*
G36*
X176240Y59444D02*
X176360Y58078D01*
X176560Y56874D01*
X176840Y55830D01*
X177200Y54947D01*
X177640Y54224D01*
X178160Y53662D01*
X178760Y53260D01*
X179440Y53019D01*
X180200Y52939D01*
X164200D01*
X164960Y53019D01*
X165640Y53260D01*
X166240Y53662D01*
X166760Y54224D01*
X167200Y54947D01*
X167560Y55830D01*
X167840Y56874D01*
X168040Y58078D01*
X168160Y59444D01*
X168200Y60969D01*
X176200D01*
X176240Y59444D01*
D02*
G37*
G36*
X533481Y62000D02*
X534134Y61490D01*
X534829Y61040D01*
X535567Y60650D01*
X536348Y60320D01*
X537172Y60050D01*
X538038Y59840D01*
X538948Y59690D01*
X539900Y59600D01*
X540895Y59570D01*
Y51570D01*
X539900Y51540D01*
X538948Y51450D01*
X538038Y51300D01*
X537172Y51090D01*
X536348Y50820D01*
X535567Y50490D01*
X534829Y50100D01*
X534134Y49650D01*
X533481Y49140D01*
X532872Y48570D01*
Y62570D01*
X533481Y62000D01*
D02*
G37*
G36*
X366189Y37952D02*
X364602Y36309D01*
X362107Y33364D01*
X361199Y32062D01*
X360517Y30874D01*
X360062Y29799D01*
X359832Y28838D01*
X359829Y27991D01*
X360052Y27258D01*
X360502Y26639D01*
X349219Y37922D01*
X349838Y37472D01*
X350572Y37249D01*
X351418Y37252D01*
X352379Y37482D01*
X353454Y37937D01*
X354642Y38619D01*
X355944Y39527D01*
X357360Y40662D01*
X360532Y43609D01*
X366189Y37952D01*
D02*
G37*
G36*
X440920Y44228D02*
X441039Y42685D01*
X441238Y41324D01*
X441517Y40145D01*
X441875Y39146D01*
X442313Y38330D01*
X442831Y37694D01*
X443428Y37241D01*
X444105Y36969D01*
X444861Y36878D01*
X428899D01*
X429655Y36969D01*
X430332Y37241D01*
X430929Y37694D01*
X431447Y38330D01*
X431885Y39146D01*
X432243Y40145D01*
X432522Y41324D01*
X432721Y42685D01*
X432840Y44228D01*
X432880Y45952D01*
X440880D01*
X440920Y44228D01*
D02*
G37*
G36*
X262288Y27500D02*
X261014Y28735D01*
X259739Y29840D01*
X258465Y30815D01*
X257191Y31660D01*
X255916Y32375D01*
X254642Y32960D01*
X253367Y33415D01*
X252093Y33740D01*
X250818Y33935D01*
X249543Y34000D01*
Y42000D01*
X250818Y42065D01*
X252093Y42260D01*
X253367Y42585D01*
X254642Y43040D01*
X255916Y43625D01*
X257191Y44340D01*
X258465Y45185D01*
X259739Y46160D01*
X261014Y47265D01*
X262288Y48500D01*
Y27500D01*
D02*
G37*
G36*
X234187Y47265D02*
X235461Y46160D01*
X236735Y45185D01*
X238010Y44340D01*
X239284Y43625D01*
X240559Y43040D01*
X241833Y42585D01*
X243108Y42260D01*
X244382Y42065D01*
X245657Y42000D01*
Y34000D01*
X244382Y33935D01*
X243108Y33740D01*
X241833Y33415D01*
X240559Y32960D01*
X239284Y32375D01*
X238010Y31660D01*
X236735Y30815D01*
X235461Y29840D01*
X234187Y28735D01*
X232912Y27500D01*
Y48500D01*
X234187Y47265D01*
D02*
G37*
G36*
X222050Y23001D02*
X220276Y22973D01*
X218593Y22853D01*
X217003Y22641D01*
X215504Y22338D01*
X214097Y21942D01*
X212783Y21455D01*
X211560Y20875D01*
X210429Y20204D01*
X209389Y19440D01*
X208442Y18585D01*
X202785Y24242D01*
X203641Y25189D01*
X204404Y26228D01*
X205075Y27359D01*
X205655Y28582D01*
X206143Y29897D01*
X206538Y31304D01*
X206842Y32803D01*
X207054Y34393D01*
X207173Y36076D01*
X207201Y37850D01*
X222050Y23001D01*
D02*
G37*
D10*
X261000Y309000D02*
X324534Y372533D01*
X221850Y260350D02*
Y304314D01*
X226537Y309000D02*
X261000D01*
X221850Y304314D02*
X226537Y309000D01*
X324534Y372533D02*
X435412D01*
X285750Y220980D02*
Y296418D01*
X329438Y340106D01*
X356894D01*
X449000Y254690D02*
Y358946D01*
X435412Y372533D02*
X449000Y358946D01*
X388690Y321710D02*
X392900Y317500D01*
X375290Y321710D02*
X388690D01*
X356894Y340106D02*
X375290Y321710D01*
X415290Y220980D02*
X449000Y254690D01*
X433070Y116840D02*
X526642Y23268D01*
X415290Y134620D02*
X433070Y116840D01*
X291450Y82550D02*
X327264Y46736D01*
X219000Y155000D02*
X291450Y82550D01*
X526642Y23268D02*
X561038D01*
X632460Y94690D01*
X415290Y92710D02*
Y134620D01*
X350520Y27940D02*
X415290Y92710D01*
X560310Y144690D02*
X632460D01*
X534000Y171000D02*
X560310Y144690D01*
X514858Y201858D02*
X534000Y221000D01*
X514858Y107082D02*
Y201858D01*
Y107082D02*
X544780Y77160D01*
X350520Y82550D02*
Y113030D01*
X372110Y134620D01*
X69850Y144690D02*
X171850Y246690D01*
Y260350D01*
X525730Y55570D02*
X547568D01*
X611632Y119634D01*
X647700D01*
X654050Y113284D01*
Y79248D02*
Y113284D01*
X585724Y10922D02*
X654050Y79248D01*
X335392Y10922D02*
X585724D01*
X327264Y19050D02*
X335392Y10922D01*
X327264Y19050D02*
Y46736D01*
X285750Y220980D02*
X325882Y180848D01*
X412242D01*
X458470Y134620D01*
X415290Y220980D02*
X449868Y186402D01*
X470180D01*
X487813Y168769D01*
Y96028D02*
Y168769D01*
Y96028D02*
X506680Y77160D01*
X342900Y317500D02*
X393700Y266700D01*
Y211328D02*
Y266700D01*
Y211328D02*
X406400Y198628D01*
X417830D01*
X465328Y151130D01*
X475234D01*
Y116840D02*
Y151130D01*
X433070Y116840D02*
X475234D01*
X384048Y165862D02*
X415290Y134620D01*
X266338Y165862D02*
X384048D01*
X171850Y260350D02*
X266338Y165862D01*
X200456Y16256D02*
X222200Y38000D01*
X148284Y16256D02*
X200456D01*
X69850Y94690D02*
X148284Y16256D01*
X291450Y82550D02*
X350520D01*
X496082Y221000D02*
X534000D01*
X496062Y220980D02*
X496082Y221000D01*
X458470Y220980D02*
X496062D01*
X169000Y97942D02*
Y155000D01*
Y97942D02*
X172200Y94742D01*
Y38000D02*
Y94742D01*
X222200Y38000D02*
X273000D01*
X285750Y134620D02*
X328930D01*
Y220980D02*
X372110D01*
X436880Y27940D02*
Y82550D01*
D11*
X394003Y341000D02*
Y360993D01*
X384007Y350997D02*
X404000D01*
X34003Y85000D02*
Y104993D01*
X24007Y94997D02*
X44000D01*
D12*
X534000Y171000D02*
D03*
D13*
Y221000D02*
D03*
X169000Y155000D02*
D03*
X221850Y260350D02*
D03*
D14*
X219000Y155000D02*
D03*
X171850Y260350D02*
D03*
D15*
X458470Y134620D02*
D03*
Y220980D02*
D03*
X285750D02*
D03*
Y134620D02*
D03*
X328930D02*
D03*
Y220980D02*
D03*
X372110D02*
D03*
Y134620D02*
D03*
X415290Y220980D02*
D03*
Y134620D02*
D03*
D16*
X506680Y77160D02*
D03*
X544780D02*
D03*
X525730Y55570D02*
D03*
D17*
X342900Y317500D02*
D03*
X392900D02*
D03*
X222200Y38000D02*
D03*
X273000D02*
D03*
X632460Y94690D02*
D03*
Y144690D02*
D03*
X69850Y94690D02*
D03*
Y144690D02*
D03*
D18*
X172200Y38000D02*
D03*
D19*
X350520Y82550D02*
D03*
X436880D02*
D03*
Y27940D02*
D03*
X350520D02*
D03*
M02*
