G04*
G04 #@! TF.GenerationSoftware,Altium Limited,Altium Designer,20.1.11 (218)*
G04*
G04 Layer_Physical_Order=2*
G04 Layer_Color=16711680*
%FSLAX44Y44*%
%MOMM*%
G71*
G04*
G04 #@! TF.SameCoordinates,1E93E203-379C-4427-B74E-A7C53D13A6E2*
G04*
G04*
G04 #@! TF.FilePolarity,Positive*
G04*
G01*
G75*
%ADD10C,2.0000*%
%ADD11C,0.8000*%
%ADD12C,0.2540*%
%ADD13R,2.5000X2.5000*%
%ADD14C,2.5000*%
G04:AMPARAMS|DCode=15|XSize=2mm|YSize=2mm|CornerRadius=0.5mm|HoleSize=0mm|Usage=FLASHONLY|Rotation=0.000|XOffset=0mm|YOffset=0mm|HoleType=Round|Shape=RoundedRectangle|*
%AMROUNDEDRECTD15*
21,1,2.0000,1.0000,0,0,0.0*
21,1,1.0000,2.0000,0,0,0.0*
1,1,1.0000,0.5000,-0.5000*
1,1,1.0000,-0.5000,-0.5000*
1,1,1.0000,-0.5000,0.5000*
1,1,1.0000,0.5000,0.5000*
%
%ADD15ROUNDEDRECTD15*%
G04:AMPARAMS|DCode=16|XSize=2mm|YSize=2mm|CornerRadius=0.5mm|HoleSize=0mm|Usage=FLASHONLY|Rotation=90.000|XOffset=0mm|YOffset=0mm|HoleType=Round|Shape=RoundedRectangle|*
%AMROUNDEDRECTD16*
21,1,2.0000,1.0000,0,0,90.0*
21,1,1.0000,2.0000,0,0,90.0*
1,1,1.0000,0.5000,0.5000*
1,1,1.0000,0.5000,-0.5000*
1,1,1.0000,-0.5000,-0.5000*
1,1,1.0000,-0.5000,0.5000*
%
%ADD16ROUNDEDRECTD16*%
%ADD17C,2.0000*%
%ADD18R,2.0000X2.0000*%
%ADD19O,2.0000X3.5000*%
%ADD20C,3.3020*%
%ADD21C,3.0000*%
G36*
X81390Y143500D02*
X81890Y134032D01*
X60890D01*
X60985Y134215D01*
X61070Y134568D01*
X61145Y135090D01*
X61265Y136644D01*
X61385Y141790D01*
X61390Y143500D01*
X81390D01*
D02*
G37*
G36*
X61390Y174350D02*
X60890Y183818D01*
X81890D01*
X81795Y183635D01*
X81710Y183283D01*
X81635Y182760D01*
X81515Y181206D01*
X81395Y176061D01*
X81390Y174350D01*
X61390D01*
D02*
G37*
G36*
X51975Y230772D02*
X52831Y231720D01*
X53594Y232759D01*
X54266Y233890D01*
X54845Y235113D01*
X55333Y236428D01*
X55728Y237834D01*
X56032Y239333D01*
X56244Y240924D01*
X56363Y242606D01*
X56391Y244380D01*
X71240Y229531D01*
X69466Y229503D01*
X67783Y229384D01*
X66193Y229172D01*
X64694Y228868D01*
X63288Y228473D01*
X61973Y227985D01*
X60750Y227406D01*
X59619Y226734D01*
X58580Y225971D01*
X57632Y225116D01*
X51975Y230772D01*
D02*
G37*
G36*
X91571Y184531D02*
X82102Y184030D01*
Y205030D01*
X82285Y204935D01*
X82638Y204851D01*
X83160Y204776D01*
X84714Y204655D01*
X89860Y204536D01*
X91571Y204531D01*
Y184531D01*
D02*
G37*
G36*
X216662Y80836D02*
X215812Y80832D01*
X212590Y80618D01*
X212367Y80552D01*
X212232Y80476D01*
X212188Y80392D01*
Y89280D01*
X212232Y89196D01*
X212367Y89120D01*
X212590Y89053D01*
X212903Y88996D01*
X213306Y88947D01*
X214380Y88876D01*
X216662Y88836D01*
Y80836D01*
D02*
G37*
G36*
X261988Y118975D02*
X264485Y116504D01*
X275991Y106298D01*
X277328Y105366D01*
X278500Y104654D01*
X279507Y104161D01*
X262660Y87314D01*
X262167Y88320D01*
X261455Y89492D01*
X260523Y90830D01*
X258000Y94003D01*
X254598Y97837D01*
X247846Y104833D01*
X261988Y118975D01*
D02*
G37*
G36*
X282013Y165511D02*
X280370Y167098D01*
X277424Y169593D01*
X276122Y170501D01*
X274934Y171183D01*
X273860Y171639D01*
X272899Y171868D01*
X272052Y171871D01*
X271319Y171648D01*
X270699Y171198D01*
X281982Y182482D01*
X281533Y181862D01*
X281310Y181129D01*
X281313Y180282D01*
X281542Y179321D01*
X281998Y178246D01*
X282680Y177058D01*
X283588Y175756D01*
X284722Y174340D01*
X287670Y171168D01*
X282013Y165511D01*
D02*
G37*
G36*
X404430Y279349D02*
X403920Y278697D01*
X403470Y278002D01*
X403080Y277264D01*
X402750Y276483D01*
X402480Y275659D01*
X402270Y274792D01*
X402120Y273883D01*
X402030Y272930D01*
X402000Y271935D01*
X394000D01*
X393970Y272930D01*
X393880Y273883D01*
X393730Y274792D01*
X393520Y275659D01*
X393250Y276483D01*
X392920Y277264D01*
X392530Y278002D01*
X392080Y278697D01*
X391570Y279349D01*
X391000Y279959D01*
X405000D01*
X404430Y279349D01*
D02*
G37*
G36*
X372500Y200901D02*
X371666Y200873D01*
X370844Y200772D01*
X370034Y200599D01*
X369237Y200353D01*
X368451Y200034D01*
X367678Y199642D01*
X366916Y199178D01*
X366167Y198641D01*
X365430Y198031D01*
X364705Y197348D01*
X359048Y203005D01*
X359731Y203730D01*
X360341Y204467D01*
X360878Y205217D01*
X361342Y205978D01*
X361734Y206751D01*
X362052Y207537D01*
X362299Y208335D01*
X362472Y209144D01*
X362573Y209966D01*
X362601Y210800D01*
X372500Y200901D01*
D02*
G37*
G36*
X323561Y154000D02*
X323480Y154760D01*
X323240Y155440D01*
X322838Y156040D01*
X322276Y156560D01*
X321553Y157000D01*
X320670Y157360D01*
X319626Y157640D01*
X318421Y157840D01*
X317056Y157960D01*
X315530Y158000D01*
Y166000D01*
X317056Y166040D01*
X318421Y166160D01*
X319626Y166360D01*
X320670Y166640D01*
X321553Y167000D01*
X322276Y167440D01*
X322838Y167960D01*
X323240Y168560D01*
X323480Y169240D01*
X323561Y170000D01*
Y154000D01*
D02*
G37*
G36*
X399527Y160571D02*
X399638Y159318D01*
X399832Y158117D01*
X400108Y156967D01*
X400468Y155869D01*
X400910Y154822D01*
X401435Y153827D01*
X402042Y152884D01*
X402733Y151992D01*
X403506Y151151D01*
X397849Y145494D01*
X397009Y146268D01*
X396117Y146958D01*
X395173Y147566D01*
X394178Y148090D01*
X393131Y148532D01*
X392033Y148892D01*
X390884Y149168D01*
X389682Y149362D01*
X388429Y149473D01*
X387125Y149501D01*
X399499Y161875D01*
X399527Y160571D01*
D02*
G37*
G36*
X376991Y126733D02*
X377883Y126042D01*
X378827Y125435D01*
X379822Y124910D01*
X380868Y124468D01*
X381967Y124108D01*
X383116Y123832D01*
X384318Y123638D01*
X385571Y123527D01*
X386875Y123499D01*
X374501Y111125D01*
X374473Y112430D01*
X374362Y113682D01*
X374168Y114884D01*
X373891Y116033D01*
X373532Y117132D01*
X373090Y118178D01*
X372565Y119173D01*
X371958Y120117D01*
X371267Y121009D01*
X370494Y121849D01*
X376151Y127506D01*
X376991Y126733D01*
D02*
G37*
G36*
X343847Y101131D02*
X343040Y100167D01*
X342327Y99180D01*
X341710Y98172D01*
X341187Y97141D01*
X340760Y96089D01*
X340427Y95014D01*
X340190Y93917D01*
X340047Y92798D01*
X340000Y91657D01*
X332000D01*
X331952Y92798D01*
X331810Y93917D01*
X331572Y95014D01*
X331240Y96089D01*
X330812Y97141D01*
X330290Y98172D01*
X329672Y99180D01*
X328960Y100167D01*
X328152Y101131D01*
X327250Y102073D01*
X344750D01*
X343847Y101131D01*
D02*
G37*
G36*
X316929Y52763D02*
X315343Y51119D01*
X312847Y48174D01*
X311939Y46872D01*
X311257Y45684D01*
X310802Y44609D01*
X310572Y43649D01*
X310569Y42802D01*
X310793Y42068D01*
X311242Y41449D01*
X299959Y52732D01*
X300578Y52283D01*
X301312Y52059D01*
X302159Y52063D01*
X303120Y52292D01*
X304194Y52747D01*
X305382Y53429D01*
X306684Y54337D01*
X308100Y55472D01*
X311273Y58419D01*
X316929Y52763D01*
D02*
G37*
G36*
X432917Y287822D02*
X432691Y287087D01*
Y286238D01*
X432917Y285277D01*
X433370Y284202D01*
X434049Y283014D01*
X434954Y281713D01*
X436085Y280299D01*
X439027Y277131D01*
X433370Y271474D01*
X431729Y273058D01*
X428788Y275547D01*
X427487Y276452D01*
X426299Y277131D01*
X425224Y277583D01*
X424262Y277810D01*
X423414D01*
X422678Y277583D01*
X422056Y277131D01*
X433370Y288444D01*
X432917Y287822D01*
D02*
G37*
G36*
X564289Y220995D02*
X564561Y220319D01*
X565015Y219721D01*
X565650Y219204D01*
X566467Y218766D01*
X567465Y218407D01*
X568645Y218129D01*
X570006Y217930D01*
X571549Y217810D01*
X573273Y217771D01*
Y209771D01*
X571549Y209731D01*
X570006Y209611D01*
X568645Y209412D01*
X567465Y209133D01*
X566467Y208775D01*
X565650Y208337D01*
X565015Y207819D01*
X564561Y207222D01*
X564289Y206546D01*
X564198Y205789D01*
Y221752D01*
X564289Y220995D01*
D02*
G37*
G36*
X429830Y203149D02*
X429320Y202497D01*
X428870Y201802D01*
X428480Y201064D01*
X428150Y200283D01*
X427880Y199459D01*
X427670Y198592D01*
X427520Y197683D01*
X427430Y196730D01*
X427400Y195735D01*
X419400D01*
X419370Y196730D01*
X419280Y197683D01*
X419130Y198592D01*
X418920Y199459D01*
X418650Y200283D01*
X418320Y201064D01*
X417930Y201802D01*
X417480Y202497D01*
X416970Y203149D01*
X416400Y203759D01*
X430400D01*
X429830Y203149D01*
D02*
G37*
G36*
X546323Y180389D02*
X546232Y181145D01*
X545960Y181822D01*
X545506Y182419D01*
X544870Y182937D01*
X544054Y183375D01*
X543056Y183733D01*
X541876Y184012D01*
X540515Y184211D01*
X538972Y184331D01*
X537248Y184370D01*
Y192370D01*
X538972Y192410D01*
X540515Y192530D01*
X541876Y192729D01*
X543056Y193008D01*
X544054Y193366D01*
X544870Y193804D01*
X545506Y194321D01*
X545960Y194919D01*
X546232Y195595D01*
X546323Y196352D01*
Y180389D01*
D02*
G37*
G36*
X493230Y180970D02*
X493967Y180360D01*
X494716Y179823D01*
X495478Y179358D01*
X496251Y178967D01*
X497037Y178648D01*
X497835Y178402D01*
X498644Y178228D01*
X499466Y178128D01*
X500300Y178100D01*
X490401Y168200D01*
X490373Y169034D01*
X490272Y169856D01*
X490099Y170666D01*
X489853Y171464D01*
X489534Y172249D01*
X489142Y173023D01*
X488678Y173784D01*
X488141Y174533D01*
X487531Y175270D01*
X486848Y175995D01*
X492505Y181652D01*
X493230Y180970D01*
D02*
G37*
G36*
X472042Y160959D02*
X482000D01*
X481430Y160349D01*
X480920Y159697D01*
X480470Y159002D01*
X480080Y158264D01*
X479750Y157483D01*
X479480Y156659D01*
X479270Y155792D01*
X479120Y154883D01*
X479030Y153930D01*
X479000Y152935D01*
X471000D01*
X470970Y153930D01*
X470880Y154883D01*
X470730Y155792D01*
X470520Y156659D01*
X470406Y157008D01*
X470078Y156842D01*
X469316Y156378D01*
X468567Y155841D01*
X467830Y155231D01*
X467105Y154548D01*
X461449Y160205D01*
X462131Y160930D01*
X462741Y161667D01*
X463278Y162416D01*
X463742Y163178D01*
X464134Y163951D01*
X464453Y164737D01*
X464699Y165534D01*
X464872Y166344D01*
X464973Y167166D01*
X465001Y168000D01*
X472042Y160959D01*
D02*
G37*
G36*
X565145Y163691D02*
X565338Y163313D01*
X565659Y162980D01*
X566108Y162691D01*
X566686Y162446D01*
X567392Y162246D01*
X568226Y162091D01*
X569189Y161979D01*
X570280Y161913D01*
X571500Y161891D01*
Y153890D01*
X570280Y153868D01*
X568226Y153690D01*
X567392Y153535D01*
X566686Y153335D01*
X566108Y153090D01*
X565659Y152801D01*
X565338Y152467D01*
X565145Y152090D01*
X565081Y151667D01*
Y164114D01*
X565145Y163691D01*
D02*
G37*
G36*
X546323Y124509D02*
X546232Y125266D01*
X545960Y125942D01*
X545506Y126539D01*
X544870Y127057D01*
X544054Y127495D01*
X543056Y127853D01*
X541876Y128132D01*
X540515Y128331D01*
X538972Y128451D01*
X537248Y128490D01*
Y136490D01*
X538972Y136530D01*
X540515Y136650D01*
X541876Y136849D01*
X543056Y137128D01*
X544054Y137486D01*
X544870Y137924D01*
X545506Y138441D01*
X545960Y139039D01*
X546232Y139715D01*
X546323Y140472D01*
Y124509D01*
D02*
G37*
G36*
X485028Y90966D02*
X485129Y90144D01*
X485302Y89334D01*
X485548Y88537D01*
X485867Y87751D01*
X486259Y86978D01*
X486723Y86216D01*
X487260Y85467D01*
X487870Y84730D01*
X488552Y84005D01*
X482895Y78348D01*
X482170Y79031D01*
X481433Y79641D01*
X480684Y80178D01*
X479923Y80642D01*
X479149Y81034D01*
X478364Y81353D01*
X477566Y81599D01*
X476756Y81772D01*
X475934Y81873D01*
X475100Y81901D01*
X485000Y91800D01*
X485028Y90966D01*
D02*
G37*
G36*
X459117Y92622D02*
X458891Y91887D01*
Y91038D01*
X459117Y90077D01*
X459570Y89002D01*
X460249Y87814D01*
X461154Y86513D01*
X462285Y85099D01*
X465227Y81931D01*
X459570Y76274D01*
X457929Y77858D01*
X454988Y80347D01*
X453687Y81252D01*
X452499Y81931D01*
X451424Y82383D01*
X450462Y82610D01*
X449614D01*
X448878Y82383D01*
X448256Y81931D01*
X459570Y93244D01*
X459117Y92622D01*
D02*
G37*
G36*
X568390Y52763D02*
X566802Y51119D01*
X564307Y48174D01*
X563399Y46872D01*
X562717Y45684D01*
X562262Y44609D01*
X562033Y43649D01*
X562029Y42802D01*
X562253Y42068D01*
X562702Y41449D01*
X551419Y52732D01*
X552038Y52283D01*
X552772Y52059D01*
X553619Y52063D01*
X554580Y52292D01*
X555654Y52747D01*
X556842Y53429D01*
X558144Y54337D01*
X559560Y55472D01*
X562733Y58419D01*
X568390Y52763D01*
D02*
G37*
G36*
X432300Y59039D02*
X432420Y57496D01*
X432619Y56135D01*
X432897Y54955D01*
X433256Y53957D01*
X433694Y53140D01*
X434211Y52505D01*
X434808Y52051D01*
X435485Y51779D01*
X436242Y51688D01*
X420279D01*
X421035Y51779D01*
X421712Y52051D01*
X422309Y52505D01*
X422827Y53140D01*
X423265Y53957D01*
X423623Y54955D01*
X423902Y56135D01*
X424101Y57496D01*
X424220Y59039D01*
X424260Y60763D01*
X432260D01*
X432300Y59039D01*
D02*
G37*
G36*
X457991Y56832D02*
X460936Y54337D01*
X462238Y53429D01*
X463427Y52747D01*
X464501Y52292D01*
X465462Y52063D01*
X466309Y52059D01*
X467042Y52283D01*
X467662Y52732D01*
X456378Y41449D01*
X456828Y42068D01*
X457051Y42802D01*
X457048Y43649D01*
X456819Y44609D01*
X456363Y45684D01*
X455681Y46872D01*
X454773Y48174D01*
X453639Y49590D01*
X450691Y52763D01*
X456348Y58419D01*
X457991Y56832D01*
D02*
G37*
D10*
X214900Y42750D02*
X239650Y18000D01*
X317150D02*
X341900Y42750D01*
X239650Y18000D02*
X317150D01*
X119070Y121000D02*
X162050D01*
X71390Y73320D02*
X119070Y121000D01*
X162050D02*
X176800Y106250D01*
Y55450D02*
Y84660D01*
X189500Y42750D02*
X214900D01*
X176800Y55450D02*
X189500Y42750D01*
X71390Y123320D02*
Y194531D01*
X172290D01*
X272001Y94820D01*
X176800Y84660D02*
Y106250D01*
D11*
X336000Y79036D02*
X406400Y8636D01*
X336000Y79036D02*
Y111000D01*
X406400Y8636D02*
X483108D01*
X202200Y84836D02*
X216662D01*
X552720Y42750D02*
X592080Y82110D01*
Y200920D01*
X579230Y213771D02*
X592080Y200920D01*
X555260Y213771D02*
X579230D01*
X398000Y270500D02*
X500400Y168100D01*
X398000Y270500D02*
Y287100D01*
X500400Y154809D02*
Y168100D01*
Y154809D02*
X522719Y132491D01*
X555260D01*
X423400Y287100D02*
X522130Y188370D01*
X555260D01*
X433060Y76051D02*
X466360Y42750D01*
X433060Y76051D02*
Y126160D01*
X475000Y168100D01*
Y150602D02*
Y168100D01*
Y150602D02*
X545846Y79756D01*
X558800D01*
X579120Y100076D01*
Y150271D01*
X571500Y157891D02*
X579120Y150271D01*
X555260Y157891D02*
X571500D01*
X44568Y217708D02*
X71390Y244530D01*
X44568Y57364D02*
Y217708D01*
Y57364D02*
X63500Y38432D01*
X126000D01*
X151400Y63832D01*
Y84660D01*
X428260Y42750D02*
Y64820D01*
X422520Y70560D02*
X428260Y64820D01*
X422520Y70560D02*
Y160156D01*
X423400Y161036D01*
Y210900D01*
X202200Y84660D02*
Y84836D01*
X216662D02*
X232410Y69088D01*
X281178D01*
X292100Y80010D01*
Y130048D01*
X304800Y142748D01*
X355092D01*
Y193392D01*
X372600Y210900D01*
X272001Y181180D02*
X291180Y162000D01*
X336000D01*
X387000D02*
X408940Y140060D01*
Y32258D02*
Y140060D01*
Y32258D02*
X416560Y24638D01*
X476250D01*
X483108Y31496D01*
Y58393D01*
X449600Y91900D02*
X483108Y58393D01*
Y8636D02*
X496316Y21844D01*
Y70585D01*
X475000Y91900D02*
X496316Y70585D01*
X301260Y42750D02*
X316738Y58228D01*
Y122936D01*
X323850Y130048D01*
X367952D01*
X387000Y111000D01*
D12*
X533794Y159460D02*
X535460Y157794D01*
Y154462D01*
X533794Y152795D01*
X527129D01*
X525463Y154462D01*
Y157794D01*
X527129Y159460D01*
X528796D01*
X530462Y157794D01*
Y152795D01*
X582460Y184795D02*
Y191460D01*
X575796Y184795D01*
X574129D01*
X572463Y186462D01*
Y189794D01*
X574129Y191460D01*
X95460Y282775D02*
Y267540D01*
X87843D01*
X85303Y270079D01*
Y272618D01*
X87843Y275158D01*
X95460D01*
X87843D01*
X85303Y277697D01*
Y280236D01*
X87843Y282775D01*
X95460D01*
X80225Y277697D02*
Y270079D01*
X77686Y267540D01*
X70068D01*
Y277697D01*
X64990Y267540D02*
X59911D01*
X62451D01*
Y282775D01*
X64990D01*
X52294D02*
Y267540D01*
X44676D01*
X42137Y270079D01*
Y272618D01*
Y275158D01*
X44676Y277697D01*
X52294D01*
X84303Y6540D02*
X94460D01*
X84303Y16697D01*
Y19236D01*
X86842Y21775D01*
X91921D01*
X94460Y19236D01*
X69068Y6540D02*
X79225D01*
X69068Y16697D01*
Y19236D01*
X71607Y21775D01*
X76686D01*
X79225Y19236D01*
X63990D02*
X61451Y21775D01*
X56372D01*
X53833Y19236D01*
Y9079D01*
X56372Y6540D01*
X61451D01*
X63990Y9079D01*
Y19236D01*
X48755Y21775D02*
Y11618D01*
X43676Y6540D01*
X38598Y11618D01*
Y21775D01*
X560796Y114871D02*
X562462Y116537D01*
X565794D01*
X567460Y114871D01*
Y108206D01*
X565794Y106540D01*
X562462D01*
X560796Y108206D01*
Y111538D01*
X564128D01*
X557463Y106540D02*
Y116537D01*
X550799Y106540D01*
Y116537D01*
X547466D02*
Y106540D01*
X542468D01*
X540802Y108206D01*
Y114871D01*
X542468Y116537D01*
X547466D01*
X567460Y236538D02*
X560796D01*
X564128Y239871D02*
Y233206D01*
X550799Y241537D02*
X557463D01*
Y236538D01*
X554131Y238204D01*
X552465D01*
X550799Y236538D01*
Y233206D01*
X552465Y231540D01*
X555797D01*
X557463Y233206D01*
X547466Y238204D02*
X544134Y231540D01*
X540802Y238204D01*
D13*
X336000Y162000D02*
D03*
D14*
X387000D02*
D03*
X336000Y111000D02*
D03*
X387000D02*
D03*
D15*
X214900Y42750D02*
D03*
X301260D02*
D03*
X466360D02*
D03*
X552720D02*
D03*
X428260D02*
D03*
X341900D02*
D03*
D16*
X272001Y94820D02*
D03*
Y181180D02*
D03*
X555260Y213771D02*
D03*
Y188370D02*
D03*
Y157891D02*
D03*
Y132491D02*
D03*
D17*
X372600Y210900D02*
D03*
X398000D02*
D03*
X423400D02*
D03*
X372600Y287100D02*
D03*
X398000D02*
D03*
X475000Y91900D02*
D03*
X500400D02*
D03*
Y168100D02*
D03*
X475000D02*
D03*
X449600D02*
D03*
D18*
X423400Y287100D02*
D03*
X449600Y91900D02*
D03*
D19*
X151400Y84660D02*
D03*
X176800D02*
D03*
X202200D02*
D03*
D20*
X176800Y259920D02*
D03*
D21*
X71390Y123320D02*
D03*
Y73320D02*
D03*
Y244530D02*
D03*
Y194531D02*
D03*
M02*
