G04*
G04 #@! TF.GenerationSoftware,Altium Limited,Altium Designer,20.1.11 (218)*
G04*
G04 Layer_Color=16711935*
%FSLAX44Y44*%
%MOMM*%
G71*
G04*
G04 #@! TF.SameCoordinates,8D7DA4D9-43DC-4990-A059-E20095D3F8E4*
G04*
G04*
G04 #@! TF.FilePolarity,Negative*
G04*
G01*
G75*
%ADD18C,2.5000*%
%ADD20R,3.0000X3.0000*%
%ADD21C,3.0000*%
G04:AMPARAMS|DCode=22|XSize=2mm|YSize=2mm|CornerRadius=0.5mm|HoleSize=0mm|Usage=FLASHONLY|Rotation=0.000|XOffset=0mm|YOffset=0mm|HoleType=Round|Shape=RoundedRectangle|*
%AMROUNDEDRECTD22*
21,1,2.0000,1.0000,0,0,0.0*
21,1,1.0000,2.0000,0,0,0.0*
1,1,1.0000,0.5000,-0.5000*
1,1,1.0000,-0.5000,-0.5000*
1,1,1.0000,-0.5000,0.5000*
1,1,1.0000,0.5000,0.5000*
%
%ADD22ROUNDEDRECTD22*%
%ADD23C,2.0000*%
%ADD24R,2.0000X2.0000*%
G04:AMPARAMS|DCode=25|XSize=2mm|YSize=2mm|CornerRadius=0.5mm|HoleSize=0mm|Usage=FLASHONLY|Rotation=270.000|XOffset=0mm|YOffset=0mm|HoleType=Round|Shape=RoundedRectangle|*
%AMROUNDEDRECTD25*
21,1,2.0000,1.0000,0,0,270.0*
21,1,1.0000,2.0000,0,0,270.0*
1,1,1.0000,-0.5000,-0.5000*
1,1,1.0000,-0.5000,0.5000*
1,1,1.0000,0.5000,0.5000*
1,1,1.0000,0.5000,-0.5000*
%
%ADD25ROUNDEDRECTD25*%
%ADD26C,2.7032*%
%ADD27R,2.7032X2.7032*%
%ADD28C,2.2032*%
%ADD29R,2.2032X2.2032*%
D18*
X414429Y106730D02*
D03*
X392839Y125780D02*
D03*
Y87680D02*
D03*
D20*
X60000Y60700D02*
D03*
D21*
Y111500D02*
D03*
Y162300D02*
D03*
D22*
X419400Y188000D02*
D03*
X394000D02*
D03*
X411699Y46000D02*
D03*
X386299D02*
D03*
X249181Y207000D02*
D03*
X162821D02*
D03*
X246180Y22000D02*
D03*
X159820D02*
D03*
D23*
X325000Y166380D02*
D03*
D24*
Y57620D02*
D03*
D25*
X359999Y153180D02*
D03*
Y66820D02*
D03*
D26*
X143000Y54000D02*
D03*
Y174000D02*
D03*
X265000D02*
D03*
X285000Y114000D02*
D03*
D27*
X265000Y54000D02*
D03*
D28*
X457000Y81600D02*
D03*
Y107000D02*
D03*
D29*
Y132400D02*
D03*
M02*
