G04*
G04 #@! TF.GenerationSoftware,Altium Limited,Altium Designer,20.1.11 (218)*
G04*
G04 Layer_Physical_Order=2*
G04 Layer_Color=16711680*
%FSLAX44Y44*%
%MOMM*%
G71*
G04*
G04 #@! TF.SameCoordinates,8D7DA4D9-43DC-4990-A059-E20095D3F8E4*
G04*
G04*
G04 #@! TF.FilePolarity,Positive*
G04*
G01*
G75*
%ADD16C,0.8000*%
%ADD17C,3.0000*%
%ADD18C,2.5000*%
%ADD19R,2.5000X2.5000*%
%ADD20R,3.0000X3.0000*%
%ADD21C,3.0000*%
G04:AMPARAMS|DCode=22|XSize=2mm|YSize=2mm|CornerRadius=0.5mm|HoleSize=0mm|Usage=FLASHONLY|Rotation=0.000|XOffset=0mm|YOffset=0mm|HoleType=Round|Shape=RoundedRectangle|*
%AMROUNDEDRECTD22*
21,1,2.0000,1.0000,0,0,0.0*
21,1,1.0000,2.0000,0,0,0.0*
1,1,1.0000,0.5000,-0.5000*
1,1,1.0000,-0.5000,-0.5000*
1,1,1.0000,-0.5000,0.5000*
1,1,1.0000,0.5000,0.5000*
%
%ADD22ROUNDEDRECTD22*%
%ADD23C,2.0000*%
%ADD24R,2.0000X2.0000*%
G04:AMPARAMS|DCode=25|XSize=2mm|YSize=2mm|CornerRadius=0.5mm|HoleSize=0mm|Usage=FLASHONLY|Rotation=270.000|XOffset=0mm|YOffset=0mm|HoleType=Round|Shape=RoundedRectangle|*
%AMROUNDEDRECTD25*
21,1,2.0000,1.0000,0,0,270.0*
21,1,1.0000,2.0000,0,0,270.0*
1,1,1.0000,-0.5000,-0.5000*
1,1,1.0000,-0.5000,0.5000*
1,1,1.0000,0.5000,0.5000*
1,1,1.0000,0.5000,-0.5000*
%
%ADD25ROUNDEDRECTD25*%
G36*
X258209Y214225D02*
X258481Y213548D01*
X258935Y212951D01*
X259570Y212433D01*
X260387Y211995D01*
X261385Y211637D01*
X262565Y211358D01*
X263926Y211159D01*
X265469Y211040D01*
X267193Y211000D01*
Y203000D01*
X265469Y202960D01*
X263926Y202841D01*
X262565Y202642D01*
X261385Y202363D01*
X260387Y202005D01*
X259570Y201567D01*
X258935Y201049D01*
X258481Y200452D01*
X258209Y199775D01*
X258118Y199018D01*
Y214981D01*
X258209Y214225D01*
D02*
G37*
G36*
X423437Y204077D02*
X423547Y202630D01*
X423730Y201353D01*
X423986Y200247D01*
X424316Y199310D01*
X424719Y198544D01*
X425195Y197948D01*
X425744Y197523D01*
X426367Y197268D01*
X427063Y197183D01*
X411738D01*
X412434Y197268D01*
X413056Y197523D01*
X413605Y197948D01*
X414082Y198544D01*
X414485Y199310D01*
X414814Y200247D01*
X415071Y201353D01*
X415254Y202630D01*
X415364Y204077D01*
X415400Y205694D01*
X423400D01*
X423437Y204077D01*
D02*
G37*
G36*
X172353Y207682D02*
X172130Y206948D01*
X172133Y206101D01*
X172362Y205141D01*
X172818Y204066D01*
X173500Y202878D01*
X174408Y201576D01*
X175542Y200160D01*
X178490Y196987D01*
X172833Y191331D01*
X171190Y192917D01*
X170253Y193711D01*
X170086Y192211D01*
X170022Y190911D01*
X170000Y189524D01*
X162000Y188987D01*
X161960Y190639D01*
X161840Y192102D01*
X161640Y193377D01*
X161360Y194463D01*
X161000Y195360D01*
X160560Y196069D01*
X160040Y196589D01*
X159440Y196921D01*
X158760Y197064D01*
X158000Y197018D01*
X162265Y197764D01*
X172803Y208301D01*
X172353Y207682D01*
D02*
G37*
G36*
X274869Y181848D02*
X275834Y181040D01*
X276820Y180328D01*
X277828Y179710D01*
X278859Y179188D01*
X279912Y178760D01*
X280986Y178428D01*
X282083Y178190D01*
X283202Y178048D01*
X284343Y178000D01*
Y170000D01*
X283202Y169953D01*
X282083Y169810D01*
X280986Y169573D01*
X279912Y169240D01*
X278859Y168813D01*
X277828Y168290D01*
X276820Y167673D01*
X275834Y166960D01*
X274869Y166153D01*
X273927Y165250D01*
Y182750D01*
X274869Y181848D01*
D02*
G37*
G36*
X335027Y165446D02*
X335128Y164624D01*
X335301Y163814D01*
X335547Y163017D01*
X335866Y162231D01*
X336258Y161458D01*
X336722Y160696D01*
X337259Y159947D01*
X337869Y159210D01*
X338551Y158485D01*
X332895Y152828D01*
X332170Y153511D01*
X331433Y154121D01*
X330683Y154658D01*
X329922Y155122D01*
X329149Y155514D01*
X328363Y155833D01*
X327565Y156079D01*
X326756Y156252D01*
X325934Y156353D01*
X325100Y156381D01*
X334999Y166280D01*
X335027Y165446D01*
D02*
G37*
G36*
X368308Y161955D02*
X369161Y161448D01*
X370065Y161001D01*
X371020Y160613D01*
X372025Y160285D01*
X373082Y160017D01*
X374189Y159808D01*
X375347Y159659D01*
X376556Y159570D01*
X377815Y159540D01*
X378012Y151540D01*
X376355Y151500D01*
X374886Y151380D01*
X373605Y151180D01*
X372512Y150901D01*
X371607Y150541D01*
X370889Y150101D01*
X370359Y149582D01*
X370018Y148982D01*
X369863Y148303D01*
X369897Y147544D01*
X367505Y162521D01*
X368308Y161955D01*
D02*
G37*
G36*
X448674Y146440D02*
X451619Y143944D01*
X452921Y143036D01*
X454109Y142354D01*
X455183Y141899D01*
X456144Y141669D01*
X456991Y141666D01*
X457724Y141890D01*
X458344Y142339D01*
X447061Y131056D01*
X447510Y131675D01*
X447733Y132409D01*
X447730Y133256D01*
X447501Y134216D01*
X447046Y135291D01*
X446364Y136479D01*
X445456Y137781D01*
X444321Y139197D01*
X441373Y142370D01*
X447030Y148026D01*
X448674Y146440D01*
D02*
G37*
G36*
X470515Y113032D02*
X469800Y112312D01*
X466855Y108941D01*
X466833Y108819D01*
X461276Y116040D01*
X461426Y116012D01*
X461622Y116050D01*
X461864Y116152D01*
X462153Y116320D01*
X462488Y116552D01*
X462869Y116849D01*
X463771Y117639D01*
X464858Y118688D01*
X470515Y113032D01*
D02*
G37*
G36*
X418477Y124932D02*
X418619Y123813D01*
X418857Y122716D01*
X419189Y121641D01*
X419617Y120589D01*
X420139Y119558D01*
X420757Y118549D01*
X421469Y117563D01*
X422277Y116599D01*
X423179Y115657D01*
X405680D01*
X406582Y116599D01*
X407389Y117563D01*
X408102Y118549D01*
X408719Y119558D01*
X409242Y120589D01*
X409669Y121641D01*
X410002Y122716D01*
X410239Y123813D01*
X410382Y124932D01*
X410429Y126073D01*
X418429D01*
X418477Y124932D01*
D02*
G37*
G36*
X392714Y113280D02*
X391410Y113252D01*
X390157Y113141D01*
X388956Y112948D01*
X387806Y112671D01*
X386708Y112312D01*
X385661Y111870D01*
X384666Y111345D01*
X383723Y110738D01*
X382831Y110047D01*
X381991Y109274D01*
X376334Y114931D01*
X377107Y115771D01*
X377797Y116663D01*
X378405Y117607D01*
X378930Y118602D01*
X379372Y119648D01*
X379731Y120746D01*
X380007Y121896D01*
X380201Y123097D01*
X380312Y124350D01*
X380340Y125655D01*
X392714Y113280D01*
D02*
G37*
G36*
X329000Y114000D02*
X321000Y96343D01*
X320943Y97806D01*
X320773Y98997D01*
X320490Y99914D01*
X320094Y100558D01*
X319585Y100929D01*
X318963Y101026D01*
X318228Y100851D01*
X317379Y100402D01*
X316418Y99681D01*
X315343Y98686D01*
Y110000D01*
X316418Y111155D01*
X317379Y112356D01*
X318228Y113605D01*
X318963Y114900D01*
X319585Y116242D01*
X320094Y117632D01*
X320490Y119067D01*
X320773Y120550D01*
X320943Y122080D01*
X321000Y123657D01*
X329000Y114000D01*
D02*
G37*
G36*
X456900Y97001D02*
X456066Y96973D01*
X455244Y96872D01*
X454434Y96699D01*
X453636Y96452D01*
X452851Y96133D01*
X452077Y95742D01*
X451316Y95278D01*
X450567Y94740D01*
X449830Y94131D01*
X449105Y93448D01*
X443448Y99105D01*
X444131Y99830D01*
X444740Y100567D01*
X445277Y101316D01*
X445742Y102078D01*
X446133Y102851D01*
X446452Y103637D01*
X446698Y104434D01*
X446872Y105244D01*
X446972Y106066D01*
X447000Y106900D01*
X456900Y97001D01*
D02*
G37*
G36*
X402709Y95527D02*
X403673Y94720D01*
X404659Y94007D01*
X405668Y93390D01*
X406698Y92867D01*
X407751Y92440D01*
X408825Y92107D01*
X409922Y91870D01*
X411041Y91727D01*
X412182Y91680D01*
Y83680D01*
X411041Y83632D01*
X409922Y83490D01*
X408825Y83252D01*
X407751Y82920D01*
X406698Y82492D01*
X405668Y81970D01*
X404659Y81352D01*
X403673Y80640D01*
X402709Y79832D01*
X401766Y78930D01*
Y96430D01*
X402709Y95527D01*
D02*
G37*
G36*
X364039Y83109D02*
X364159Y81566D01*
X364358Y80205D01*
X364636Y79025D01*
X364995Y78027D01*
X365433Y77210D01*
X365950Y76575D01*
X366547Y76121D01*
X367224Y75849D01*
X367981Y75758D01*
X352018D01*
X352774Y75849D01*
X353451Y76121D01*
X354048Y76575D01*
X354566Y77210D01*
X355004Y78027D01*
X355362Y79025D01*
X355641Y80205D01*
X355840Y81566D01*
X355960Y83109D01*
X355999Y84833D01*
X363999D01*
X364039Y83109D01*
D02*
G37*
G36*
X329040Y74064D02*
X329160Y72699D01*
X329360Y71494D01*
X329640Y70450D01*
X330000Y69567D01*
X330440Y68844D01*
X330960Y68282D01*
X331560Y67881D01*
X332240Y67640D01*
X333000Y67559D01*
X317000D01*
X317760Y67640D01*
X318440Y67881D01*
X319040Y68282D01*
X319560Y68844D01*
X320000Y69567D01*
X320360Y70450D01*
X320640Y71494D01*
X320840Y72699D01*
X320960Y74064D01*
X321000Y75590D01*
X329000D01*
X329040Y74064D01*
D02*
G37*
G36*
X463430Y73849D02*
X462920Y73197D01*
X462470Y72501D01*
X462080Y71763D01*
X461750Y70982D01*
X461480Y70159D01*
X461270Y69292D01*
X461120Y68382D01*
X461030Y67430D01*
X461000Y66435D01*
X453000D01*
X452970Y67430D01*
X452880Y68382D01*
X452730Y69292D01*
X452520Y70159D01*
X452250Y70982D01*
X451920Y71763D01*
X451530Y72501D01*
X451080Y73197D01*
X450570Y73849D01*
X450000Y74459D01*
X464000D01*
X463430Y73849D01*
D02*
G37*
G36*
X283127Y66470D02*
X281540Y64827D01*
X279044Y61881D01*
X278136Y60580D01*
X277957Y60267D01*
X278162Y59960D01*
X278724Y59440D01*
X279447Y59000D01*
X280330Y58640D01*
X281374Y58360D01*
X282579Y58160D01*
X283944Y58040D01*
X285470Y58000D01*
Y50000D01*
X283944Y49960D01*
X282579Y49840D01*
X281374Y49640D01*
X280330Y49360D01*
X279447Y49000D01*
X278724Y48560D01*
X278162Y48040D01*
X277761Y47440D01*
X277520Y46760D01*
X277439Y46000D01*
Y59355D01*
X276999Y58317D01*
X276770Y57356D01*
X276767Y56509D01*
X276990Y55776D01*
X277439Y55156D01*
X266156Y66439D01*
X266775Y65990D01*
X267509Y65767D01*
X268356Y65770D01*
X269317Y65999D01*
X270391Y66455D01*
X271579Y67137D01*
X272881Y68045D01*
X274297Y69179D01*
X277470Y72127D01*
X283127Y66470D01*
D02*
G37*
G36*
X315030Y47651D02*
X314950Y48097D01*
X314710Y48497D01*
X314310Y48849D01*
X313750Y49154D01*
X313030Y49413D01*
X312150Y49624D01*
X311110Y49789D01*
X309910Y49906D01*
X307030Y50000D01*
Y58000D01*
X308554Y58040D01*
X309918Y58160D01*
X311122Y58360D01*
X312166Y58640D01*
X313049Y59000D01*
X313772Y59440D01*
X314334Y59960D01*
X314737Y60560D01*
X314979Y61240D01*
X315061Y62000D01*
X315030Y47651D01*
D02*
G37*
G36*
X388169Y62354D02*
X388288Y60883D01*
X388488Y59600D01*
X388768Y58504D01*
X389128Y57597D01*
X389567Y56876D01*
X390087Y56344D01*
X390686Y55999D01*
X391366Y55843D01*
X392125Y55873D01*
X377695Y53622D01*
X376742Y39097D01*
X376704Y39855D01*
X376487Y40533D01*
X376091Y41132D01*
X375514Y41650D01*
X374759Y42089D01*
X373824Y42448D01*
X372709Y42727D01*
X371414Y42926D01*
X369940Y43046D01*
X368287Y43086D01*
X368298Y51086D01*
X369617Y51120D01*
X370853Y51224D01*
X372006Y51397D01*
X373077Y51639D01*
X374064Y51951D01*
X374968Y52331D01*
X375789Y52781D01*
X376527Y53300D01*
X377183Y53888D01*
X377436Y54179D01*
X377561Y54354D01*
X378100Y55243D01*
X378575Y56174D01*
X378987Y57146D01*
X379336Y58160D01*
X379621Y59216D01*
X379843Y60314D01*
X380002Y61454D01*
X380097Y62635D01*
X380129Y63859D01*
X388129Y64013D01*
X388169Y62354D01*
D02*
G37*
G36*
X260787Y41531D02*
X260685Y41491D01*
X260469Y41330D01*
X260139Y41049D01*
X257682Y38722D01*
X254642Y35712D01*
X248986Y41368D01*
X252531Y45238D01*
X260787Y41531D01*
D02*
G37*
G36*
X261849Y23012D02*
X260926Y22067D01*
X258543Y19355D01*
X257877Y18493D01*
X256741Y16831D01*
X256270Y16031D01*
X255521Y14494D01*
X253336Y31453D01*
X253517Y30562D01*
X253801Y29887D01*
X254189Y29430D01*
X254681Y29188D01*
X255277Y29164D01*
X255976Y29355D01*
X256780Y29764D01*
X257687Y30389D01*
X258697Y31231D01*
X259812Y32289D01*
X261849Y23012D01*
D02*
G37*
G36*
X153523Y12158D02*
X153524Y12128D01*
X153373Y12101D01*
X153072Y12078D01*
X150353Y12014D01*
X146726Y12000D01*
X141808Y20000D01*
X143558Y20040D01*
X145097Y20160D01*
X146426Y20360D01*
X147545Y20640D01*
X148453Y21000D01*
X149151Y21440D01*
X149638Y21960D01*
X149915Y22560D01*
X149982Y23240D01*
X149838Y24000D01*
X153523Y12158D01*
D02*
G37*
D16*
X265000Y54000D02*
X325000Y114000D01*
Y127000D01*
Y57620D02*
Y114000D01*
X304794Y147206D02*
X325000Y127000D01*
X296380Y154940D02*
X304794Y146526D01*
X214880Y154940D02*
X296380D01*
X166000Y203820D02*
X214880Y154940D01*
X162821Y207000D02*
X166000Y203820D01*
X161314Y138176D02*
X166000Y142862D01*
X49530Y138176D02*
X161314D01*
X166000Y142862D02*
Y203820D01*
X467686Y115860D02*
X469709D01*
X473540Y119691D01*
Y147176D01*
X452313Y168402D02*
X473540Y147176D01*
X384129Y48171D02*
Y69464D01*
Y48171D02*
X386299Y46000D01*
X385214Y47086D02*
X386299Y46000D01*
X343158Y51772D02*
Y148222D01*
X347844Y47086D02*
X385214D01*
X343158Y51772D02*
X347844Y47086D01*
X249180Y16000D02*
X262641Y29460D01*
X396079D01*
X406317Y39698D01*
Y40618D01*
X411699Y46000D01*
X436000Y26000D02*
X436000D01*
X236400Y5460D02*
X415460D01*
X436000Y26000D01*
X436000D02*
X457000Y47000D01*
X229640Y31780D02*
X236400Y38540D01*
X256500Y45500D02*
X265000Y54000D01*
X229640Y12220D02*
Y31780D01*
Y12220D02*
X236400Y5460D01*
X256500Y43226D02*
Y45500D01*
X251814Y38540D02*
X256500Y43226D01*
X236400Y38540D02*
X251814D01*
X373799Y106740D02*
X392839Y125780D01*
X373799Y79793D02*
Y106740D01*
Y79793D02*
X384129Y69464D01*
X414429Y106730D02*
Y140314D01*
X409743Y145000D02*
X414429Y140314D01*
X385133Y145000D02*
X409743D01*
X359999Y119867D02*
X385133Y145000D01*
X362359Y155540D02*
X433860D01*
X359999Y153180D02*
X362359Y155540D01*
X433860D02*
X457000Y132400D01*
Y107000D02*
X458826D01*
X403398Y168402D02*
X452313D01*
X458826Y107000D02*
X467686Y115860D01*
X457000Y47000D02*
Y81600D01*
X282500Y111500D02*
X285000Y114000D01*
X265000Y54000D02*
X265001Y54000D01*
X321379D02*
X325000Y57620D01*
X265001Y54000D02*
X321379D01*
X265000Y174000D02*
X317380D01*
X325000Y166380D01*
X392839Y87680D02*
X437680D01*
X457000Y107000D01*
X325000Y166380D02*
X343158Y148222D01*
X60454Y16000D02*
X162820D01*
X38354Y38100D02*
X60454Y16000D01*
X38354Y38100D02*
Y127000D01*
X49530Y138176D01*
X249181Y207000D02*
X418094D01*
X419400Y205694D01*
Y188000D02*
Y205694D01*
X359999Y66820D02*
Y119867D01*
X394000Y177800D02*
X403398Y168402D01*
X394000Y177800D02*
Y188000D01*
D17*
X60000Y60700D02*
X60300Y61000D01*
X136000D02*
X143000Y54000D01*
X60300Y61000D02*
X136000D01*
X143000Y54000D02*
X143000D01*
X60000Y111500D02*
X282500D01*
X60000Y162300D02*
X131300D01*
X143000Y174000D01*
D18*
Y54000D02*
D03*
Y174000D02*
D03*
X265000D02*
D03*
X285000Y114000D02*
D03*
X414429Y106730D02*
D03*
X392839Y125780D02*
D03*
Y87680D02*
D03*
D19*
X265000Y54000D02*
D03*
D20*
X60000Y60700D02*
D03*
D21*
Y111500D02*
D03*
Y162300D02*
D03*
D22*
X419400Y188000D02*
D03*
X394000D02*
D03*
X411699Y46000D02*
D03*
X386299D02*
D03*
X249181Y207000D02*
D03*
X162821D02*
D03*
X246180Y22000D02*
D03*
X159820D02*
D03*
D23*
X457000Y81600D02*
D03*
Y107000D02*
D03*
X325000Y166380D02*
D03*
D24*
X457000Y132400D02*
D03*
X325000Y57620D02*
D03*
D25*
X359999Y153180D02*
D03*
Y66820D02*
D03*
M02*
