G04*
G04 #@! TF.GenerationSoftware,Altium Limited,Altium Designer,20.1.11 (218)*
G04*
G04 Layer_Color=65535*
%FSLAX44Y44*%
%MOMM*%
G71*
G04*
G04 #@! TF.SameCoordinates,8D7DA4D9-43DC-4990-A059-E20095D3F8E4*
G04*
G04*
G04 #@! TF.FilePolarity,Positive*
G04*
G01*
G75*
%ADD10C,0.3000*%
%ADD11C,0.3500*%
%ADD12C,0.1500*%
%ADD13C,0.2000*%
%ADD14C,0.1270*%
%ADD15C,0.2540*%
D10*
X182000Y52810D02*
G03*
X182000Y52810I1000J0D01*
G01*
D11*
X427250Y26550D02*
G03*
X427250Y26550I1750J0D01*
G01*
D12*
X51800Y188000D02*
G03*
X51800Y188000I30500J0D01*
G01*
X59500Y46000D02*
G03*
X59500Y46000I30500J0D01*
G01*
D13*
X78792Y127041D02*
G03*
X78792Y88959I12723J-19041D01*
G01*
X474000Y35300D02*
Y192700D01*
X384000D01*
Y35300D02*
Y192700D01*
X474000Y35300D02*
X384000D01*
X108550Y174000D02*
Y202000D01*
X44450Y68900D02*
X19550D01*
X44450Y145100D02*
X19550D01*
X44450Y68900D02*
Y145100D01*
X19550Y68900D02*
Y145100D01*
X116250Y32001D02*
Y60000D01*
X105301Y90825D02*
Y125175D01*
X117501Y80000D02*
Y140000D01*
X140501Y80000D02*
X117501D01*
X140501D02*
Y140000D01*
X117501D01*
X129001D02*
Y147300D01*
Y72700D02*
Y80000D01*
X177601Y86000D02*
Y138000D01*
X150400D01*
Y86000D02*
Y138000D01*
X177601Y86000D02*
X150400D01*
X164000Y69620D02*
Y86000D01*
Y138000D02*
Y154380D01*
X176901Y99000D02*
X151100D01*
X312999Y195500D02*
X252999D01*
X312999D02*
Y218500D01*
X252999D01*
Y195500D02*
Y218500D01*
Y207000D02*
X245700D01*
X320299D02*
X312999D01*
X316000Y10500D02*
X256000D01*
X316000D02*
Y33500D01*
X256000D01*
Y10500D02*
Y33500D01*
Y22000D02*
X248700D01*
X323300D02*
X316000D01*
D14*
X380500Y191500D02*
X189500D01*
X380500Y36500D02*
Y191500D01*
Y36500D02*
X189500D01*
Y191500D01*
D15*
X11537Y135540D02*
Y138872D01*
Y137206D01*
X1540D01*
Y135540D01*
Y138872D01*
Y143871D02*
X11537D01*
X1540Y150535D01*
X11537D01*
X9871Y103204D02*
X11537Y101538D01*
Y98206D01*
X9871Y96540D01*
X3206D01*
X1540Y98206D01*
Y101538D01*
X3206Y103204D01*
X6538D01*
Y99872D01*
X1540Y106537D02*
X11537D01*
X1540Y113201D01*
X11537D01*
Y116533D02*
X1540D01*
Y121532D01*
X3206Y123198D01*
X9871D01*
X11537Y121532D01*
Y116533D01*
X11537Y58540D02*
X4872D01*
X1540Y61872D01*
X4872Y65205D01*
X11537D01*
X9871Y75201D02*
X11537Y73535D01*
Y70203D01*
X9871Y68537D01*
X3206D01*
X1540Y70203D01*
Y73535D01*
X3206Y75201D01*
X9871Y85198D02*
X11537Y83532D01*
Y80200D01*
X9871Y78534D01*
X3206D01*
X1540Y80200D01*
Y83532D01*
X3206Y85198D01*
X486460Y173460D02*
X476463D01*
X486460Y166796D01*
X476463D01*
Y158465D02*
Y161797D01*
X478129Y163463D01*
X484794D01*
X486460Y161797D01*
Y158465D01*
X484794Y156799D01*
X478129D01*
X476463Y158465D01*
X487460Y64460D02*
X477463D01*
X487460Y57796D01*
X477463D01*
X479129Y47799D02*
X477463Y49465D01*
Y52797D01*
X479129Y54463D01*
X485794D01*
X487460Y52797D01*
Y49465D01*
X485794Y47799D01*
X478129Y120795D02*
X476463Y122462D01*
Y125794D01*
X478129Y127460D01*
X484794D01*
X486460Y125794D01*
Y122462D01*
X484794Y120795D01*
X476463Y112465D02*
Y115797D01*
X478129Y117463D01*
X484794D01*
X486460Y115797D01*
Y112465D01*
X484794Y110799D01*
X478129D01*
X476463Y112465D01*
X486460Y107466D02*
X476463D01*
X479795Y104134D01*
X476463Y100802D01*
X486460D01*
X90000Y136922D02*
Y147078D01*
X92539Y149618D01*
X97618D01*
X100157Y147078D01*
Y136922D01*
X97618Y134382D01*
X92539D01*
X95078Y139461D02*
X90000Y134382D01*
X92539D02*
X90000Y136922D01*
X84922Y134382D02*
X79843D01*
X82382D01*
Y149618D01*
X84922Y147078D01*
X121383Y96304D02*
X136618D01*
X129000Y88687D01*
Y98843D01*
X136618Y103922D02*
X121383D01*
X126461D01*
X136618Y114078D01*
X129000Y106461D01*
X121383Y114078D01*
X136618Y119157D02*
Y129313D01*
X134078D01*
X123922Y119157D01*
X121383D01*
X171618Y107843D02*
X156383D01*
Y115461D01*
X158922Y118000D01*
X169078D01*
X171618Y115461D01*
Y107843D01*
X156383Y123078D02*
Y128157D01*
Y125618D01*
X171618D01*
X169078Y123078D01*
X294426Y199382D02*
X289348D01*
X291887D01*
Y214618D01*
X294426Y212078D01*
X281730Y214618D02*
Y199382D01*
Y204461D01*
X271574Y214618D01*
X279191Y207000D01*
X271574Y199382D01*
X299426Y14382D02*
X294348D01*
X296887D01*
Y29618D01*
X299426Y27078D01*
X286730Y29618D02*
Y14382D01*
Y19461D01*
X276574Y29618D01*
X284191Y22000D01*
X276574Y14382D01*
M02*
