G04*
G04 #@! TF.GenerationSoftware,Altium Limited,Altium Designer,20.1.11 (218)*
G04*
G04 Layer_Physical_Order=2*
G04 Layer_Color=16711680*
%FSLAX44Y44*%
%MOMM*%
G71*
G04*
G04 #@! TF.SameCoordinates,4F1DBEA7-6341-416A-96B1-6C748992E368*
G04*
G04*
G04 #@! TF.FilePolarity,Positive*
G04*
G01*
G75*
%ADD10C,0.8000*%
%ADD11C,0.2540*%
G04:AMPARAMS|DCode=12|XSize=4.5mm|YSize=2mm|CornerRadius=1mm|HoleSize=0mm|Usage=FLASHONLY|Rotation=0.000|XOffset=0mm|YOffset=0mm|HoleType=Round|Shape=RoundedRectangle|*
%AMROUNDEDRECTD12*
21,1,4.5000,0.0000,0,0,0.0*
21,1,2.5000,2.0000,0,0,0.0*
1,1,2.0000,1.2500,0.0000*
1,1,2.0000,-1.2500,0.0000*
1,1,2.0000,-1.2500,0.0000*
1,1,2.0000,1.2500,0.0000*
%
%ADD12ROUNDEDRECTD12*%
%ADD13R,2.0000X4.5000*%
G04:AMPARAMS|DCode=14|XSize=2mm|YSize=4.5mm|CornerRadius=1mm|HoleSize=0mm|Usage=FLASHONLY|Rotation=0.000|XOffset=0mm|YOffset=0mm|HoleType=Round|Shape=RoundedRectangle|*
%AMROUNDEDRECTD14*
21,1,2.0000,2.5000,0,0,0.0*
21,1,0.0000,4.5000,0,0,0.0*
1,1,2.0000,0.0000,-1.2500*
1,1,2.0000,0.0000,-1.2500*
1,1,2.0000,0.0000,1.2500*
1,1,2.0000,0.0000,1.2500*
%
%ADD14ROUNDEDRECTD14*%
G04:AMPARAMS|DCode=15|XSize=2mm|YSize=2mm|CornerRadius=0.5mm|HoleSize=0mm|Usage=FLASHONLY|Rotation=90.000|XOffset=0mm|YOffset=0mm|HoleType=Round|Shape=RoundedRectangle|*
%AMROUNDEDRECTD15*
21,1,2.0000,1.0000,0,0,90.0*
21,1,1.0000,2.0000,0,0,90.0*
1,1,1.0000,0.5000,0.5000*
1,1,1.0000,0.5000,-0.5000*
1,1,1.0000,-0.5000,-0.5000*
1,1,1.0000,-0.5000,0.5000*
%
%ADD15ROUNDEDRECTD15*%
%ADD16R,2.0000X2.0000*%
%ADD17C,2.0000*%
G04:AMPARAMS|DCode=18|XSize=2mm|YSize=2mm|CornerRadius=0.5mm|HoleSize=0mm|Usage=FLASHONLY|Rotation=0.000|XOffset=0mm|YOffset=0mm|HoleType=Round|Shape=RoundedRectangle|*
%AMROUNDEDRECTD18*
21,1,2.0000,1.0000,0,0,0.0*
21,1,1.0000,2.0000,0,0,0.0*
1,1,1.0000,0.5000,-0.5000*
1,1,1.0000,-0.5000,-0.5000*
1,1,1.0000,-0.5000,0.5000*
1,1,1.0000,0.5000,0.5000*
%
%ADD18ROUNDEDRECTD18*%
%ADD19C,2.5000*%
%ADD20R,2.0000X2.0000*%
D10*
X29000Y86000D02*
X29000Y86000D01*
X29000Y27927D02*
Y86000D01*
X36927Y20000D02*
X102086D01*
X29000Y27927D02*
X36927Y20000D01*
X114086Y32000D02*
X203640D01*
X102086Y20000D02*
X114086Y32000D01*
X106752Y86000D02*
X118704Y97952D01*
Y113704D01*
X89000Y86000D02*
X106752D01*
X151863Y81000D02*
X199254D01*
X203940Y85686D01*
Y115000D01*
X147177Y85686D02*
Y114824D01*
Y85686D02*
X151863Y81000D01*
X118704Y113704D02*
X121000Y116000D01*
X220908Y14732D02*
X279600D01*
X203640Y32000D02*
X220908Y14732D01*
X273250Y21082D02*
X279600Y14732D01*
X370700Y38000D02*
X398001Y65300D01*
X502000Y65300D01*
X290000Y32000D02*
X314398D01*
X318398Y36000D01*
X343300D01*
X345300Y38000D01*
X146000Y116000D02*
X147177Y114824D01*
X203940Y115000D02*
X266460D01*
X395170Y14732D02*
X402058Y21621D01*
X363442Y90700D02*
X502000D01*
X329892Y57150D02*
X363442Y90700D01*
X279600Y57150D02*
X329892D01*
X273250Y50800D02*
X279600Y57150D01*
X273250Y21082D02*
Y50800D01*
X279600Y14732D02*
X395170D01*
X402058Y21621D02*
X466000D01*
X371540Y115000D02*
X434060D01*
X449440Y130380D01*
X466000D01*
D11*
X307460Y144540D02*
Y154537D01*
X304128Y151205D01*
X300795Y154537D01*
Y144540D01*
X297463D02*
X294131D01*
X295797D01*
Y151205D01*
X297463D01*
X282468D02*
X287466D01*
X289133Y149538D01*
Y146206D01*
X287466Y144540D01*
X282468D01*
X279136Y151205D02*
Y144540D01*
Y147872D01*
X277470Y149538D01*
X275804Y151205D01*
X274137D01*
X267473Y144540D02*
X264141D01*
X262474Y146206D01*
Y149538D01*
X264141Y151205D01*
X267473D01*
X269139Y149538D01*
Y146206D01*
X267473Y144540D01*
X244147Y154537D02*
X247479D01*
X249146Y152871D01*
Y146206D01*
X247479Y144540D01*
X244147D01*
X242481Y146206D01*
Y152871D01*
X244147Y154537D01*
X239149D02*
Y144540D01*
Y149538D01*
X237482Y151205D01*
X234150D01*
X232484Y149538D01*
Y144540D01*
X229152D02*
Y151205D01*
X227486D01*
X225820Y149538D01*
Y144540D01*
Y149538D01*
X224153Y151205D01*
X222487Y149538D01*
Y144540D01*
X202494Y154537D02*
X209158D01*
Y144540D01*
X202494D01*
X209158Y149538D02*
X205826D01*
X199162Y144540D02*
X195829D01*
X197495D01*
Y154537D01*
X199162D01*
X185833Y144540D02*
X189165D01*
X190831Y146206D01*
Y149538D01*
X189165Y151205D01*
X185833D01*
X184166Y149538D01*
Y147872D01*
X190831D01*
X174170Y151205D02*
X179168D01*
X180834Y149538D01*
Y146206D01*
X179168Y144540D01*
X174170D01*
X169171Y152871D02*
Y151205D01*
X170837D01*
X167505D01*
X169171D01*
Y146206D01*
X167505Y144540D01*
X162507Y151205D02*
Y144540D01*
Y147872D01*
X160841Y149538D01*
X159174Y151205D01*
X157508D01*
X150844Y144540D02*
X147512D01*
X145845Y146206D01*
Y149538D01*
X147512Y151205D01*
X150844D01*
X152510Y149538D01*
Y146206D01*
X150844Y144540D01*
X142513D02*
Y151205D01*
X137515D01*
X135849Y149538D01*
Y144540D01*
X132516D02*
X129184D01*
X130850D01*
Y151205D01*
X132516D01*
X117521D02*
X122520D01*
X124186Y149538D01*
Y146206D01*
X122520Y144540D01*
X117521D01*
X114189D02*
X109191D01*
X107524Y146206D01*
X109191Y147872D01*
X112523D01*
X114189Y149538D01*
X112523Y151205D01*
X107524D01*
D12*
X59000Y41000D02*
D03*
D13*
X89000Y86000D02*
D03*
D14*
X29000D02*
D03*
D15*
X502000Y65300D02*
D03*
Y90700D02*
D03*
D16*
X171000Y116000D02*
D03*
D17*
X146000D02*
D03*
X121000D02*
D03*
X171000Y56000D02*
D03*
X146000D02*
D03*
X121000D02*
D03*
X466000Y130380D02*
D03*
D18*
X290000Y32000D02*
D03*
X203640D02*
D03*
X370700Y38000D02*
D03*
X345300D02*
D03*
D19*
X266460Y115000D02*
D03*
X203940D02*
D03*
X434060D02*
D03*
X371540D02*
D03*
X14000Y14000D02*
D03*
X503000Y142000D02*
D03*
D20*
X466000Y21621D02*
D03*
M02*
