G04*
G04 #@! TF.GenerationSoftware,Altium Limited,Altium Designer,20.1.11 (218)*
G04*
G04 Layer_Physical_Order=2*
G04 Layer_Color=16711680*
%FSLAX44Y44*%
%MOMM*%
G71*
G04*
G04 #@! TF.SameCoordinates,70D08CB9-F93F-4FC0-99EC-3DFA74B136D4*
G04*
G04*
G04 #@! TF.FilePolarity,Positive*
G04*
G01*
G75*
%ADD10C,0.8000*%
%ADD11C,3.0000*%
%ADD12C,2.5000*%
%ADD13R,2.5000X2.5000*%
%ADD14C,3.0000*%
%ADD15R,3.0000X3.0000*%
%ADD16C,3.1999*%
%ADD17C,2.0000*%
G04:AMPARAMS|DCode=18|XSize=2mm|YSize=2mm|CornerRadius=0.5mm|HoleSize=0mm|Usage=FLASHONLY|Rotation=90.000|XOffset=0mm|YOffset=0mm|HoleType=Round|Shape=RoundedRectangle|*
%AMROUNDEDRECTD18*
21,1,2.0000,1.0000,0,0,90.0*
21,1,1.0000,2.0000,0,0,90.0*
1,1,1.0000,0.5000,0.5000*
1,1,1.0000,0.5000,-0.5000*
1,1,1.0000,-0.5000,-0.5000*
1,1,1.0000,-0.5000,0.5000*
%
%ADD18ROUNDEDRECTD18*%
G04:AMPARAMS|DCode=19|XSize=2mm|YSize=2mm|CornerRadius=0.5mm|HoleSize=0mm|Usage=FLASHONLY|Rotation=0.000|XOffset=0mm|YOffset=0mm|HoleType=Round|Shape=RoundedRectangle|*
%AMROUNDEDRECTD19*
21,1,2.0000,1.0000,0,0,0.0*
21,1,1.0000,2.0000,0,0,0.0*
1,1,1.0000,0.5000,-0.5000*
1,1,1.0000,-0.5000,-0.5000*
1,1,1.0000,-0.5000,0.5000*
1,1,1.0000,0.5000,0.5000*
%
%ADD19ROUNDEDRECTD19*%
%ADD20R,2.0000X2.0000*%
D10*
X1309000Y145180D02*
X1310180Y144000D01*
X1346000Y148686D02*
Y151380D01*
X1310180Y144000D02*
X1341313D01*
X1346000Y148686D01*
Y151380D02*
X1354310Y159690D01*
X1295400Y128524D02*
X1459738D01*
X1285748Y138176D02*
X1295400Y128524D01*
X1459738D02*
X1610614Y279400D01*
X1346000Y163380D02*
Y180000D01*
X1262997Y227983D02*
X1298017D01*
X1346000Y180000D01*
X1349690Y159690D02*
X1354310D01*
X1346000Y163380D02*
X1349690Y159690D01*
X1218980Y272000D02*
X1262997Y227983D01*
X1356620Y162000D02*
X1427000D01*
X1152144Y205132D02*
X1156830Y200446D01*
X1206160D01*
X1152144Y205132D02*
Y406481D01*
X1176686Y272000D02*
X1218980D01*
X1172000Y221856D02*
Y267314D01*
X1176686Y272000D01*
X1172000Y221856D02*
X1176686Y217170D01*
X1215136D01*
X1152144Y406481D02*
X1168400Y422737D01*
X1285748Y138176D02*
Y174252D01*
X1202660Y245112D02*
X1205567Y242205D01*
X1217795D01*
X1285748Y174252D01*
X1363000Y64000D02*
X1433076D01*
X1354011Y70000D02*
X1359011Y65000D01*
X1362000D02*
X1363000Y64000D01*
X1359011Y65000D02*
X1362000D01*
X1260602Y135021D02*
X1325623Y70000D01*
X1354011D01*
X1433076Y64000D02*
X1446276Y50800D01*
X1446040Y821791D02*
Y852209D01*
X1442209Y817960D02*
X1446040Y821791D01*
X1417498Y817960D02*
X1442209D01*
X1234000Y710000D02*
X1309000Y635000D01*
X1095260Y848740D02*
X1234000Y710000D01*
X730758Y660758D02*
X780000Y710000D01*
X875000Y805000D01*
X780000Y710000D02*
X1234000D01*
X698740Y848740D02*
X1095260D01*
X775200Y838200D02*
X791800D01*
X746760Y783336D02*
Y809760D01*
X775200Y838200D01*
X215000Y744474D02*
Y748400D01*
X630000Y786750D02*
X634686Y782064D01*
X559280Y859280D02*
X630000D01*
X1168398D01*
X634686Y782064D02*
X702063D01*
X630000Y786750D02*
Y859280D01*
X605000Y788952D02*
X622554Y771398D01*
X605000Y788952D02*
Y805000D01*
X583230Y826770D02*
X605000Y805000D01*
X505000D02*
X559280Y859280D01*
X27650Y844109D02*
X76541Y893000D01*
X481075D02*
X493203Y880872D01*
X76541Y893000D02*
X481075D01*
X57489Y904809D02*
X497075D01*
X510472Y891412D01*
X17110Y864430D02*
X57489Y904809D01*
X106746Y869000D02*
X360249D01*
X65000Y827254D02*
X106746Y869000D01*
X360249D02*
X413258Y815991D01*
X208861Y614536D02*
X215000Y620676D01*
X219686Y577596D02*
X711454D01*
X215000Y620676D02*
Y744474D01*
X208861Y588422D02*
Y614536D01*
Y588422D02*
X219686Y577596D01*
X72898Y744474D02*
X211074D01*
X215000Y748400D01*
Y806000D01*
X1374314Y322686D02*
X1392200Y304800D01*
X1418500Y378500D02*
X1427000Y387000D01*
X1418500Y373500D02*
Y378500D01*
X1374314Y329314D02*
X1418500Y373500D01*
X1374314Y322686D02*
Y329314D01*
X1392200Y304800D02*
X1443990D01*
X1372285Y584000D02*
X1441590D01*
X1446276Y588686D01*
Y736600D01*
X1230122Y629920D02*
X1287522Y572520D01*
X1360805D01*
X1372285Y584000D01*
X1556474Y555460D02*
X1663850D01*
X1468417Y467403D02*
X1556474Y555460D01*
X1663850D02*
X1684080Y575690D01*
X1446276Y736600D02*
X1483676Y774000D01*
X1654462D02*
X1673540Y793078D01*
X1483676Y774000D02*
X1654462D01*
X1617142Y867320D02*
X1673540Y810922D01*
Y793078D02*
Y810922D01*
X1176438Y867320D02*
X1206160D01*
X1617142D01*
X1417497Y817960D02*
X1417498Y817960D01*
X1442209Y856040D02*
X1446040Y852209D01*
X1232980Y856040D02*
X1442209D01*
X1392508Y817960D02*
X1417497D01*
X1694620Y313114D02*
Y823540D01*
X1623095Y895066D02*
X1694620Y823540D01*
X1684080Y575690D02*
Y815288D01*
X1615448Y883920D02*
X1684080Y815288D01*
X1660906Y279400D02*
X1694620Y313114D01*
X1194054Y883920D02*
X1615448D01*
X730758Y596900D02*
Y660758D01*
X711454Y577596D02*
X730758Y596900D01*
X1044200Y605200D02*
X1112100Y673100D01*
X1224960D01*
X1309000Y589060D01*
X1365620Y837000D02*
X1427000D01*
X1352000Y823380D02*
X1365620Y837000D01*
X1321380Y823380D02*
X1352000D01*
X1309000Y811000D02*
X1321380Y823380D01*
X1044200Y605200D02*
X1098804Y550596D01*
Y175260D02*
Y550596D01*
Y175260D02*
X1253236Y20828D01*
X1435354D01*
X1446276Y31750D01*
Y50800D01*
X1260602Y135021D02*
Y171704D01*
X1215136Y217170D02*
X1260602Y171704D01*
X1309000Y811000D02*
X1325626Y794374D01*
Y627754D02*
Y794374D01*
Y627754D02*
X1352000Y601380D01*
X1309000Y589060D02*
Y635000D01*
X655000Y805000D02*
X698740Y848740D01*
X1352000Y714620D02*
X1372362Y734982D01*
Y797814D01*
X1392508Y817960D01*
X1206160Y829220D02*
X1232980Y856040D01*
X1268700Y751494D02*
Y769000D01*
Y751494D02*
X1295554Y724640D01*
X1309000D01*
X1206160Y581807D02*
X1243300Y544667D01*
X1206160Y581807D02*
Y606928D01*
X186580Y554400D02*
X1018800D01*
X27650Y713331D02*
X186580Y554400D01*
X27650Y713331D02*
Y844109D01*
X493203Y880872D02*
X1191006D01*
X1194054Y883920D01*
X1202660Y467403D02*
X1468417D01*
X1167892Y461005D02*
X1206160Y422737D01*
X1167892Y461005D02*
Y638170D01*
X1174750Y645028D01*
X1206160D01*
X1221269Y629920D01*
X1230122D01*
X1168398Y859280D02*
X1176438Y867320D01*
X702063Y782064D02*
X725000Y805000D01*
X285000Y663360D02*
Y805000D01*
Y663360D02*
X343160Y605200D01*
X1184570Y571853D02*
Y625978D01*
Y571853D02*
X1202660Y553763D01*
X1184570Y127270D02*
Y181396D01*
Y127270D02*
X1202660Y109180D01*
X791800Y838200D02*
X825000Y805000D01*
X734822Y771398D02*
X746760Y783336D01*
X622554Y771398D02*
X734822D01*
X385000Y805000D02*
X422158Y767842D01*
X508000D01*
X533400Y793242D01*
Y814070D01*
X546100Y826770D01*
X583230D01*
X612400Y605200D02*
Y747600D01*
X555000Y805000D02*
X612400Y747600D01*
X637800Y605200D02*
Y644404D01*
X775000Y781604D01*
Y805000D01*
X663200Y605200D02*
Y643200D01*
X825000Y805000D01*
X115000Y806000D02*
X154965Y845965D01*
X327013D01*
X363220Y809758D01*
Y762000D02*
Y809758D01*
Y762000D02*
X376174Y749046D01*
X417754D01*
X561600Y605200D01*
X143460Y784460D02*
X165000Y806000D01*
X106077Y784460D02*
X143460D01*
X93218Y797319D02*
X106077Y784460D01*
X93218Y797319D02*
Y819404D01*
X130319Y856505D01*
X333495D01*
X385000Y805000D01*
X43434Y773938D02*
X72898Y744474D01*
X43434Y773938D02*
Y843280D01*
X82136Y881982D01*
X382885D01*
X435000Y829868D01*
Y805000D02*
Y829868D01*
X483336Y783336D02*
X505000Y805000D01*
X423672Y783336D02*
X483336D01*
X413258Y793750D02*
X423672Y783336D01*
X413258Y793750D02*
Y815991D01*
X65000Y806000D02*
Y827254D01*
X810856Y321056D02*
X1018800Y529000D01*
X377755Y321056D02*
X810856D01*
X17110Y681701D02*
X377755Y321056D01*
X17110Y681701D02*
Y864430D01*
X510472Y891412D02*
X1177407D01*
X1181061Y895066D01*
X1623095D01*
X1610614Y279400D02*
X1660906D01*
X1184570Y794144D02*
Y848270D01*
Y794144D02*
X1202660Y776054D01*
X255102Y834898D02*
X285000Y805000D01*
X210566Y834898D02*
X255102D01*
X187198Y811530D02*
X210566Y834898D01*
X187198Y787400D02*
Y811530D01*
X173482Y773684D02*
X187198Y787400D01*
X97316Y773684D02*
X173482D01*
X65000Y806000D02*
X97316Y773684D01*
X570318Y588518D02*
X587000Y605200D01*
X527050Y588518D02*
X570318D01*
X519430Y596138D02*
X527050Y588518D01*
X519430Y596138D02*
Y611632D01*
X482600Y648462D02*
X519430Y611632D01*
X410438Y648462D02*
X482600D01*
X335000Y723900D02*
X410438Y648462D01*
X335000Y723900D02*
Y805000D01*
X1427000Y162000D02*
X1456690Y191690D01*
Y292100D01*
X1443990Y304800D02*
X1456690Y292100D01*
X1362620Y612000D02*
X1427000D01*
X1352000Y601380D02*
X1362620Y612000D01*
X1206160Y606928D02*
X1237691D01*
X1352000Y492620D01*
X797898Y689694D02*
X1202660D01*
X746351Y638147D02*
X797898Y689694D01*
X746351Y595450D02*
Y638147D01*
Y595450D02*
X762000Y579800D01*
X1018800D01*
X1002030Y486830D02*
X1018800Y503600D01*
X1002030Y149352D02*
Y486830D01*
Y149352D02*
X1021588Y129794D01*
Y100076D02*
Y129794D01*
Y100076D02*
X1098844Y22820D01*
X1202660D01*
X1268700Y320333D02*
X1347431D01*
X1381723Y286041D01*
X1439400D01*
X1446040Y279400D01*
Y258844D02*
Y279400D01*
X1435100Y247904D02*
X1446040Y258844D01*
X1341856Y247904D02*
X1435100D01*
X1309000Y280760D02*
X1341856Y247904D01*
X1339740Y367120D02*
X1352000Y379380D01*
X1309000Y367120D02*
X1339740D01*
X1268700Y85266D02*
Y96000D01*
Y85266D02*
X1295146Y58820D01*
X1309000D01*
X1344782Y41402D02*
X1352000Y48620D01*
X1257300Y41402D02*
X1344782D01*
X1243300Y55402D02*
X1257300Y41402D01*
X1243300Y55402D02*
Y96000D01*
X1168400Y422737D02*
X1206160D01*
X1243300Y96000D02*
Y125206D01*
X1206160Y162346D02*
X1243300Y125206D01*
X1206160Y357473D02*
X1243300Y320333D01*
X1206160Y357473D02*
Y384637D01*
X1321320Y601380D02*
X1352000D01*
X1309000Y589060D02*
X1321320Y601380D01*
X1385201Y267000D02*
X1427000D01*
X1381581Y270620D02*
X1385201Y267000D01*
X1352000Y270620D02*
X1381581D01*
X1243300Y308132D02*
Y320333D01*
Y308132D02*
X1250950Y300482D01*
X1322138D01*
X1352000Y270620D01*
X1268700Y544667D02*
X1283015Y530352D01*
Y528685D02*
Y530352D01*
Y528685D02*
X1309000Y502700D01*
X1243300Y769000D02*
Y792080D01*
X1206160Y829220D02*
X1243300Y792080D01*
X1184570Y349561D02*
Y403687D01*
Y349561D02*
X1202660Y331471D01*
X1393190Y387000D02*
X1427000D01*
X1385570Y379380D02*
X1393190Y387000D01*
X1352000Y379380D02*
X1385570D01*
X1390490Y717000D02*
X1427000D01*
X1388110Y714620D02*
X1390490Y717000D01*
X1352000Y714620D02*
X1388110D01*
X1389746Y492000D02*
X1427000D01*
X1389126Y492620D02*
X1389746Y492000D01*
X1352000Y492620D02*
X1389126D01*
X1392698Y42000D02*
X1427000D01*
X1386078Y48620D02*
X1392698Y42000D01*
X1352000Y48620D02*
X1386078D01*
D11*
X1626850Y102000D02*
X1652000Y127150D01*
X1407000Y102000D02*
X1626850D01*
X1407000Y777000D02*
X1434000D01*
X1459000Y802000D02*
X1652000D01*
X1434000Y777000D02*
X1459000Y802000D01*
X1549000Y42000D02*
X1616850D01*
X1652000Y77150D01*
X1407000Y552000D02*
X1415000Y560000D01*
X1524888D02*
X1541888Y577000D01*
X1415000Y560000D02*
X1524888D01*
X1651950Y577000D02*
X1652000Y577050D01*
X1541888Y577000D02*
X1651950D01*
X1549000Y717000D02*
X1617000D01*
X1652000Y752000D01*
X1584050Y527050D02*
X1652000D01*
X1549000Y492000D02*
X1584050Y527050D01*
X1584100Y302100D02*
X1652000D01*
X1549000Y267000D02*
X1584100Y302100D01*
X1432100Y352100D02*
X1652000D01*
X1407000Y327000D02*
X1432100Y352100D01*
D12*
X1549000Y162000D02*
D03*
Y42000D02*
D03*
X1427000D02*
D03*
X1407000Y102000D02*
D03*
Y777000D02*
D03*
X1427000Y717000D02*
D03*
X1549000D02*
D03*
Y837000D02*
D03*
X1407000Y552000D02*
D03*
X1427000Y492000D02*
D03*
X1549000D02*
D03*
Y612000D02*
D03*
X1407000Y327000D02*
D03*
X1427000Y267000D02*
D03*
X1549000D02*
D03*
Y387000D02*
D03*
D13*
X1427000Y162000D02*
D03*
Y837000D02*
D03*
Y612000D02*
D03*
Y387000D02*
D03*
D14*
X875000Y805000D02*
D03*
X825000D02*
D03*
X775000D02*
D03*
X1652000Y802000D02*
D03*
Y752000D02*
D03*
Y577050D02*
D03*
Y527050D02*
D03*
Y352100D02*
D03*
Y302100D02*
D03*
Y127150D02*
D03*
Y77150D02*
D03*
X215000Y806000D02*
D03*
X165000D02*
D03*
X115000D02*
D03*
X335000Y805000D02*
D03*
X385000D02*
D03*
X435000D02*
D03*
X655000D02*
D03*
X605000D02*
D03*
X555000D02*
D03*
D15*
X725000D02*
D03*
X65000Y806000D02*
D03*
X285000Y805000D02*
D03*
X505000D02*
D03*
D16*
X1044200Y122600D02*
D03*
X980700Y605200D02*
D03*
X739400Y173400D02*
D03*
Y452800D02*
D03*
X218700Y122600D02*
D03*
X231400Y605200D02*
D03*
D17*
X714000Y402000D02*
D03*
X739400D02*
D03*
X714000Y376600D02*
D03*
X739400D02*
D03*
X714000Y351200D02*
D03*
X739400D02*
D03*
X358400Y122600D02*
D03*
X383800D02*
D03*
X266960Y605200D02*
D03*
X292360D02*
D03*
X536200Y122600D02*
D03*
X510800D02*
D03*
X485400D02*
D03*
X460000D02*
D03*
X434600D02*
D03*
X409200D02*
D03*
X1044200Y605200D02*
D03*
X1018800D02*
D03*
X1044200Y173400D02*
D03*
X1018800D02*
D03*
Y376600D02*
D03*
X1044200D02*
D03*
X1018800Y351200D02*
D03*
X1044200D02*
D03*
X1018800Y325800D02*
D03*
X1044200D02*
D03*
X1018800Y300400D02*
D03*
X1044200D02*
D03*
X1018800Y275000D02*
D03*
X1044200D02*
D03*
X1018800Y249600D02*
D03*
X1044200D02*
D03*
X1018800Y224200D02*
D03*
X1044200D02*
D03*
X1018800Y198800D02*
D03*
X1044200D02*
D03*
X1018800Y579800D02*
D03*
X1044200D02*
D03*
X1018800Y554400D02*
D03*
X1044200D02*
D03*
X1018800Y529000D02*
D03*
X1044200D02*
D03*
X1018800Y503600D02*
D03*
X1044200D02*
D03*
X1018800Y478200D02*
D03*
X1044200D02*
D03*
X1018800Y452800D02*
D03*
X1044200D02*
D03*
X1018800Y427400D02*
D03*
X1044200D02*
D03*
X1018800Y402000D02*
D03*
X1044200D02*
D03*
X317760Y605200D02*
D03*
X495560D02*
D03*
X470160D02*
D03*
X444760D02*
D03*
X419360D02*
D03*
X393960D02*
D03*
X368560D02*
D03*
X343160D02*
D03*
X536200D02*
D03*
X714000D02*
D03*
X688600D02*
D03*
X663200D02*
D03*
X637800D02*
D03*
X612400D02*
D03*
X587000D02*
D03*
X561600D02*
D03*
X587000Y122600D02*
D03*
X764800D02*
D03*
X739400D02*
D03*
X714000D02*
D03*
X688600D02*
D03*
X663200D02*
D03*
X637800D02*
D03*
X612400D02*
D03*
X764800Y605200D02*
D03*
X942600D02*
D03*
X917200D02*
D03*
X891800D02*
D03*
X866400D02*
D03*
X841000D02*
D03*
X815600D02*
D03*
X790200D02*
D03*
X815600Y122600D02*
D03*
X993400D02*
D03*
X968000D02*
D03*
X942600D02*
D03*
X917200D02*
D03*
X891800D02*
D03*
X866400D02*
D03*
X841000D02*
D03*
X1206160Y867320D02*
D03*
Y829220D02*
D03*
X1184570Y848270D02*
D03*
Y625978D02*
D03*
X1206160Y606928D02*
D03*
Y645028D02*
D03*
Y422737D02*
D03*
Y384637D02*
D03*
X1184570Y403687D02*
D03*
Y181396D02*
D03*
X1206160Y162346D02*
D03*
Y200446D02*
D03*
X1352000Y714620D02*
D03*
Y492620D02*
D03*
Y270620D02*
D03*
Y48620D02*
D03*
D18*
X1309000Y724640D02*
D03*
Y811000D02*
D03*
X1202660Y689694D02*
D03*
Y776054D02*
D03*
X1309000Y502700D02*
D03*
Y589060D02*
D03*
X1202660Y467403D02*
D03*
Y553763D02*
D03*
X1309000Y280760D02*
D03*
Y367120D02*
D03*
X1202660Y245112D02*
D03*
Y331471D02*
D03*
X1309000Y58820D02*
D03*
Y145180D02*
D03*
X1202660Y22820D02*
D03*
Y109180D02*
D03*
D19*
X1268700Y769000D02*
D03*
X1243300D02*
D03*
X1268700Y544667D02*
D03*
X1243300D02*
D03*
X1268700Y320333D02*
D03*
X1243300D02*
D03*
X1268700Y96000D02*
D03*
X1243300D02*
D03*
D20*
X1352000Y823380D02*
D03*
Y601380D02*
D03*
Y379380D02*
D03*
Y157380D02*
D03*
M02*
