G04*
G04 #@! TF.GenerationSoftware,Altium Limited,Altium Designer,20.1.11 (218)*
G04*
G04 Layer_Physical_Order=2*
G04 Layer_Color=16711680*
%FSLAX44Y44*%
%MOMM*%
G71*
G04*
G04 #@! TF.SameCoordinates,FC608BB4-D288-4DE3-8A55-F4D8440AB891*
G04*
G04*
G04 #@! TF.FilePolarity,Positive*
G04*
G01*
G75*
%ADD10C,0.8000*%
%ADD11C,2.0000*%
%ADD12C,1.0000*%
G04:AMPARAMS|DCode=13|XSize=2mm|YSize=2mm|CornerRadius=0.5mm|HoleSize=0mm|Usage=FLASHONLY|Rotation=180.000|XOffset=0mm|YOffset=0mm|HoleType=Round|Shape=RoundedRectangle|*
%AMROUNDEDRECTD13*
21,1,2.0000,1.0000,0,0,180.0*
21,1,1.0000,2.0000,0,0,180.0*
1,1,1.0000,-0.5000,0.5000*
1,1,1.0000,0.5000,0.5000*
1,1,1.0000,0.5000,-0.5000*
1,1,1.0000,-0.5000,-0.5000*
%
%ADD13ROUNDEDRECTD13*%
G04:AMPARAMS|DCode=14|XSize=2mm|YSize=2mm|CornerRadius=0.5mm|HoleSize=0mm|Usage=FLASHONLY|Rotation=90.000|XOffset=0mm|YOffset=0mm|HoleType=Round|Shape=RoundedRectangle|*
%AMROUNDEDRECTD14*
21,1,2.0000,1.0000,0,0,90.0*
21,1,1.0000,2.0000,0,0,90.0*
1,1,1.0000,0.5000,0.5000*
1,1,1.0000,0.5000,-0.5000*
1,1,1.0000,-0.5000,-0.5000*
1,1,1.0000,-0.5000,0.5000*
%
%ADD14ROUNDEDRECTD14*%
%ADD15O,2.5000X2.0000*%
%ADD16R,2.5000X2.0000*%
%ADD17C,3.0000*%
%ADD18R,3.0000X3.0000*%
G36*
X292648Y132172D02*
X291314Y130809D01*
X288334Y127400D01*
X287682Y126490D01*
X287201Y125693D01*
X286890Y125010D01*
X286750Y124441D01*
X286780Y123984D01*
X286982Y123641D01*
X278461Y132162D01*
X278804Y131961D01*
X279260Y131930D01*
X279830Y132071D01*
X280513Y132381D01*
X281309Y132863D01*
X282219Y133515D01*
X283242Y134337D01*
X285628Y136494D01*
X286991Y137829D01*
X292648Y132172D01*
D02*
G37*
G36*
X333863Y123985D02*
X332829Y125318D01*
X331763Y126510D01*
X330665Y127563D01*
X329537Y128475D01*
X328377Y129246D01*
X327186Y129878D01*
X325963Y130369D01*
X324710Y130719D01*
X323424Y130930D01*
X322108Y131000D01*
X323341Y139000D01*
X324557Y139058D01*
X325805Y139230D01*
X327086Y139518D01*
X328398Y139921D01*
X329742Y140439D01*
X331118Y141073D01*
X332527Y141821D01*
X335439Y143664D01*
X336944Y144757D01*
X333863Y123985D01*
D02*
G37*
G36*
X144365Y114524D02*
X143806Y114286D01*
X143312Y113890D01*
X142884Y113336D01*
X142522Y112624D01*
X142226Y111753D01*
X141996Y110724D01*
X141832Y109536D01*
X141733Y108190D01*
X141700Y106686D01*
X133700D01*
X133667Y108190D01*
X133404Y110724D01*
X133174Y111753D01*
X132878Y112624D01*
X132516Y113336D01*
X132088Y113890D01*
X131594Y114286D01*
X131035Y114524D01*
X130410Y114603D01*
X144990D01*
X144365Y114524D01*
D02*
G37*
G36*
X66340Y109349D02*
X59999Y102300D01*
X45150Y117149D01*
X45346Y117212D01*
X45656Y117401D01*
X46078Y117717D01*
X47262Y118731D01*
X50985Y122285D01*
X52198Y123491D01*
X66340Y109349D01*
D02*
G37*
G36*
X256760Y109221D02*
X257097Y108545D01*
X257658Y107948D01*
X258443Y107431D01*
X259452Y106994D01*
X260686Y106636D01*
X262145Y106358D01*
X263828Y106159D01*
X265735Y106040D01*
X267866Y106000D01*
Y98000D01*
X265735Y97960D01*
X262145Y97642D01*
X260686Y97364D01*
X259452Y97006D01*
X258443Y96568D01*
X257658Y96051D01*
X257097Y95455D01*
X256760Y94779D01*
X256648Y94023D01*
Y109976D01*
X256760Y109221D01*
D02*
G37*
G36*
X159561Y94000D02*
X159481Y94760D01*
X159240Y95440D01*
X158838Y96040D01*
X158276Y96560D01*
X157554Y97000D01*
X156670Y97360D01*
X155626Y97640D01*
X154422Y97840D01*
X153056Y97960D01*
X151531Y98000D01*
Y106000D01*
X153056Y106040D01*
X154422Y106160D01*
X155626Y106360D01*
X156670Y106640D01*
X157554Y107000D01*
X158276Y107440D01*
X158838Y107960D01*
X159240Y108560D01*
X159481Y109240D01*
X159561Y110000D01*
Y94000D01*
D02*
G37*
G36*
X340988Y67862D02*
X339222Y68458D01*
X333978Y69870D01*
X332248Y70216D01*
X327112Y70875D01*
X325418Y70969D01*
X323733Y71000D01*
X322303Y79000D01*
X323683Y79073D01*
X324963Y79292D01*
X326144Y79656D01*
X327226Y80166D01*
X328208Y80822D01*
X329091Y81623D01*
X329874Y82571D01*
X330557Y83664D01*
X331141Y84903D01*
X331626Y86288D01*
X340988Y67862D01*
D02*
G37*
G36*
X179228Y68167D02*
X178551Y67881D01*
X177953Y67404D01*
X177435Y66737D01*
X176997Y65879D01*
X176638Y64830D01*
X176359Y63591D01*
X176160Y62161D01*
X176040Y60541D01*
X176000Y58730D01*
X168000D01*
X167960Y60541D01*
X167641Y63591D01*
X167362Y64830D01*
X167004Y65879D01*
X166565Y66737D01*
X166047Y67404D01*
X165449Y67881D01*
X164772Y68167D01*
X164014Y68262D01*
X179986D01*
X179228Y68167D01*
D02*
G37*
G36*
X256224Y68749D02*
X255548Y68411D01*
X254951Y67884D01*
X254433Y67167D01*
X253995Y66260D01*
X253637Y65163D01*
X253358Y63877D01*
X253159Y62401D01*
X253040Y60735D01*
X253000Y58879D01*
X245000Y58651D01*
X244960Y60444D01*
X244841Y62042D01*
X244641Y63446D01*
X244362Y64656D01*
X244004Y65671D01*
X243565Y66493D01*
X243047Y67119D01*
X242449Y67552D01*
X241772Y67790D01*
X241014Y67835D01*
X256981Y68896D01*
X256224Y68749D01*
D02*
G37*
G36*
X281040Y52108D02*
X281159Y50566D01*
X281358Y49204D01*
X281637Y48025D01*
X281995Y47027D01*
X282433Y46210D01*
X282951Y45575D01*
X283548Y45121D01*
X284225Y44849D01*
X284981Y44758D01*
X269018D01*
X269775Y44849D01*
X270452Y45121D01*
X271049Y45575D01*
X271566Y46210D01*
X272004Y47027D01*
X272363Y48025D01*
X272641Y49204D01*
X272840Y50566D01*
X272960Y52108D01*
X273000Y53833D01*
X281000D01*
X281040Y52108D01*
D02*
G37*
G36*
X192242Y29019D02*
X192152Y29775D01*
X191879Y30452D01*
X191426Y31049D01*
X190791Y31567D01*
X189974Y32005D01*
X188976Y32363D01*
X187796Y32642D01*
X186435Y32841D01*
X184892Y32960D01*
X183168Y33000D01*
Y41000D01*
X184892Y41040D01*
X186435Y41159D01*
X187796Y41358D01*
X188976Y41637D01*
X189974Y41996D01*
X190791Y42434D01*
X191426Y42951D01*
X191879Y43548D01*
X192152Y44225D01*
X192242Y44982D01*
Y29019D01*
D02*
G37*
G36*
X331061Y23200D02*
X330980Y23960D01*
X330740Y24640D01*
X330338Y25240D01*
X329776Y25760D01*
X329053Y26200D01*
X328170Y26560D01*
X327126Y26840D01*
X325921Y27040D01*
X324556Y27160D01*
X323030Y27200D01*
Y35200D01*
X324556Y35240D01*
X325921Y35360D01*
X327126Y35560D01*
X328170Y35840D01*
X329053Y36200D01*
X329776Y36640D01*
X330338Y37160D01*
X330740Y37760D01*
X330980Y38440D01*
X331061Y39200D01*
Y23200D01*
D02*
G37*
D10*
X277000Y122180D02*
X289820Y135000D01*
X343800D02*
X346000Y132800D01*
X289820Y135000D02*
X343800D01*
X248200Y102000D02*
X320047D01*
X331931Y90115D02*
X340047Y82000D01*
X346000D01*
X331931Y90115D02*
X331931D01*
X320047Y102000D02*
X331931Y90115D01*
X281686Y75000D02*
X333047D01*
X277000Y35820D02*
Y70314D01*
X333047Y75000D02*
X340047Y82000D01*
X277000Y70314D02*
X281686Y75000D01*
X253686Y16510D02*
X295510D01*
X310200Y31200D02*
X346000D01*
X295510Y16510D02*
X310200Y31200D01*
X249000Y21196D02*
Y75800D01*
Y21196D02*
X253686Y16510D01*
X248200Y76600D02*
X249000Y75800D01*
X176686Y37000D02*
X201180D01*
X172000Y41687D02*
X176686Y37000D01*
X172000Y41687D02*
Y76600D01*
X142386Y102000D02*
X172000D01*
X137700Y106686D02*
X142386Y102000D01*
X137700Y106686D02*
Y124000D01*
D11*
X45000Y102150D02*
X66849Y124000D01*
X112300D02*
X112300Y124000D01*
X66849Y124000D02*
X112300D01*
X45000Y52150D02*
X46565D01*
X61715Y37000D01*
X114820D01*
D12*
X16000Y45000D02*
Y58329D01*
X14664Y94000D02*
Y107329D01*
X8000Y100665D02*
X21329D01*
D13*
X137700Y124000D02*
D03*
X112300D02*
D03*
X201180Y37000D02*
D03*
X114820D02*
D03*
D14*
X277000Y122180D02*
D03*
Y35820D02*
D03*
D15*
X248200Y102000D02*
D03*
Y76600D02*
D03*
X172000D02*
D03*
D16*
Y102000D02*
D03*
D17*
X346000Y132800D02*
D03*
Y82000D02*
D03*
X45000Y52150D02*
D03*
Y102150D02*
D03*
D18*
X346000Y31200D02*
D03*
M02*
