G04*
G04 #@! TF.GenerationSoftware,Altium Limited,Altium Designer,20.1.11 (218)*
G04*
G04 Layer_Physical_Order=2*
G04 Layer_Color=16711680*
%FSLAX44Y44*%
%MOMM*%
G71*
G04*
G04 #@! TF.SameCoordinates,A4AB8B62-A7F7-4786-9BA1-37B8C303C8CB*
G04*
G04*
G04 #@! TF.FilePolarity,Positive*
G04*
G01*
G75*
%ADD10C,0.8000*%
%ADD11C,0.6000*%
%ADD12C,2.0000*%
%ADD13R,2.0000X2.0000*%
%ADD14C,2.0000*%
%ADD15R,3.0000X2.0000*%
%ADD16O,3.0000X2.0000*%
%ADD17C,3.0000*%
%ADD18R,3.0000X3.0000*%
%ADD19O,1.0000X2.0000*%
%ADD20O,1.0000X2.0000*%
%ADD21R,2.5000X2.5000*%
%ADD22C,2.5000*%
%ADD23C,1.5000*%
D10*
X288290Y52686D02*
Y194290D01*
X314384Y220384D02*
Y253384D01*
X288290Y194290D02*
X314384Y220384D01*
X147320Y143200D02*
X242520Y48000D01*
X283604D02*
X288290Y52686D01*
X242520Y48000D02*
X283604D01*
X286512Y35814D02*
X301498Y50800D01*
X369000Y176000D02*
X449000D01*
X350000Y195000D02*
X369000Y176000D01*
X350000Y195000D02*
Y234000D01*
X486356Y292835D02*
X529000D01*
X479532Y286011D02*
X486356Y292835D01*
X479532Y286011D02*
X479532D01*
X473760Y280239D02*
X479532Y286011D01*
X472600Y267000D02*
Y272541D01*
X473760Y273701D01*
Y280239D01*
X529000Y292835D02*
X572511D01*
X575000Y295324D01*
Y329400D01*
X415514Y239920D02*
X455905D01*
X455905Y239920D01*
X377435Y278000D02*
X415514Y239920D01*
X455905Y239920D02*
X488234D01*
X556400Y348000D02*
X575000Y329400D01*
X242686Y447500D02*
X279998D01*
X238000Y315600D02*
Y442814D01*
X177481Y397200D02*
X238321Y458040D01*
X110600Y397200D02*
X177481D01*
X238321Y458040D02*
X351488D01*
X238000Y442814D02*
X242686Y447500D01*
X290498Y437000D02*
X500094D01*
X279998Y447500D02*
X290498Y437000D01*
X574276Y468580D02*
X597040Y445816D01*
X113030Y422600D02*
X159010Y468580D01*
X351488Y458040D02*
X358488Y451040D01*
X159010Y468580D02*
X574276D01*
X358488Y451040D02*
X483196D01*
X300000Y312000D02*
X326000D01*
X263000Y321000D02*
X291000D01*
X300000Y312000D01*
X263735Y220135D02*
X265296Y221696D01*
X279696D01*
X288661Y230661D01*
X295661D02*
X297000Y232000D01*
X288661Y230661D02*
X295661D01*
X566000Y440000D02*
X583000D01*
X553000Y453000D02*
X566000Y440000D01*
X597040Y415955D02*
Y445816D01*
X580485Y399400D02*
X597040Y415955D01*
X348985Y261015D02*
X386480Y223520D01*
X329000Y246000D02*
X344015Y261015D01*
X348985D01*
X386480Y223520D02*
X495300D01*
X314384Y253384D02*
X339000Y278000D01*
X377435D01*
X390246Y280095D02*
X438186D01*
X323940Y346400D02*
X390246Y280095D01*
X263000Y346400D02*
X323940D01*
X438186Y280095D02*
X467820Y250460D01*
X477380D01*
X488234Y239920D02*
X498000Y249686D01*
X477380Y250460D02*
X484917Y257998D01*
X498000Y249686D02*
Y267000D01*
X484917Y266618D02*
X485300Y267000D01*
X484917Y257998D02*
Y266618D01*
X277389Y417000D02*
X495000D01*
X537851Y440740D02*
X538251Y440340D01*
X518740Y440740D02*
X537851D01*
X538251Y440340D02*
X546660D01*
X495000Y417000D02*
X518740Y440740D01*
X500094Y437000D02*
X516094Y453000D01*
X553000D01*
X238000Y315600D02*
X258000Y295600D01*
X329000Y176000D02*
Y246000D01*
X564571Y375000D02*
X581000D01*
X110600Y92400D02*
X131064D01*
X50600D02*
X110600D01*
X564400Y399400D02*
X580485D01*
X546660Y440340D02*
X553209Y433791D01*
X490813Y347000D02*
X530000D01*
X456000Y369485D02*
X459515Y373000D01*
X456000Y316515D02*
Y369485D01*
X459515Y373000D02*
X530600D01*
X276588Y402000D02*
X524012D01*
X452485Y313000D02*
X456000Y316515D01*
X386000Y313000D02*
X452485D01*
X529000Y257220D02*
Y290000D01*
X495300Y223520D02*
X529000Y257220D01*
X301498Y148498D02*
X329000Y176000D01*
X72000Y67000D02*
X110600D01*
X49000Y44000D02*
X72000Y67000D01*
X110600Y143200D02*
X147320D01*
X301498Y50800D02*
Y148498D01*
X187650Y35814D02*
X286512D01*
X131064Y92400D02*
X187650Y35814D01*
D11*
X326000Y312000D02*
X327000D01*
X483000Y347000D02*
X490813D01*
X581000Y375000D02*
X582000Y374000D01*
X382000Y315000D02*
X384000D01*
X386000Y313000D01*
X530000Y347000D02*
X531000Y348000D01*
X530600Y373000D02*
X531000Y373400D01*
X524012Y402000D02*
X527212Y398800D01*
X263000Y397200D02*
X271789D01*
X276588Y402000D01*
X527212Y398800D02*
X531000D01*
X49000Y94000D02*
X50600Y92400D01*
X263000Y422600D02*
X271789D01*
X277389Y417000D01*
X258000Y295600D02*
X263000D01*
Y219400D02*
X263735Y220135D01*
X529999Y109499D02*
X530499Y109000D01*
X110600Y422600D02*
X113030D01*
D12*
X334500Y56500D02*
X394000Y116000D01*
X485284D01*
X529583Y160299D01*
X332853Y56500D02*
X334500D01*
X329000Y54000D02*
X330353D01*
X332853Y56500D01*
X395393Y201040D02*
X559244D01*
X390354Y196000D02*
X395393Y201040D01*
X559244D02*
X573000Y187284D01*
Y120716D02*
Y187284D01*
X530499Y109000D02*
X561284D01*
X573000Y120716D01*
X389001Y196000D02*
X390354D01*
X529583Y160299D02*
X529999D01*
X449000Y54000D02*
X450353D01*
X453654Y57301D01*
X528601D01*
X529999Y58699D01*
D13*
X556400Y348000D02*
D03*
D14*
X531000D02*
D03*
X556400Y373400D02*
D03*
X531000D02*
D03*
X556400Y398800D02*
D03*
X531000D02*
D03*
X556400Y424200D02*
D03*
X531000D02*
D03*
D15*
X110600Y422600D02*
D03*
D16*
Y397200D02*
D03*
Y371800D02*
D03*
Y346400D02*
D03*
Y321000D02*
D03*
Y295600D02*
D03*
Y270200D02*
D03*
Y244800D02*
D03*
Y219400D02*
D03*
Y194000D02*
D03*
Y168600D02*
D03*
Y143200D02*
D03*
Y117800D02*
D03*
Y92400D02*
D03*
Y67000D02*
D03*
X263000D02*
D03*
Y92400D02*
D03*
Y117800D02*
D03*
Y143200D02*
D03*
Y168600D02*
D03*
Y194000D02*
D03*
Y219400D02*
D03*
Y244800D02*
D03*
Y270200D02*
D03*
Y295600D02*
D03*
Y321000D02*
D03*
Y346400D02*
D03*
Y371800D02*
D03*
Y397200D02*
D03*
Y422600D02*
D03*
D17*
X49000Y44000D02*
D03*
Y94000D02*
D03*
X529999Y160299D02*
D03*
Y109499D02*
D03*
D18*
Y58699D02*
D03*
D19*
X472600Y267000D02*
D03*
X498000D02*
D03*
D20*
X485300D02*
D03*
D21*
X449000Y176000D02*
D03*
D22*
X389001Y196000D02*
D03*
X329000Y176000D02*
D03*
Y54000D02*
D03*
X449000D02*
D03*
D23*
X327000Y312000D02*
D03*
X583000Y440000D02*
D03*
X483000Y347000D02*
D03*
X350000Y234000D02*
D03*
X483196Y451040D02*
D03*
X582000Y374000D02*
D03*
X382000Y312000D02*
D03*
X297000Y232000D02*
D03*
M02*
