G04*
G04 #@! TF.GenerationSoftware,Altium Limited,Altium Designer,20.1.11 (218)*
G04*
G04 Layer_Physical_Order=2*
G04 Layer_Color=16711680*
%FSLAX44Y44*%
%MOMM*%
G71*
G04*
G04 #@! TF.SameCoordinates,C6115BEB-3121-4B27-955F-0CC223D2DCCE*
G04*
G04*
G04 #@! TF.FilePolarity,Positive*
G04*
G01*
G75*
%ADD10C,0.8000*%
%ADD11C,0.2540*%
%ADD12C,2.0000*%
%ADD13R,2.0000X2.0000*%
G04:AMPARAMS|DCode=14|XSize=2mm|YSize=2mm|CornerRadius=0.5mm|HoleSize=0mm|Usage=FLASHONLY|Rotation=0.000|XOffset=0mm|YOffset=0mm|HoleType=Round|Shape=RoundedRectangle|*
%AMROUNDEDRECTD14*
21,1,2.0000,1.0000,0,0,0.0*
21,1,1.0000,2.0000,0,0,0.0*
1,1,1.0000,0.5000,-0.5000*
1,1,1.0000,-0.5000,-0.5000*
1,1,1.0000,-0.5000,0.5000*
1,1,1.0000,0.5000,0.5000*
%
%ADD14ROUNDEDRECTD14*%
%ADD15R,2.0000X2.0000*%
%ADD16C,2.5000*%
G04:AMPARAMS|DCode=17|XSize=2mm|YSize=2mm|CornerRadius=0.5mm|HoleSize=0mm|Usage=FLASHONLY|Rotation=270.000|XOffset=0mm|YOffset=0mm|HoleType=Round|Shape=RoundedRectangle|*
%AMROUNDEDRECTD17*
21,1,2.0000,1.0000,0,0,270.0*
21,1,1.0000,2.0000,0,0,270.0*
1,1,1.0000,-0.5000,-0.5000*
1,1,1.0000,-0.5000,0.5000*
1,1,1.0000,0.5000,0.5000*
1,1,1.0000,0.5000,-0.5000*
%
%ADD17ROUNDEDRECTD17*%
D10*
X81054Y109080D02*
X88334Y101800D01*
X76688Y98540D02*
X104440Y70787D01*
X54220Y98540D02*
X76688D01*
X104440Y70787D02*
X123593D01*
X88334Y101800D02*
X115280D01*
X77134Y113000D02*
X81054Y109080D01*
X123593Y70787D02*
X167380Y27000D01*
X28057Y87056D02*
X42736D01*
X54220Y98540D01*
X28000Y87000D02*
X28057Y87056D01*
X22247Y61600D02*
X43600D01*
X64000Y82000D01*
X64000D01*
X25000Y113400D02*
X25400Y113000D01*
X77134D01*
X115280Y101800D02*
X130587Y117107D01*
X135187D01*
X96230Y128850D02*
Y150317D01*
X107384Y161470D01*
X165935Y110065D02*
Y151314D01*
X107384Y161470D02*
X155779D01*
X165935Y151314D01*
X96220Y128840D02*
X96230Y128850D01*
X186830Y100871D02*
X190000Y97700D01*
X158617Y87382D02*
Y102477D01*
X165935Y110065D02*
X175129Y100871D01*
X186830D01*
X153360Y107734D02*
X158617Y102477D01*
X153360Y107734D02*
Y136727D01*
X158617Y87382D02*
X164000Y82000D01*
X139770Y150317D02*
X153360Y136727D01*
X206540Y36911D02*
Y82080D01*
X180089Y10460D02*
X206540Y36911D01*
X199780Y88840D02*
X206540Y82080D01*
X199401Y88840D02*
X199780D01*
X190541Y97700D02*
X199401Y88840D01*
X190000Y97700D02*
X190541D01*
X173380Y33000D02*
Y35380D01*
X190000Y52000D02*
Y72300D01*
X173380Y35380D02*
X190000Y52000D01*
X150830Y10460D02*
X180089D01*
X167380Y27000D02*
X173380Y33000D01*
X134290Y27000D02*
X150830Y10460D01*
X115384Y150317D02*
X139770D01*
X115270Y150430D02*
X115384Y150317D01*
X58620Y27000D02*
X134290D01*
D11*
X1129Y64205D02*
X-537Y62538D01*
Y59206D01*
X1129Y57540D01*
X2795D01*
X4462Y59206D01*
Y62538D01*
X6128Y64205D01*
X7794D01*
X9460Y62538D01*
Y59206D01*
X7794Y57540D01*
X4382Y82540D02*
Y92697D01*
X-697Y87618D02*
X9460D01*
X4962Y108540D02*
Y118537D01*
D12*
X25000Y113400D02*
D03*
Y88000D02*
D03*
X58620Y27000D02*
D03*
D13*
X25000Y62600D02*
D03*
D14*
X164000Y82000D02*
D03*
X64000D02*
D03*
D15*
X167380Y27000D02*
D03*
D16*
X134320Y120840D02*
D03*
X96220D02*
D03*
X115270Y142430D02*
D03*
D17*
X190000Y97700D02*
D03*
Y72300D02*
D03*
M02*
