G04*
G04 #@! TF.GenerationSoftware,Altium Limited,Altium Designer,20.1.11 (218)*
G04*
G04 Layer_Color=65535*
%FSLAX25Y25*%
%MOIN*%
G70*
G04*
G04 #@! TF.SameCoordinates,1FFAB4DC-9B42-4647-A341-CC47B364B69B*
G04*
G04*
G04 #@! TF.FilePolarity,Positive*
G04*
G01*
G75*
%ADD10C,0.00591*%
%ADD11C,0.01000*%
%ADD12C,0.00787*%
D10*
X17211Y11811D02*
G03*
X17211Y11811I12008J0D01*
G01*
D11*
X78333Y55906D02*
X18431D01*
Y50276D02*
Y55906D01*
X78333Y51614D02*
Y55906D01*
X68530Y25709D02*
X18431D01*
Y50276D01*
X9439Y47819D02*
Y43820D01*
X9409Y16323D02*
Y12324D01*
X7409Y14323D02*
X11408D01*
X152353Y26165D02*
Y22167D01*
X152322Y45063D02*
Y41064D01*
X150323Y43064D02*
X154321D01*
D12*
X60046Y12599D02*
X57172D01*
X86542D02*
X83668D01*
Y8071D02*
Y17126D01*
Y8071D02*
X60046D01*
Y17126D01*
X83668D02*
X60046D01*
X81305Y22441D02*
Y53937D01*
X112802D02*
X81305D01*
X112802Y22441D02*
Y53937D01*
Y22441D02*
X81305D01*
X68530Y25709D02*
Y55709D01*
X78333Y25709D02*
Y55709D01*
X68530D01*
X78333Y25709D02*
X68530D01*
X148333Y55886D02*
X115853D01*
X148333Y13287D02*
Y55886D01*
Y13287D02*
X115853D01*
Y55886D01*
X14967Y40788D02*
X4337D01*
X14967Y18819D02*
Y40788D01*
Y18819D02*
X4337D01*
Y40788D01*
X39553Y6299D02*
Y17323D01*
X139180Y1969D02*
Y5904D01*
X137868Y4592D01*
X136556Y5904D01*
Y1969D01*
X135244D02*
X133932D01*
X134588D01*
Y4592D01*
X135244D01*
X129340D02*
X131308D01*
X131964Y3936D01*
Y2624D01*
X131308Y1969D01*
X129340D01*
X128028Y4592D02*
Y1969D01*
Y3280D01*
X127372Y3936D01*
X126716Y4592D01*
X126060D01*
X123437Y1969D02*
X122125D01*
X121469Y2624D01*
Y3936D01*
X122125Y4592D01*
X123437D01*
X124092Y3936D01*
Y2624D01*
X123437Y1969D01*
X114253Y5904D02*
X115565D01*
X116221Y5248D01*
Y2624D01*
X115565Y1969D01*
X114253D01*
X113597Y2624D01*
Y5248D01*
X114253Y5904D01*
X112285D02*
Y1969D01*
Y3936D01*
X111629Y4592D01*
X110317D01*
X109661Y3936D01*
Y1969D01*
X108350D02*
Y4592D01*
X107694D01*
X107038Y3936D01*
Y1969D01*
Y3936D01*
X106382Y4592D01*
X105726Y3936D01*
Y1969D01*
X97854Y5904D02*
X100478D01*
Y1969D01*
X97854D01*
X100478Y3936D02*
X99166D01*
X96542Y1969D02*
X95230D01*
X95886D01*
Y5904D01*
X96542D01*
X91295Y1969D02*
X92607D01*
X93263Y2624D01*
Y3936D01*
X92607Y4592D01*
X91295D01*
X90639Y3936D01*
Y3280D01*
X93263D01*
X86703Y4592D02*
X88671D01*
X89327Y3936D01*
Y2624D01*
X88671Y1969D01*
X86703D01*
X84735Y5248D02*
Y4592D01*
X85391D01*
X84079D01*
X84735D01*
Y2624D01*
X84079Y1969D01*
X82111Y4592D02*
Y1969D01*
Y3280D01*
X81455Y3936D01*
X80799Y4592D01*
X80143D01*
X77520Y1969D02*
X76208D01*
X75552Y2624D01*
Y3936D01*
X76208Y4592D01*
X77520D01*
X78176Y3936D01*
Y2624D01*
X77520Y1969D01*
X74240D02*
Y4592D01*
X72272D01*
X71616Y3936D01*
Y1969D01*
X70304D02*
X68992D01*
X69648D01*
Y4592D01*
X70304D01*
X64401D02*
X66368D01*
X67024Y3936D01*
Y2624D01*
X66368Y1969D01*
X64401D01*
X63089D02*
X61121D01*
X60465Y2624D01*
X61121Y3280D01*
X62433D01*
X63089Y3936D01*
X62433Y4592D01*
X60465D01*
X43118Y16929D02*
X47054D01*
Y14305D01*
X43118Y10370D02*
Y12993D01*
X47054D01*
Y10370D01*
X45086Y12993D02*
Y11682D01*
X43118Y9058D02*
X47054D01*
Y7090D01*
X46398Y6434D01*
X43774D01*
X43118Y7090D01*
Y9058D01*
X108472Y60235D02*
X109783D01*
X110439Y59579D01*
Y56955D01*
X109783Y56299D01*
X108472D01*
X107816Y56955D01*
Y59579D01*
X108472Y60235D01*
X106504Y56299D02*
Y58923D01*
X104536D01*
X103880Y58267D01*
Y56299D01*
X98632Y58267D02*
X96008D01*
X88793Y60235D02*
X90105D01*
X90761Y59579D01*
Y56955D01*
X90105Y56299D01*
X88793D01*
X88137Y56955D01*
Y59579D01*
X88793Y60235D01*
X86169Y56299D02*
Y59579D01*
Y58267D01*
X86825D01*
X85513D01*
X86169D01*
Y59579D01*
X85513Y60235D01*
X82889Y56299D02*
Y59579D01*
Y58267D01*
X83545D01*
X82233D01*
X82889D01*
Y59579D01*
X82233Y60235D01*
X76055Y18898D02*
Y22834D01*
X74087D01*
X73431Y22178D01*
Y20866D01*
X74087Y20210D01*
X76055D01*
X74743D02*
X73431Y18898D01*
X72120D02*
X70808D01*
X71464D01*
Y22834D01*
X72120Y22178D01*
M02*
