G04*
G04 #@! TF.GenerationSoftware,Altium Limited,Altium Designer,20.1.11 (218)*
G04*
G04 Layer_Physical_Order=2*
G04 Layer_Color=16711680*
%FSLAX25Y25*%
%MOIN*%
G70*
G04*
G04 #@! TF.SameCoordinates,1FFAB4DC-9B42-4647-A341-CC47B364B69B*
G04*
G04*
G04 #@! TF.FilePolarity,Positive*
G04*
G01*
G75*
%ADD12C,0.00787*%
%ADD13C,0.03150*%
G04:AMPARAMS|DCode=14|XSize=78.74mil|YSize=78.74mil|CornerRadius=19.68mil|HoleSize=0mil|Usage=FLASHONLY|Rotation=0.000|XOffset=0mil|YOffset=0mil|HoleType=Round|Shape=RoundedRectangle|*
%AMROUNDEDRECTD14*
21,1,0.07874,0.03937,0,0,0.0*
21,1,0.03937,0.07874,0,0,0.0*
1,1,0.03937,0.01968,-0.01968*
1,1,0.03937,-0.01968,-0.01968*
1,1,0.03937,-0.01968,0.01968*
1,1,0.03937,0.01968,0.01968*
%
%ADD14ROUNDEDRECTD14*%
%ADD15C,0.07874*%
%ADD16R,0.07874X0.07874*%
%ADD17R,0.07874X0.07874*%
%ADD18C,0.11811*%
G04:AMPARAMS|DCode=19|XSize=78.74mil|YSize=78.74mil|CornerRadius=19.68mil|HoleSize=0mil|Usage=FLASHONLY|Rotation=270.000|XOffset=0mil|YOffset=0mil|HoleType=Round|Shape=RoundedRectangle|*
%AMROUNDEDRECTD19*
21,1,0.07874,0.03937,0,0,270.0*
21,1,0.03937,0.07874,0,0,270.0*
1,1,0.03937,-0.01968,-0.01968*
1,1,0.03937,-0.01968,0.01968*
1,1,0.03937,0.01968,0.01968*
1,1,0.03937,0.01968,-0.01968*
%
%ADD19ROUNDEDRECTD19*%
%ADD20C,0.09843*%
G36*
X31822Y48886D02*
X31350Y48394D01*
X30579Y47466D01*
X30282Y47031D01*
X30042Y46615D01*
X29862Y46218D01*
X29740Y45840D01*
X29676Y45481D01*
X29671Y45141D01*
X29724Y44820D01*
X25529Y49015D01*
X25850Y48962D01*
X26189Y48967D01*
X26548Y49031D01*
X26926Y49153D01*
X27323Y49334D01*
X27740Y49573D01*
X28175Y49870D01*
X28629Y50226D01*
X29103Y50641D01*
X29595Y51114D01*
X31822Y48886D01*
D02*
G37*
G36*
X46759Y46921D02*
X46360Y47207D01*
X45920Y47463D01*
X45437Y47688D01*
X44912Y47884D01*
X44346Y48049D01*
X43737Y48185D01*
X43086Y48290D01*
X41657Y48410D01*
X40880Y48425D01*
Y51575D01*
X41657Y51590D01*
X43086Y51710D01*
X43737Y51815D01*
X44346Y51951D01*
X44912Y52116D01*
X45437Y52312D01*
X45920Y52537D01*
X46360Y52793D01*
X46759Y53079D01*
Y46921D01*
D02*
G37*
G36*
X83206Y46784D02*
X82961Y46962D01*
X82672Y47051D01*
X82338D01*
X81959Y46962D01*
X81536Y46784D01*
X81068Y46516D01*
X80556Y46160D01*
X79999Y45715D01*
X78752Y44556D01*
X76525Y46784D01*
X77149Y47429D01*
X78129Y48588D01*
X78485Y49100D01*
X78752Y49567D01*
X78930Y49991D01*
X79019Y50369D01*
Y50703D01*
X78930Y50993D01*
X78752Y51238D01*
X83206Y46784D01*
D02*
G37*
G36*
X62224Y47590D02*
X62095Y47241D01*
X62024Y46891D01*
X62009Y46540D01*
X62051Y46188D01*
X62150Y45836D01*
X62306Y45483D01*
X62519Y45130D01*
X62789Y44776D01*
X63116Y44421D01*
X60889Y42193D01*
X57140Y46560D01*
X62410Y47939D01*
X62224Y47590D01*
D02*
G37*
G36*
X85530Y43502D02*
X85970Y43246D01*
X86453Y43020D01*
X86977Y42825D01*
X87544Y42659D01*
X88153Y42524D01*
X88804Y42419D01*
X90233Y42298D01*
X91010Y42283D01*
Y39134D01*
X90233Y39119D01*
X88804Y38998D01*
X88153Y38893D01*
X87544Y38758D01*
X86977Y38592D01*
X86453Y38397D01*
X85970Y38171D01*
X85530Y37916D01*
X85131Y37630D01*
Y43787D01*
X85530Y43502D01*
D02*
G37*
G36*
Y33502D02*
X85970Y33246D01*
X86453Y33020D01*
X86977Y32825D01*
X87544Y32659D01*
X88153Y32524D01*
X88804Y32419D01*
X90233Y32298D01*
X91010Y32283D01*
Y29134D01*
X90233Y29119D01*
X88804Y28998D01*
X88153Y28893D01*
X87544Y28758D01*
X86977Y28592D01*
X86453Y28397D01*
X85970Y28171D01*
X85530Y27916D01*
X85131Y27630D01*
Y33787D01*
X85530Y33502D01*
D02*
G37*
G36*
X34165Y31544D02*
X33450Y30786D01*
X32799Y30006D01*
X32212Y29204D01*
X31688Y28379D01*
X31228Y27531D01*
X30832Y26662D01*
X30500Y25770D01*
X30231Y24855D01*
X30026Y23918D01*
X29884Y22959D01*
X23353Y29490D01*
X24312Y29632D01*
X25249Y29837D01*
X26163Y30106D01*
X27055Y30438D01*
X27925Y30834D01*
X28773Y31294D01*
X29597Y31818D01*
X30400Y32405D01*
X31180Y33056D01*
X31938Y33771D01*
X34165Y31544D01*
D02*
G37*
G36*
X63733Y9456D02*
X63697Y9754D01*
X63590Y10021D01*
X63411Y10256D01*
X63161Y10459D01*
X62840Y10632D01*
X62447Y10773D01*
X61982Y10883D01*
X61446Y10961D01*
X60839Y11008D01*
X60160Y11024D01*
Y14173D01*
X60839Y14189D01*
X61446Y14236D01*
X61982Y14314D01*
X62447Y14424D01*
X62840Y14565D01*
X63161Y14738D01*
X63411Y14942D01*
X63590Y15177D01*
X63697Y15443D01*
X63733Y15741D01*
Y9456D01*
D02*
G37*
G36*
X105194Y6430D02*
X104547Y7054D01*
X103387Y8037D01*
X102875Y8394D01*
X102407Y8663D01*
X101984Y8842D01*
X101605Y8932D01*
X101272Y8934D01*
X100983Y8846D01*
X100740Y8669D01*
X105182Y13111D01*
X105005Y12867D01*
X104917Y12578D01*
X104918Y12245D01*
X105008Y11867D01*
X105188Y11444D01*
X105456Y10976D01*
X105814Y10463D01*
X106260Y9906D01*
X107421Y8657D01*
X105194Y6430D01*
D02*
G37*
G36*
X111600Y32283D02*
Y32283D01*
D01*
Y32283D01*
D01*
D01*
D01*
D01*
D01*
D01*
D01*
X107798Y29134D01*
X108419Y29111D01*
X109021Y29045D01*
X109605Y28933D01*
X110170Y28778D01*
X110717Y28577D01*
X111246Y28332D01*
X111756Y28043D01*
X112247Y27708D01*
X112720Y27330D01*
X113175Y26907D01*
X111600Y30709D01*
Y32283D01*
D02*
G37*
G36*
X117948Y17980D02*
X118595Y17355D01*
X119754Y16373D01*
X120267Y16015D01*
X120735Y15747D01*
X121158Y15567D01*
X121536Y15477D01*
X121870Y15476D01*
X122158Y15564D01*
X122402Y15741D01*
X117960Y11299D01*
X118137Y11543D01*
X118225Y11831D01*
X118224Y12165D01*
X118133Y12543D01*
X117954Y12966D01*
X117685Y13434D01*
X117328Y13946D01*
X116881Y14504D01*
X115721Y15753D01*
X117948Y17980D01*
D02*
G37*
G36*
X127286Y5914D02*
X127806Y6455D01*
X128557Y7384D01*
X128789Y7771D01*
X128925Y8107D01*
X128964Y8391D01*
X128908Y8623D01*
X128755Y8803D01*
X128506Y8932D01*
X128162Y9009D01*
X134845Y8134D01*
X134528Y7985D01*
X134182Y7789D01*
X133807Y7546D01*
X132968Y6920D01*
X132011Y6104D01*
X130356Y4528D01*
X127286Y5914D01*
D02*
G37*
G36*
X143162Y40347D02*
X144321Y39365D01*
X144834Y39007D01*
X145302Y38739D01*
X145725Y38560D01*
X146103Y38469D01*
X146436Y38468D01*
X146725Y38556D01*
X146969Y38733D01*
X142527Y34291D01*
X142704Y34535D01*
X142792Y34824D01*
X142790Y35157D01*
X142700Y35535D01*
X142521Y35958D01*
X142252Y36426D01*
X141895Y36939D01*
X141448Y37496D01*
X140288Y38745D01*
X142515Y40972D01*
X143162Y40347D01*
D02*
G37*
G36*
X153739Y27008D02*
X153127Y26382D01*
X151280Y24229D01*
X150969Y23779D01*
X150719Y23362D01*
X150530Y22981D01*
X150400Y22635D01*
X150331Y22324D01*
X148936Y28678D01*
X149226Y28584D01*
X149525Y28540D01*
X149834Y28546D01*
X150151Y28601D01*
X150478Y28705D01*
X150814Y28860D01*
X151159Y29063D01*
X151513Y29316D01*
X151876Y29619D01*
X152249Y29971D01*
X153739Y27008D01*
D02*
G37*
G36*
X142938Y24921D02*
Y21661D01*
X142902Y21959D01*
X142856Y22074D01*
X142847Y21779D01*
X142821Y22077D01*
X142739Y22299D01*
X142616Y22460D01*
X142366Y22664D01*
X142045Y22837D01*
X141652Y22978D01*
X141187Y23087D01*
X140651Y23166D01*
X140044Y23213D01*
X139365Y23228D01*
Y23346D01*
Y26378D01*
Y26496D01*
X140053Y26512D01*
X140669Y26559D01*
X141214Y26637D01*
X141688Y26747D01*
X142090Y26888D01*
X142420Y27060D01*
X142680Y27264D01*
X142817Y27436D01*
X142902Y27648D01*
X142938Y27946D01*
Y27661D01*
X142984Y27766D01*
X143028Y28063D01*
X142938Y24921D01*
D02*
G37*
D12*
X94488Y1969D02*
Y5904D01*
X93176Y4592D01*
X91864Y5904D01*
Y1969D01*
X90552D02*
X89240D01*
X89897D01*
Y4592D01*
X90552D01*
X84649D02*
X86617D01*
X87273Y3936D01*
Y2624D01*
X86617Y1969D01*
X84649D01*
X83337Y4592D02*
Y1969D01*
Y3280D01*
X82681Y3936D01*
X82025Y4592D01*
X81369D01*
X78745Y1969D02*
X77433D01*
X76777Y2624D01*
Y3936D01*
X77433Y4592D01*
X78745D01*
X79401Y3936D01*
Y2624D01*
X78745Y1969D01*
X69562Y5904D02*
X70874D01*
X71530Y5248D01*
Y2624D01*
X70874Y1969D01*
X69562D01*
X68906Y2624D01*
Y5248D01*
X69562Y5904D01*
X67594D02*
Y1969D01*
Y3936D01*
X66938Y4592D01*
X65626D01*
X64970Y3936D01*
Y1969D01*
X63658D02*
Y4592D01*
X63002D01*
X62346Y3936D01*
Y1969D01*
Y3936D01*
X61690Y4592D01*
X61034Y3936D01*
Y1969D01*
X53163Y5904D02*
X55787D01*
Y1969D01*
X53163D01*
X55787Y3936D02*
X54475D01*
X51851Y1969D02*
X50539D01*
X51195D01*
Y5904D01*
X51851D01*
X46603Y1969D02*
X47915D01*
X48571Y2624D01*
Y3936D01*
X47915Y4592D01*
X46603D01*
X45947Y3936D01*
Y3280D01*
X48571D01*
X42012Y4592D02*
X43979D01*
X44635Y3936D01*
Y2624D01*
X43979Y1969D01*
X42012D01*
X40044Y5248D02*
Y4592D01*
X40700D01*
X39388D01*
X40044D01*
Y2624D01*
X39388Y1969D01*
X37420Y4592D02*
Y1969D01*
Y3280D01*
X36764Y3936D01*
X36108Y4592D01*
X35452D01*
X32828Y1969D02*
X31516D01*
X30860Y2624D01*
Y3936D01*
X31516Y4592D01*
X32828D01*
X33484Y3936D01*
Y2624D01*
X32828Y1969D01*
X29548D02*
Y4592D01*
X27581D01*
X26925Y3936D01*
Y1969D01*
X25613D02*
X24301D01*
X24957D01*
Y4592D01*
X25613D01*
X19709D02*
X21677D01*
X22333Y3936D01*
Y2624D01*
X21677Y1969D01*
X19709D01*
X18397D02*
X16429D01*
X15773Y2624D01*
X16429Y3280D01*
X17741D01*
X18397Y3936D01*
X17741Y4592D01*
X15773D01*
D13*
X76100Y34131D02*
X79370Y37402D01*
X118787Y24921D02*
X149426D01*
X111600Y30709D02*
X113000D01*
X24016Y23622D02*
X37795Y37402D01*
X79370D01*
X82677Y40709D01*
X75276Y43307D02*
X82677Y50709D01*
X62002Y43307D02*
X75276D01*
X59055Y46254D02*
X62002Y43307D01*
X59055Y46254D02*
Y50000D01*
X22901Y12599D02*
X67252D01*
X15500Y20000D02*
X22901Y12599D01*
X15500Y20000D02*
Y53273D01*
X19447Y57220D01*
X135693D01*
X153362Y39551D01*
Y28858D02*
Y39551D01*
X149426Y24921D02*
X153362Y28858D01*
X113000Y30709D02*
X118787Y24921D01*
X117505Y24803D02*
X146457D01*
X111600Y30709D02*
X117505Y24803D01*
X82677Y30709D02*
X111600D01*
X112001Y21700D02*
X121890Y11811D01*
X79400Y21700D02*
X112001D01*
X76100Y25000D02*
X79400Y21700D01*
X76100Y25000D02*
Y34131D01*
X82677Y40709D02*
X140551D01*
X146457Y34803D01*
X101252Y12599D02*
X109050Y4800D01*
X128400D01*
X131890Y8290D01*
Y11811D01*
X24016Y43307D02*
X30709Y50000D01*
X49213D01*
D14*
X101252Y12599D02*
D03*
X67252D02*
D03*
X121890Y11811D02*
D03*
X131890D02*
D03*
D15*
X49213Y26378D02*
D03*
X59055D02*
D03*
X68898D02*
D03*
X49213Y50000D02*
D03*
X59055D02*
D03*
X82677Y40709D02*
D03*
Y30709D02*
D03*
D16*
X68898Y50000D02*
D03*
D17*
X82677Y50709D02*
D03*
D18*
X24016Y23622D02*
D03*
Y43307D02*
D03*
D19*
X146457Y24803D02*
D03*
Y34803D02*
D03*
D20*
X6693Y6299D02*
D03*
X150000Y55118D02*
D03*
M02*
