G04*
G04 #@! TF.GenerationSoftware,Altium Limited,Altium Designer,20.1.11 (218)*
G04*
G04 Layer_Physical_Order=2*
G04 Layer_Color=16711680*
%FSLAX44Y44*%
%MOMM*%
G71*
G04*
G04 #@! TF.SameCoordinates,A3CC035F-AD98-4BC7-994B-CAE0B121EB55*
G04*
G04*
G04 #@! TF.FilePolarity,Positive*
G04*
G01*
G75*
%ADD10C,0.8000*%
%ADD11C,3.0000*%
%ADD12R,3.0000X3.0000*%
%ADD13R,2.5000X2.5000*%
%ADD14C,2.5000*%
%ADD15R,2.0000X2.5000*%
%ADD16O,2.0000X2.5000*%
%ADD17C,2.0000*%
%ADD18R,2.0000X2.0000*%
G04:AMPARAMS|DCode=19|XSize=2mm|YSize=2mm|CornerRadius=0.5mm|HoleSize=0mm|Usage=FLASHONLY|Rotation=0.000|XOffset=0mm|YOffset=0mm|HoleType=Round|Shape=RoundedRectangle|*
%AMROUNDEDRECTD19*
21,1,2.0000,1.0000,0,0,0.0*
21,1,1.0000,2.0000,0,0,0.0*
1,1,1.0000,0.5000,-0.5000*
1,1,1.0000,-0.5000,-0.5000*
1,1,1.0000,-0.5000,0.5000*
1,1,1.0000,0.5000,0.5000*
%
%ADD19ROUNDEDRECTD19*%
G04:AMPARAMS|DCode=20|XSize=2mm|YSize=2mm|CornerRadius=0.5mm|HoleSize=0mm|Usage=FLASHONLY|Rotation=90.000|XOffset=0mm|YOffset=0mm|HoleType=Round|Shape=RoundedRectangle|*
%AMROUNDEDRECTD20*
21,1,2.0000,1.0000,0,0,90.0*
21,1,1.0000,2.0000,0,0,90.0*
1,1,1.0000,0.5000,0.5000*
1,1,1.0000,0.5000,-0.5000*
1,1,1.0000,-0.5000,-0.5000*
1,1,1.0000,-0.5000,0.5000*
%
%ADD20ROUNDEDRECTD20*%
%ADD21R,2.5000X2.5000*%
%ADD22R,2.0000X2.0000*%
G36*
X600000Y1270D02*
X0Y1270D01*
Y500000D01*
X600000Y500000D01*
X600000Y1270D01*
D02*
G37*
%LPC*%
G36*
X412000Y465148D02*
X408727Y464717D01*
X405676Y463454D01*
X403056Y461444D01*
X401046Y458824D01*
X399987Y456268D01*
X398613D01*
X397554Y458824D01*
X395544Y461444D01*
X392924Y463454D01*
X389874Y464717D01*
X386600Y465148D01*
X383327Y464717D01*
X380276Y463454D01*
X377657Y461444D01*
X375647Y458824D01*
X374588Y456268D01*
X373213D01*
X372154Y458824D01*
X370144Y461444D01*
X367524Y463454D01*
X364474Y464717D01*
X361200Y465148D01*
X357927Y464717D01*
X354876Y463454D01*
X352257Y461444D01*
X350247Y458824D01*
X349188Y456268D01*
X347813D01*
X346754Y458824D01*
X344744Y461444D01*
X342124Y463454D01*
X339074Y464717D01*
X337070Y464981D01*
Y450000D01*
Y435019D01*
X339074Y435283D01*
X342124Y436546D01*
X344744Y438557D01*
X346754Y441176D01*
X347813Y443733D01*
X349188D01*
X350247Y441176D01*
X352257Y438557D01*
X354876Y436546D01*
X357927Y435283D01*
X361200Y434852D01*
X364474Y435283D01*
X367524Y436546D01*
X370144Y438557D01*
X372154Y441176D01*
X373213Y443733D01*
X374588D01*
X375647Y441176D01*
X377657Y438557D01*
X380276Y436546D01*
X383327Y435283D01*
X386600Y434852D01*
X389874Y435283D01*
X392924Y436546D01*
X395544Y438557D01*
X397554Y441176D01*
X398613Y443733D01*
X399987D01*
X401046Y441176D01*
X403056Y438557D01*
X405676Y436546D01*
X408727Y435283D01*
X412000Y434852D01*
X415274Y435283D01*
X418324Y436546D01*
X420944Y438557D01*
X422954Y441176D01*
X424217Y444226D01*
X424648Y447500D01*
Y452500D01*
X424217Y455774D01*
X422954Y458824D01*
X420944Y461444D01*
X418324Y463454D01*
X415274Y464717D01*
X412000Y465148D01*
D02*
G37*
G36*
X55000Y465785D02*
X45000D01*
X43032Y465526D01*
X41198Y464766D01*
X39623Y463557D01*
X38414Y461982D01*
X37655Y460148D01*
X37395Y458180D01*
Y448180D01*
X37655Y446211D01*
X38414Y444377D01*
X39623Y442802D01*
X41198Y441594D01*
X43032Y440834D01*
X45000Y440575D01*
X53277D01*
X69510Y424342D01*
X70876Y423293D01*
X72467Y422634D01*
X74174Y422410D01*
X137275D01*
X234149Y421660D01*
X234175Y421663D01*
X234200Y421660D01*
X235028Y421769D01*
X235858Y421871D01*
X235882Y421881D01*
X235907Y421884D01*
X236679Y422204D01*
X237454Y422518D01*
X237475Y422534D01*
X237498Y422543D01*
X238162Y423053D01*
X238828Y423556D01*
X238844Y423576D01*
X238865Y423592D01*
X239375Y424257D01*
X239887Y424914D01*
X239897Y424938D01*
X239913Y424958D01*
X240233Y425732D01*
X240558Y426500D01*
X240562Y426525D01*
X240572Y426549D01*
X240681Y427378D01*
X240796Y428205D01*
X240793Y428231D01*
X240797Y428256D01*
Y436755D01*
X243144Y438557D01*
X245154Y441176D01*
X246213Y443733D01*
X247588D01*
X248647Y441176D01*
X250657Y438557D01*
X253276Y436546D01*
X256327Y435283D01*
X259600Y434852D01*
X262874Y435283D01*
X265924Y436546D01*
X268544Y438557D01*
X270554Y441176D01*
X271613Y443733D01*
X272987D01*
X274046Y441176D01*
X276056Y438557D01*
X278676Y436546D01*
X281727Y435283D01*
X285000Y434852D01*
X288274Y435283D01*
X291324Y436546D01*
X293944Y438557D01*
X295954Y441176D01*
X297013Y443733D01*
X298388D01*
X299447Y441176D01*
X301457Y438557D01*
X303804Y436755D01*
Y412942D01*
X287348Y396486D01*
X188100D01*
X186393Y396262D01*
X184802Y395603D01*
X183436Y394554D01*
X182388Y393188D01*
X181728Y391597D01*
X181504Y389890D01*
Y385145D01*
X179157Y383344D01*
X177146Y380724D01*
X176087Y378168D01*
X174713D01*
X173654Y380724D01*
X171644Y383344D01*
X169024Y385354D01*
X165974Y386617D01*
X162700Y387048D01*
X159427Y386617D01*
X156376Y385354D01*
X153757Y383344D01*
X151747Y380724D01*
X150688Y378168D01*
X149313D01*
X148254Y380724D01*
X146244Y383344D01*
X143897Y385145D01*
Y391160D01*
X143672Y392867D01*
X143013Y394458D01*
X141965Y395824D01*
X140598Y396873D01*
X139008Y397532D01*
X137300Y397756D01*
X74341D01*
X72633Y397532D01*
X71042Y396873D01*
X69676Y395824D01*
X53277Y379425D01*
X45000D01*
X43032Y379166D01*
X41198Y378406D01*
X39623Y377197D01*
X38414Y375622D01*
X37655Y373788D01*
X37395Y371820D01*
Y361820D01*
X37655Y359851D01*
X38414Y358017D01*
X39623Y356442D01*
X41198Y355233D01*
X43032Y354474D01*
X45000Y354215D01*
X55000D01*
X56969Y354474D01*
X58803Y355233D01*
X60378Y356442D01*
X61587Y358017D01*
X62346Y359851D01*
X62606Y361820D01*
Y370096D01*
X77073Y384564D01*
X99360D01*
Y356860D01*
X124440D01*
Y364360D01*
X125710Y364612D01*
X126347Y363076D01*
X128357Y360457D01*
X130976Y358447D01*
X134027Y357183D01*
X137300Y356752D01*
X140574Y357183D01*
X143624Y358447D01*
X146244Y360457D01*
X148254Y363076D01*
X149313Y365633D01*
X150688D01*
X151747Y363076D01*
X153757Y360457D01*
X156376Y358447D01*
X159427Y357183D01*
X162700Y356752D01*
X165974Y357183D01*
X169024Y358447D01*
X171644Y360457D01*
X173654Y363076D01*
X174713Y365633D01*
X176087D01*
X177146Y363076D01*
X179157Y360457D01*
X181776Y358447D01*
X184827Y357183D01*
X186830Y356919D01*
Y371900D01*
X188100D01*
Y373170D01*
X200748D01*
Y374400D01*
X200317Y377674D01*
X199054Y380724D01*
X197956Y382155D01*
X198518Y383294D01*
X221660D01*
Y355560D01*
X246740D01*
Y363060D01*
X248010Y363312D01*
X248647Y361776D01*
X250657Y359157D01*
X253276Y357147D01*
X256327Y355883D01*
X259600Y355452D01*
X262874Y355883D01*
X265924Y357147D01*
X268544Y359157D01*
X270554Y361776D01*
X271613Y364333D01*
X272987D01*
X274046Y361776D01*
X276056Y359157D01*
X278404Y357355D01*
Y350913D01*
X223276Y295785D01*
X215000D01*
X213032Y295526D01*
X211197Y294766D01*
X209622Y293558D01*
X208414Y291983D01*
X207654Y290148D01*
X207395Y288180D01*
Y278180D01*
X207654Y276212D01*
X208414Y274377D01*
X209622Y272802D01*
X211197Y271594D01*
X213032Y270834D01*
X215000Y270575D01*
X225000D01*
X226968Y270834D01*
X228803Y271594D01*
X230378Y272802D01*
X231586Y274377D01*
X232346Y276212D01*
X232605Y278180D01*
Y286456D01*
X289665Y343516D01*
X290713Y344882D01*
X291372Y346473D01*
X291597Y348180D01*
Y357355D01*
X293944Y359157D01*
X295954Y361776D01*
X297013Y364333D01*
X298388D01*
X299447Y361776D01*
X301457Y359157D01*
X304076Y357147D01*
X307127Y355883D01*
X310400Y355452D01*
X313674Y355883D01*
X316724Y357147D01*
X319344Y359157D01*
X321354Y361776D01*
X322413Y364333D01*
X323787D01*
X324846Y361776D01*
X326856Y359157D01*
X329476Y357147D01*
X332527Y355883D01*
X335800Y355452D01*
X339074Y355883D01*
X342124Y357147D01*
X344744Y359157D01*
X346754Y361776D01*
X347813Y364333D01*
X349188D01*
X350247Y361776D01*
X352257Y359157D01*
X354876Y357147D01*
X357927Y355883D01*
X361200Y355452D01*
X364474Y355883D01*
X367524Y357147D01*
X370144Y359157D01*
X372154Y361776D01*
X373213Y364333D01*
X374588D01*
X375647Y361776D01*
X377657Y359157D01*
X380276Y357147D01*
X383327Y355883D01*
X386600Y355452D01*
X389874Y355883D01*
X392924Y357147D01*
X395544Y359157D01*
X397554Y361776D01*
X398613Y364333D01*
X399987D01*
X401046Y361776D01*
X403056Y359157D01*
X405676Y357147D01*
X408727Y355883D01*
X410730Y355619D01*
Y370600D01*
Y385581D01*
X408727Y385317D01*
X405676Y384054D01*
X403056Y382044D01*
X401046Y379424D01*
X399987Y376868D01*
X398613D01*
X397554Y379424D01*
X395544Y382044D01*
X392924Y384054D01*
X389874Y385317D01*
X386600Y385748D01*
X383327Y385317D01*
X380276Y384054D01*
X377657Y382044D01*
X375647Y379424D01*
X374588Y376868D01*
X373213D01*
X372154Y379424D01*
X370144Y382044D01*
X367524Y384054D01*
X364474Y385317D01*
X361200Y385748D01*
X357927Y385317D01*
X354876Y384054D01*
X352257Y382044D01*
X350247Y379424D01*
X349188Y376868D01*
X347813D01*
X346754Y379424D01*
X344744Y382044D01*
X342124Y384054D01*
X339074Y385317D01*
X335800Y385748D01*
X332527Y385317D01*
X329476Y384054D01*
X326856Y382044D01*
X324846Y379424D01*
X323787Y376868D01*
X322413D01*
X321354Y379424D01*
X319344Y382044D01*
X316724Y384054D01*
X313674Y385317D01*
X310400Y385748D01*
X307127Y385317D01*
X304076Y384054D01*
X301457Y382044D01*
X299447Y379424D01*
X298388Y376868D01*
X297013D01*
X295954Y379424D01*
X293944Y382044D01*
X292948Y382808D01*
X293113Y384067D01*
X293378Y384177D01*
X294745Y385226D01*
X315065Y405546D01*
X316113Y406912D01*
X316772Y408503D01*
X316997Y410210D01*
Y436755D01*
X319344Y438557D01*
X321354Y441176D01*
X322277Y443404D01*
X323924D01*
X324846Y441176D01*
X326856Y438557D01*
X329476Y436546D01*
X332527Y435283D01*
X334530Y435019D01*
Y450000D01*
Y464981D01*
X332527Y464717D01*
X329476Y463454D01*
X326856Y461444D01*
X324846Y458824D01*
X323924Y456596D01*
X322277D01*
X321354Y458824D01*
X319344Y461444D01*
X316724Y463454D01*
X313674Y464717D01*
X311670Y464981D01*
Y450000D01*
X309130D01*
Y464981D01*
X307127Y464717D01*
X304076Y463454D01*
X301457Y461444D01*
X299447Y458824D01*
X298388Y456268D01*
X297013D01*
X295954Y458824D01*
X293944Y461444D01*
X291324Y463454D01*
X288274Y464717D01*
X285000Y465148D01*
X281727Y464717D01*
X278676Y463454D01*
X276056Y461444D01*
X274046Y458824D01*
X272987Y456268D01*
X271613D01*
X270554Y458824D01*
X268544Y461444D01*
X265924Y463454D01*
X262874Y464717D01*
X259600Y465148D01*
X256327Y464717D01*
X253276Y463454D01*
X250657Y461444D01*
X248647Y458824D01*
X247588Y456268D01*
X246213D01*
X245154Y458824D01*
X243144Y461444D01*
X240524Y463454D01*
X237474Y464717D01*
X234200Y465148D01*
X230927Y464717D01*
X227876Y463454D01*
X225257Y461444D01*
X223246Y458824D01*
X221983Y455774D01*
X221552Y452500D01*
Y447500D01*
X221983Y444226D01*
X223246Y441176D01*
X225257Y438557D01*
X227334Y436963D01*
X227381Y435898D01*
X226418Y434913D01*
X197041Y435140D01*
X196637Y436344D01*
X197044Y436657D01*
X199054Y439276D01*
X200317Y442327D01*
X200748Y445600D01*
Y450600D01*
X200317Y453874D01*
X199054Y456924D01*
X197044Y459544D01*
X194424Y461554D01*
X191374Y462817D01*
X188100Y463248D01*
X184827Y462817D01*
X181776Y461554D01*
X179157Y459544D01*
X177146Y456924D01*
X176087Y454368D01*
X174713D01*
X173654Y456924D01*
X171644Y459544D01*
X169024Y461554D01*
X165974Y462817D01*
X162700Y463248D01*
X159427Y462817D01*
X156376Y461554D01*
X153757Y459544D01*
X151747Y456924D01*
X150688Y454368D01*
X149313D01*
X148254Y456924D01*
X146244Y459544D01*
X143624Y461554D01*
X140574Y462817D01*
X137300Y463248D01*
X134027Y462817D01*
X130976Y461554D01*
X128357Y459544D01*
X126347Y456924D01*
X125288Y454368D01*
X123913D01*
X122854Y456924D01*
X120844Y459544D01*
X118224Y461554D01*
X115174Y462817D01*
X111900Y463248D01*
X108627Y462817D01*
X105576Y461554D01*
X102957Y459544D01*
X100947Y456924D01*
X99683Y453874D01*
X99252Y450600D01*
Y445600D01*
X99683Y442327D01*
X100947Y439276D01*
X102791Y436872D01*
X102436Y435602D01*
X76906D01*
X62606Y449903D01*
Y458180D01*
X62346Y460148D01*
X61587Y461982D01*
X60378Y463557D01*
X58803Y464766D01*
X56969Y465526D01*
X55000Y465785D01*
D02*
G37*
G36*
X542540Y458340D02*
X507460D01*
Y423260D01*
X542540D01*
Y458340D01*
D02*
G37*
G36*
X525000Y407625D02*
X521562Y407286D01*
X518256Y406283D01*
X515208Y404655D01*
X512538Y402463D01*
X510346Y399792D01*
X508717Y396745D01*
X507714Y393439D01*
X507375Y390000D01*
X507714Y386562D01*
X508717Y383256D01*
X508790Y383119D01*
X453298Y327626D01*
X452249Y326260D01*
X451590Y324669D01*
X451366Y322962D01*
Y201694D01*
X450310Y200639D01*
X449040Y201165D01*
Y230040D01*
X418960D01*
Y221596D01*
X402114D01*
X400407Y221371D01*
X398816Y220713D01*
X397450Y219664D01*
X393762Y215976D01*
X377540D01*
Y221920D01*
X361789D01*
X335712Y247996D01*
X334346Y249045D01*
X332755Y249704D01*
X331048Y249928D01*
X146220D01*
X109425Y286724D01*
Y295000D01*
X109166Y296968D01*
X108406Y298803D01*
X107197Y300378D01*
X105622Y301586D01*
X103788Y302346D01*
X101820Y302605D01*
X91820D01*
X89851Y302346D01*
X88017Y301586D01*
X86442Y300378D01*
X85233Y298803D01*
X84474Y296968D01*
X84425Y296596D01*
X70640D01*
X68933Y296372D01*
X67342Y295713D01*
X65976Y294664D01*
X63308Y291996D01*
X52395D01*
X52346Y292368D01*
X51586Y294202D01*
X50377Y295778D01*
X48802Y296986D01*
X46968Y297746D01*
X45000Y298005D01*
X35000D01*
X33032Y297746D01*
X31197Y296986D01*
X29622Y295778D01*
X28414Y294202D01*
X27654Y292368D01*
X27395Y290400D01*
Y280400D01*
X27654Y278432D01*
X28414Y276597D01*
X29622Y275022D01*
X31197Y273814D01*
X32227Y273387D01*
Y272013D01*
X31197Y271586D01*
X29622Y270378D01*
X28414Y268803D01*
X27654Y266968D01*
X27395Y265000D01*
Y261270D01*
X40000D01*
X52605D01*
Y265000D01*
X52346Y266968D01*
X51586Y268803D01*
X50377Y270378D01*
X48802Y271586D01*
X47773Y272013D01*
Y273387D01*
X48802Y273814D01*
X50377Y275022D01*
X51586Y276597D01*
X52346Y278432D01*
X52395Y278804D01*
X66040D01*
X67747Y279028D01*
X69338Y279687D01*
X70704Y280736D01*
X73372Y283403D01*
X84425D01*
X84474Y283032D01*
X85233Y281197D01*
X86442Y279622D01*
X88017Y278414D01*
X89851Y277654D01*
X91820Y277395D01*
X100096D01*
X138823Y238668D01*
X140189Y237619D01*
X141780Y236960D01*
X143488Y236736D01*
X328316D01*
X352460Y212591D01*
Y196840D01*
X377540D01*
Y202783D01*
X396494D01*
X398201Y203008D01*
X399792Y203667D01*
X401158Y204715D01*
X404846Y208403D01*
X418960D01*
Y199960D01*
X447835D01*
X448361Y198690D01*
X418901Y169230D01*
X416949Y169822D01*
X414000Y170113D01*
X411052Y169822D01*
X408217Y168962D01*
X405604Y167566D01*
X403314Y165686D01*
X401434Y163396D01*
X400038Y160783D01*
X399178Y157948D01*
X398887Y155000D01*
X399178Y152052D01*
X400038Y149216D01*
X401434Y146604D01*
X403314Y144314D01*
X405604Y142434D01*
X408217Y141038D01*
X411052Y140178D01*
X414000Y139887D01*
X416949Y140178D01*
X419784Y141038D01*
X422396Y142434D01*
X424687Y144314D01*
X426566Y146604D01*
X427963Y149216D01*
X428823Y152052D01*
X429113Y155000D01*
X428823Y157948D01*
X428230Y159901D01*
X462626Y194297D01*
X463675Y195664D01*
X464334Y197255D01*
X464558Y198962D01*
Y320230D01*
X518119Y373790D01*
X518256Y373717D01*
X521562Y372714D01*
X525000Y372375D01*
X528439Y372714D01*
X531745Y373717D01*
X534792Y375346D01*
X537463Y377538D01*
X539655Y380208D01*
X541283Y383256D01*
X542286Y386562D01*
X542625Y390000D01*
X542286Y393439D01*
X541283Y396745D01*
X539655Y399792D01*
X537463Y402463D01*
X534792Y404655D01*
X531745Y406283D01*
X528439Y407286D01*
X525000Y407625D01*
D02*
G37*
G36*
X413270Y385581D02*
Y371870D01*
X424648D01*
Y373100D01*
X424217Y376374D01*
X422954Y379424D01*
X420944Y382044D01*
X418324Y384054D01*
X415274Y385317D01*
X413270Y385581D01*
D02*
G37*
G36*
X200748Y370630D02*
X189370D01*
Y356919D01*
X191374Y357183D01*
X194424Y358447D01*
X197044Y360457D01*
X199054Y363076D01*
X200317Y366127D01*
X200748Y369400D01*
Y370630D01*
D02*
G37*
G36*
X424648Y369330D02*
X413270D01*
Y355619D01*
X415274Y355883D01*
X418324Y357147D01*
X420944Y359157D01*
X422954Y361776D01*
X424217Y364827D01*
X424648Y368100D01*
Y369330D01*
D02*
G37*
G36*
X525000Y356825D02*
X521562Y356486D01*
X518256Y355484D01*
X515208Y353855D01*
X512538Y351663D01*
X510346Y348992D01*
X508717Y345945D01*
X507714Y342639D01*
X507375Y339200D01*
X507714Y335762D01*
X508717Y332455D01*
X510346Y329408D01*
X512538Y326738D01*
X515208Y324546D01*
X518256Y322917D01*
X521562Y321914D01*
X525000Y321575D01*
X528439Y321914D01*
X531745Y322917D01*
X534792Y324546D01*
X537463Y326738D01*
X539655Y329408D01*
X541283Y332455D01*
X542286Y335762D01*
X542625Y339200D01*
X542286Y342639D01*
X541283Y345945D01*
X539655Y348992D01*
X537463Y351663D01*
X534792Y353855D01*
X531745Y355484D01*
X528439Y356486D01*
X525000Y356825D01*
D02*
G37*
G36*
X188180Y302605D02*
X178180D01*
X176211Y302346D01*
X174377Y301586D01*
X172802Y300378D01*
X171593Y298803D01*
X170834Y296968D01*
X170575Y295000D01*
Y285000D01*
X170834Y283032D01*
X171593Y281197D01*
X172802Y279622D01*
X174377Y278414D01*
X176211Y277654D01*
X178180Y277395D01*
X188180D01*
X190148Y277654D01*
X191982Y278414D01*
X193557Y279622D01*
X194766Y281197D01*
X195526Y283032D01*
X195785Y285000D01*
Y295000D01*
X195526Y296968D01*
X194766Y298803D01*
X193557Y300378D01*
X191982Y301586D01*
X190148Y302346D01*
X188180Y302605D01*
D02*
G37*
G36*
X325000Y295785D02*
X315000D01*
X313032Y295526D01*
X311197Y294766D01*
X309622Y293558D01*
X308414Y291983D01*
X307654Y290148D01*
X307395Y288180D01*
Y278180D01*
X307654Y276212D01*
X308414Y274377D01*
X309622Y272802D01*
X311197Y271594D01*
X313032Y270834D01*
X315000Y270575D01*
X325000D01*
X326968Y270834D01*
X328802Y271594D01*
X330378Y272802D01*
X331586Y274377D01*
X332346Y276212D01*
X332605Y278180D01*
Y288180D01*
X332346Y290148D01*
X331586Y291983D01*
X330378Y293558D01*
X328802Y294766D01*
X326968Y295526D01*
X325000Y295785D01*
D02*
G37*
G36*
X275000D02*
X265000D01*
X263032Y295526D01*
X261197Y294766D01*
X259622Y293558D01*
X258414Y291983D01*
X257654Y290148D01*
X257395Y288180D01*
Y278180D01*
X257654Y276212D01*
X258414Y274377D01*
X259622Y272802D01*
X261197Y271594D01*
X263032Y270834D01*
X265000Y270575D01*
X275000D01*
X276968Y270834D01*
X278803Y271594D01*
X280378Y272802D01*
X281586Y274377D01*
X282346Y276212D01*
X282605Y278180D01*
Y288180D01*
X282346Y290148D01*
X281586Y291983D01*
X280378Y293558D01*
X278803Y294766D01*
X276968Y295526D01*
X275000Y295785D01*
D02*
G37*
G36*
X38730Y258730D02*
X27395D01*
Y255000D01*
X27654Y253032D01*
X28414Y251197D01*
X29622Y249622D01*
X31197Y248414D01*
X33032Y247654D01*
X35000Y247395D01*
X38730D01*
Y258730D01*
D02*
G37*
G36*
X556000Y230113D02*
X553051Y229822D01*
X550216Y228962D01*
X547604Y227566D01*
X545314Y225686D01*
X543434Y223396D01*
X542038Y220783D01*
X541177Y217948D01*
X540887Y215000D01*
X541177Y212052D01*
X542038Y209216D01*
X543434Y206604D01*
X545314Y204314D01*
X547604Y202434D01*
X550216Y201037D01*
X553051Y200177D01*
X556000Y199887D01*
X558948Y200177D01*
X561783Y201037D01*
X564396Y202434D01*
X566686Y204314D01*
X568566Y206604D01*
X569962Y209216D01*
X570822Y212052D01*
X571113Y215000D01*
X570822Y217948D01*
X569962Y220783D01*
X568566Y223396D01*
X566686Y225686D01*
X564396Y227566D01*
X561783Y228962D01*
X558948Y229822D01*
X556000Y230113D01*
D02*
G37*
G36*
X275000Y209425D02*
X271270D01*
Y198090D01*
X282605D01*
Y201820D01*
X282346Y203788D01*
X281586Y205623D01*
X280378Y207198D01*
X278803Y208406D01*
X276968Y209166D01*
X275000Y209425D01*
D02*
G37*
G36*
X268730D02*
X265000D01*
X263032Y209166D01*
X261197Y208406D01*
X259622Y207198D01*
X258414Y205623D01*
X257654Y203788D01*
X257395Y201820D01*
Y198090D01*
X268730D01*
Y209425D01*
D02*
G37*
G36*
X325000D02*
X315000D01*
X313032Y209166D01*
X311197Y208406D01*
X309622Y207198D01*
X308414Y205623D01*
X307654Y203788D01*
X307395Y201820D01*
Y191820D01*
X307654Y189852D01*
X308414Y188018D01*
X309622Y186442D01*
X311197Y185234D01*
X313032Y184474D01*
X315000Y184215D01*
X325000D01*
X326968Y184474D01*
X328802Y185234D01*
X330378Y186442D01*
X331586Y188018D01*
X332346Y189852D01*
X332605Y191820D01*
Y201820D01*
X332346Y203788D01*
X331586Y205623D01*
X330378Y207198D01*
X328802Y208406D01*
X326968Y209166D01*
X325000Y209425D01*
D02*
G37*
G36*
X282605Y195550D02*
X271270D01*
Y184215D01*
X275000D01*
X276968Y184474D01*
X278803Y185234D01*
X280378Y186442D01*
X281586Y188018D01*
X282346Y189852D01*
X282605Y191820D01*
Y195550D01*
D02*
G37*
G36*
X268730D02*
X257395D01*
Y191820D01*
X257654Y189852D01*
X258414Y188018D01*
X259622Y186442D01*
X261197Y185234D01*
X263032Y184474D01*
X265000Y184215D01*
X268730D01*
Y195550D01*
D02*
G37*
G36*
X225000Y209425D02*
X215000D01*
X213032Y209166D01*
X211197Y208406D01*
X209622Y207198D01*
X208414Y205623D01*
X207654Y203788D01*
X207395Y201820D01*
Y191820D01*
X207654Y189852D01*
X208414Y188018D01*
X209622Y186442D01*
X211197Y185234D01*
X213032Y184474D01*
X215000Y184215D01*
X225000D01*
X226968Y184474D01*
X228803Y185234D01*
X230378Y186442D01*
X231586Y188018D01*
X232346Y189852D01*
X232605Y191820D01*
Y201820D01*
X232346Y203788D01*
X231586Y205623D01*
X230378Y207198D01*
X228803Y208406D01*
X226968Y209166D01*
X225000Y209425D01*
D02*
G37*
G36*
X52605Y258730D02*
X41270D01*
Y247395D01*
X43911D01*
X109726Y186507D01*
X114988Y181246D01*
X114905Y179978D01*
X113556Y178944D01*
X111546Y176324D01*
X111310Y175753D01*
X110040Y176006D01*
Y182540D01*
X84960D01*
Y157460D01*
X110040D01*
Y163995D01*
X111310Y164247D01*
X111546Y163676D01*
X113556Y161056D01*
X116176Y159046D01*
X119227Y157783D01*
X121230Y157519D01*
Y170000D01*
X122500D01*
Y171270D01*
X134981D01*
X134717Y173274D01*
X133454Y176324D01*
X131444Y178944D01*
X129097Y180745D01*
Y183062D01*
X128872Y184769D01*
X128213Y186360D01*
X127164Y187726D01*
X118964Y195926D01*
X118862Y196005D01*
X118780Y196104D01*
X52605Y257325D01*
Y258730D01*
D02*
G37*
G36*
X134981Y168730D02*
X123770D01*
Y157519D01*
X125774Y157783D01*
X128824Y159046D01*
X131444Y161056D01*
X133454Y163676D01*
X134717Y166727D01*
X134981Y168730D01*
D02*
G37*
G36*
X288180Y157605D02*
X284450D01*
Y146270D01*
X295785D01*
Y150000D01*
X295526Y151968D01*
X294766Y153802D01*
X293558Y155378D01*
X291983Y156586D01*
X290148Y157346D01*
X288180Y157605D01*
D02*
G37*
G36*
X281910D02*
X278180D01*
X276212Y157346D01*
X274377Y156586D01*
X272802Y155378D01*
X271594Y153802D01*
X270834Y151968D01*
X270785Y151596D01*
X246854D01*
X245147Y151372D01*
X243556Y150713D01*
X242190Y149664D01*
X199936Y107410D01*
X198887Y106044D01*
X198228Y104453D01*
X198004Y102746D01*
Y92395D01*
X197632Y92346D01*
X195798Y91586D01*
X194222Y90377D01*
X193014Y88802D01*
X192254Y86968D01*
X191995Y85000D01*
Y81270D01*
X204600D01*
Y80000D01*
X205870D01*
Y67395D01*
X209600D01*
X211568Y67654D01*
X213403Y68414D01*
X214978Y69622D01*
X216186Y71197D01*
X216613Y72227D01*
X217987D01*
X218414Y71197D01*
X219622Y69622D01*
X221197Y68414D01*
X223032Y67654D01*
X225000Y67395D01*
X235000D01*
X236968Y67654D01*
X238803Y68414D01*
X240378Y69622D01*
X241586Y71197D01*
X242346Y73032D01*
X242605Y75000D01*
Y85000D01*
X242346Y86968D01*
X241586Y88802D01*
X240378Y90377D01*
X238803Y91586D01*
X236968Y92346D01*
X235000Y92605D01*
X225000D01*
X223032Y92346D01*
X221197Y91586D01*
X219622Y90377D01*
X218414Y88802D01*
X217987Y87773D01*
X216613D01*
X216186Y88802D01*
X214978Y90377D01*
X213403Y91586D01*
X211568Y92346D01*
X211196Y92395D01*
Y100014D01*
X249586Y138404D01*
X270785D01*
X270834Y138032D01*
X271594Y136197D01*
X272802Y134622D01*
X274377Y133414D01*
X276212Y132654D01*
X278180Y132395D01*
X281910D01*
Y145000D01*
Y157605D01*
D02*
G37*
G36*
X201820D02*
X191820D01*
X189852Y157346D01*
X188018Y156586D01*
X186442Y155378D01*
X185234Y153802D01*
X184474Y151968D01*
X184215Y150000D01*
Y140000D01*
X184474Y138032D01*
X185234Y136197D01*
X186442Y134622D01*
X188018Y133414D01*
X189852Y132654D01*
X191820Y132395D01*
X201820D01*
X203788Y132654D01*
X205623Y133414D01*
X207198Y134622D01*
X208406Y136197D01*
X209166Y138032D01*
X209425Y140000D01*
Y150000D01*
X209166Y151968D01*
X208406Y153802D01*
X207198Y155378D01*
X205623Y156586D01*
X203788Y157346D01*
X201820Y157605D01*
D02*
G37*
G36*
X322860Y124038D02*
Y110320D01*
X336578D01*
X336412Y111998D01*
X335552Y114833D01*
X334156Y117446D01*
X332276Y119736D01*
X329986Y121616D01*
X327373Y123012D01*
X324538Y123872D01*
X322860Y124038D01*
D02*
G37*
G36*
X295785Y143730D02*
X284450D01*
Y132395D01*
X286456D01*
X306787Y112064D01*
X306768Y111998D01*
X306602Y110320D01*
X320320D01*
Y124038D01*
X318642Y123872D01*
X315807Y123012D01*
X314953Y122556D01*
X295785Y141724D01*
Y143730D01*
D02*
G37*
G36*
X336578Y107780D02*
X322860D01*
Y94062D01*
X324538Y94227D01*
X327373Y95087D01*
X329986Y96484D01*
X332276Y98364D01*
X334156Y100654D01*
X335552Y103266D01*
X336412Y106102D01*
X336578Y107780D01*
D02*
G37*
G36*
X365000Y113268D02*
X361726Y112837D01*
X358676Y111573D01*
X356056Y109563D01*
X354255Y107216D01*
X351260D01*
X349552Y106991D01*
X347961Y106332D01*
X346595Y105284D01*
X326491Y85180D01*
X324538Y85772D01*
X321590Y86063D01*
X318642Y85772D01*
X315807Y84912D01*
X315441Y84717D01*
X314379Y85589D01*
X314822Y87051D01*
X315113Y90000D01*
X314822Y92948D01*
X314379Y94411D01*
X315441Y95283D01*
X315807Y95087D01*
X318642Y94227D01*
X320320Y94062D01*
Y107780D01*
X306602D01*
X306768Y106102D01*
X307211Y104639D01*
X306148Y103767D01*
X305783Y103962D01*
X302948Y104822D01*
X300000Y105113D01*
X297052Y104822D01*
X294216Y103962D01*
X291604Y102566D01*
X289314Y100686D01*
X287434Y98396D01*
X286038Y95783D01*
X285177Y92948D01*
X284887Y90000D01*
X285177Y87051D01*
X286038Y84216D01*
X287434Y81604D01*
X289314Y79314D01*
X291604Y77434D01*
X294216Y76037D01*
X297052Y75177D01*
X300000Y74887D01*
X302948Y75177D01*
X305783Y76037D01*
X306148Y76233D01*
X307211Y75361D01*
X306768Y73898D01*
X306477Y70950D01*
X306768Y68001D01*
X307628Y65166D01*
X309024Y62554D01*
X310904Y60264D01*
X313194Y58384D01*
X315807Y56987D01*
X318642Y56127D01*
X321590Y55837D01*
X324538Y56127D01*
X327373Y56987D01*
X329986Y58384D01*
X332276Y60264D01*
X334156Y62554D01*
X335552Y65166D01*
X336412Y68001D01*
X336703Y70950D01*
X336412Y73898D01*
X335820Y75851D01*
X353242Y93273D01*
X354909Y93171D01*
X356056Y91676D01*
X358676Y89666D01*
X361726Y88402D01*
X365000Y87971D01*
X368274Y88402D01*
X371324Y89666D01*
X373944Y91676D01*
X375745Y94023D01*
X393762D01*
X397450Y90335D01*
X398816Y89287D01*
X400407Y88628D01*
X402114Y88403D01*
X420472D01*
X421434Y86603D01*
X423314Y84313D01*
X425604Y82434D01*
X428217Y81037D01*
X431052Y80177D01*
X434000Y79887D01*
X436949Y80177D01*
X439784Y81037D01*
X442396Y82434D01*
X444687Y84313D01*
X446566Y86603D01*
X447962Y89216D01*
X448823Y92051D01*
X449113Y95000D01*
X448823Y97948D01*
X447962Y100783D01*
X446566Y103396D01*
X444687Y105686D01*
X442396Y107565D01*
X439784Y108962D01*
X436949Y109822D01*
X434000Y110112D01*
X431052Y109822D01*
X428217Y108962D01*
X425604Y107565D01*
X423314Y105686D01*
X421434Y103396D01*
X420472Y101596D01*
X404846D01*
X401158Y105284D01*
X399792Y106332D01*
X398201Y106991D01*
X396494Y107216D01*
X375745D01*
X373944Y109563D01*
X371324Y111573D01*
X368274Y112837D01*
X365000Y113268D01*
D02*
G37*
G36*
X556000Y110112D02*
X553051Y109822D01*
X550216Y108962D01*
X547604Y107565D01*
X545314Y105686D01*
X543434Y103396D01*
X542038Y100783D01*
X541177Y97948D01*
X540887Y95000D01*
X541177Y92051D01*
X542038Y89216D01*
X543434Y86603D01*
X545314Y84313D01*
X547604Y82434D01*
X550216Y81037D01*
X553051Y80177D01*
X556000Y79887D01*
X558948Y80177D01*
X561783Y81037D01*
X564396Y82434D01*
X566686Y84313D01*
X568566Y86603D01*
X569962Y89216D01*
X570822Y92051D01*
X571113Y95000D01*
X570822Y97948D01*
X569962Y100783D01*
X568566Y103396D01*
X566686Y105686D01*
X564396Y107565D01*
X561783Y108962D01*
X558948Y109822D01*
X556000Y110112D01*
D02*
G37*
G36*
X203330Y78730D02*
X191995D01*
Y75000D01*
X192254Y73032D01*
X193014Y71197D01*
X194222Y69622D01*
X195798Y68414D01*
X197632Y67654D01*
X199600Y67395D01*
X203330D01*
Y78730D01*
D02*
G37*
G36*
X140800Y75613D02*
X137852Y75322D01*
X135017Y74462D01*
X132404Y73066D01*
X130114Y71186D01*
X128235Y68896D01*
X127273Y67096D01*
X103528D01*
X102566Y68896D01*
X100687Y71186D01*
X98397Y73066D01*
X95784Y74462D01*
X92949Y75322D01*
X90000Y75613D01*
X87052Y75322D01*
X84217Y74462D01*
X81604Y73066D01*
X79314Y71186D01*
X77435Y68896D01*
X76038Y66283D01*
X75178Y63448D01*
X74888Y60500D01*
X75178Y57551D01*
X76038Y54716D01*
X77435Y52104D01*
X79314Y49813D01*
X81604Y47934D01*
X84217Y46537D01*
X87052Y45677D01*
X90000Y45387D01*
X92949Y45677D01*
X95784Y46537D01*
X98397Y47934D01*
X100687Y49813D01*
X102566Y52104D01*
X103528Y53903D01*
X127273D01*
X128235Y52104D01*
X130114Y49813D01*
X132404Y47934D01*
X135017Y46537D01*
X137852Y45677D01*
X140800Y45387D01*
X143749Y45677D01*
X146584Y46537D01*
X149197Y47934D01*
X151487Y49813D01*
X153366Y52104D01*
X154763Y54716D01*
X155623Y57551D01*
X155913Y60500D01*
X155623Y63448D01*
X154763Y66283D01*
X153366Y68896D01*
X151487Y71186D01*
X149197Y73066D01*
X146584Y74462D01*
X143749Y75322D01*
X140800Y75613D01*
D02*
G37*
G36*
X55040Y75540D02*
X24960D01*
Y45460D01*
X55040D01*
Y75540D01*
D02*
G37*
%LPD*%
D10*
X137300Y429006D02*
X234200Y428256D01*
Y450000D01*
X96820Y290000D02*
X143488Y243332D01*
X331048D01*
X365000Y209380D01*
X351260Y100620D02*
X365000D01*
X321590Y70950D02*
X351260Y100620D01*
X122500Y170000D02*
Y183062D01*
X114300Y191262D02*
X122500Y183062D01*
X40000Y260000D02*
X114300Y191262D01*
X246854Y145000D02*
X283180D01*
X204600Y102746D02*
X246854Y145000D01*
X204600Y80000D02*
Y102746D01*
X319130Y109050D02*
X321590D01*
X283180Y145000D02*
X319130Y109050D01*
X137300Y371900D02*
Y391160D01*
X74341D02*
X137300D01*
X50000Y366820D02*
X74341Y391160D01*
X457962Y322962D02*
X525000Y390000D01*
X457962Y198962D02*
Y322962D01*
X414000Y155000D02*
X457962Y198962D01*
X285000Y348180D02*
Y370600D01*
X220000Y283180D02*
X285000Y348180D01*
X188100Y371900D02*
Y389890D01*
X290080D01*
X310400Y410210D01*
Y450000D01*
X137300Y429006D02*
Y448100D01*
X74174Y429006D02*
X137300D01*
X50000Y453180D02*
X74174Y429006D01*
X402114Y215000D02*
X434000D01*
X396494Y209380D02*
X402114Y215000D01*
X365000Y209380D02*
X396494D01*
X70640Y290000D02*
X96820D01*
X66040Y285400D02*
X70640Y290000D01*
X40000Y285400D02*
X66040D01*
X402114Y95000D02*
X434000D01*
X396494Y100620D02*
X402114Y95000D01*
X365000Y100620D02*
X396494D01*
X310400Y450000D02*
X335800D01*
X90000Y60500D02*
X140800D01*
D11*
X525000Y339200D02*
D03*
Y390000D02*
D03*
D12*
Y440800D02*
D03*
D13*
X40000Y60500D02*
D03*
D14*
X90000D02*
D03*
X140800D02*
D03*
X300000Y90000D02*
D03*
X321590Y70950D02*
D03*
Y109050D02*
D03*
X556000Y215000D02*
D03*
Y95000D02*
D03*
X434000D02*
D03*
X414000Y155000D02*
D03*
D15*
X234200Y370600D02*
D03*
X111900Y371900D02*
D03*
D16*
X259600Y370600D02*
D03*
X285000D02*
D03*
X310400D02*
D03*
X335800D02*
D03*
X361200D02*
D03*
X386600D02*
D03*
X412000D02*
D03*
Y450000D02*
D03*
X386600D02*
D03*
X361200D02*
D03*
X335800D02*
D03*
X310400D02*
D03*
X285000D02*
D03*
X259600D02*
D03*
X234200D02*
D03*
X137300Y371900D02*
D03*
X162700D02*
D03*
X188100D02*
D03*
X111900Y448100D02*
D03*
X137300D02*
D03*
X162700D02*
D03*
X188100D02*
D03*
D17*
X122500Y170000D02*
D03*
X365000Y100620D02*
D03*
D18*
X97500Y170000D02*
D03*
D19*
X283180Y145000D02*
D03*
X196820D02*
D03*
X183180Y290000D02*
D03*
X96820D02*
D03*
X230000Y80000D02*
D03*
X204600D02*
D03*
D20*
X270000Y196820D02*
D03*
Y283180D02*
D03*
X220000Y196820D02*
D03*
Y283180D02*
D03*
X320000D02*
D03*
Y196820D02*
D03*
X50000Y366820D02*
D03*
Y453180D02*
D03*
X40000Y285400D02*
D03*
Y260000D02*
D03*
D21*
X434000Y215000D02*
D03*
D22*
X365000Y209380D02*
D03*
M02*
